<?xml version="1.0" encoding="UTF-8" standalone="no"?>
<!-- Generator: Adobe Illustrator 19.0.0, SVG Export Plug-In . SVG Version: 6.00 Build 0)  -->

<svg
   version="1.1"
   id="Capa_1"
   x="0px"
   y="0px"
   viewBox="0 0 32 32"
   xml:space="preserve"
   width="32"
   height="32"
   xmlns="http://www.w3.org/2000/svg"
   xmlns:svg="http://www.w3.org/2000/svg"><defs
   id="defs19" />
<g
   id="g2"
   transform="matrix(0.0625,0,0,0.0625,0.0625,0)"
   style="fill:#ffffff;fill-opacity:1">
	<g
   id="g1"
   style="fill:#ffffff;fill-opacity:1">
		<path
   d="M 351.979,49.892 331,40.773 v 98.89 l 6.856,4.433 C 381.152,172.086 407,219.526 407,271 c 0,83.262 -67.738,151 -151,151 -83.262,0 -151,-67.738 -151,-151 0,-51.474 25.848,-98.914 69.144,-126.904 L 181,139.663 v -98.89 l -20.979,9.118 C 71.924,88.183 15,174.973 15,271 15,335.373 40.068,395.894 85.587,441.413 131.106,486.932 191.626,512 256,512 320.373,512 380.894,486.932 426.413,441.413 471.932,395.894 497,335.373 497,271 497,174.973 440.076,88.183 351.979,49.892 Z"
   id="path1"
   style="fill:#ffffff;fill-opacity:1" />
	</g>
</g>
<g
   id="g4"
   transform="matrix(0.0625,0,0,0.0625,0.0625,0)"
   style="fill:#ffffff;fill-opacity:1">
	<g
   id="g3"
   style="fill:#ffffff;fill-opacity:1">
		<rect
   x="211"
   width="90"
   height="271"
   id="rect2"
   y="0"
   style="fill:#ffffff;fill-opacity:1" />
	</g>
</g>















</svg>
