<?xml version="1.0" encoding="UTF-8" standalone="no"?>
<!-- Created with Inkscape (http://www.inkscape.org/) -->

<svg
   version="1.1"
   id="svg1455"
   width="128"
   height="128"
   viewBox="0 0 128 128"
   xmlns="http://www.w3.org/2000/svg"
   xmlns:svg="http://www.w3.org/2000/svg">
  <defs
     id="defs1459">
    <clipPath
       clipPathUnits="userSpaceOnUse"
       id="clipPath1469">
      <path
         d="M 0,512 H 512 V 0 H 0 Z"
         id="path1467" />
    </clipPath>
  </defs>
  <mask
     id="custom">
    <rect
       id="bg"
       x="0"
       y="0"
       width="100%"
       height="100%"
       fill="#ffffff" />
    <g
       transform="matrix(1.3333333,0,0,-1.3333333,0,682.66667)"
       id="g1">
      <path
         transform="translate(295.834,508.9102)"
         d="M 0,0 C -12.981,2.028 -26.283,3.09 -39.834,3.09 -53.385,3.09 -66.687,2.028 -79.668,0 V -252.91 H 0 Z"
         style="fill:#ffffff;fill-opacity:1;fill-rule:nonzero;stroke:none"
         id="path1473" />
      <path
         transform="translate(411.8364,459.0898)"
         d="m 0,0 -48.498,-63.203 c 41.947,-32.235 68.994,-82.897 68.994,-139.887 0,-97.386 -78.947,-176.332 -176.332,-176.332 -97.386,0 -176.332,78.946 -176.332,176.332 0,56.99 27.046,107.652 68.993,139.887 L -311.673,0 c -60.901,-46.794 -100.163,-120.351 -100.163,-203.09 0,-141.385 114.615,-256 256,-256 141.384,0 256,114.615 256,256 C 100.164,-120.351 60.901,-46.794 0,0"
         style="fill:#ffffff;fill-opacity:1;fill-rule:nonzero;stroke:none"
         id="path1477" />
    </g>
  </mask>
  <g
     mask="url(#custom)"
     id="g2"
     transform="matrix(0.1875,0,0,0.1875,4.3333332e-4,1.6575e-5)"
     style="fill:#ffffff;fill-opacity:1">
    <g
       id="g1461"
       transform="matrix(1.3333333,0,0,-1.3333333,0,682.66667)"
       style="fill:#ffffff;fill-opacity:1">
      <g
         id="g1463"
         style="fill:#ffffff;fill-opacity:1">
        <g
           id="g1465"
           clip-path="url(#clipPath1469)"
           style="fill:#ffffff;fill-opacity:1">
          <g
             id="g1471"
             transform="translate(295.834,508.9102)"
             style="fill:#ffffff;fill-opacity:1">
            <path
               d="M 0,0 C -12.981,2.028 -26.283,3.09 -39.834,3.09 -53.385,3.09 -66.687,2.028 -79.668,0 V -252.91 H 0 Z"
               style="fill:#ffffff;fill-opacity:1;fill-rule:nonzero;stroke:none"
               id="path1" />
          </g>
          <g
             id="g1475"
             transform="translate(411.8364,459.0898)"
             style="fill:#ffffff;fill-opacity:1">
            <path
               d="m 0,0 -48.498,-63.203 c 41.947,-32.235 68.994,-82.897 68.994,-139.887 0,-97.386 -78.947,-176.332 -176.332,-176.332 -97.386,0 -176.332,78.946 -176.332,176.332 0,56.99 27.046,107.652 68.993,139.887 L -311.673,0 c -60.901,-46.794 -100.163,-120.351 -100.163,-203.09 0,-141.385 114.615,-256 256,-256 141.384,0 256,114.615 256,256 C 100.164,-120.351 60.901,-46.794 0,0"
               style="fill:#ffffff;fill-opacity:1;fill-rule:nonzero;stroke:none"
               id="path2" />
          </g>
        </g>
      </g>
    </g>
  </g>
</svg>
