<?xml version="1.0" encoding="UTF-8" standalone="no"?>
<!-- Generator: Adobe Illustrator 19.0.0, SVG Export Plug-In . SVG Version: 6.00 Build 0)  -->

<svg
   version="1.1"
   id="Layer_1"
   x="0px"
   y="0px"
   viewBox="0 0 32 32"
   xml:space="preserve"
   width="32"
   height="32"
   xmlns="http://www.w3.org/2000/svg"
   xmlns:svg="http://www.w3.org/2000/svg"><defs
   id="defs15" />
<g
   id="XMLID_520_"
   transform="matrix(0.0969697,0,0,0.0969697,0.00597541,0)"
   style="fill:#ffffff;fill-opacity:1">
	<path
   id="XMLID_521_"
   d="m 7.105,221.52 30,51.961 c 3.576,6.192 11.025,9 17.797,6.709 l 44.144,-14.934 c 3.901,2.572 7.946,4.912 12.109,7.006 l 9.136,45.68 C 121.693,324.953 127.85,330 135,330 h 60 c 7.15,0 13.307,-5.047 14.709,-12.058 l 9.136,-45.68 c 4.163,-2.094 8.207,-4.435 12.108,-7.006 l 44.145,14.934 c 6.772,2.289 14.222,-0.516 17.797,-6.709 l 30,-51.962 c 3.575,-6.192 2.283,-14.047 -3.088,-18.767 l -35.01,-30.767 C 284.932,169.654 285,167.321 285,165 c 0,-2.322 -0.068,-4.655 -0.203,-6.986 l 35.008,-30.766 c 5.371,-4.72 6.663,-12.575 3.088,-18.767 l -30,-51.962 c -3.575,-6.192 -11.025,-9.001 -17.797,-6.709 l -44.143,14.934 c -3.9,-2.572 -7.945,-4.912 -12.108,-7.006 l -9.136,-45.68 C 208.307,5.047 202.15,0 195,0 h -60 c -7.15,0 -13.307,5.047 -14.709,12.058 l -9.136,45.68 c -4.163,2.094 -8.207,4.435 -12.108,7.006 L 54.902,49.81 c -6.77,-2.29 -14.221,0.517 -17.797,6.709 l -30,51.962 c -3.575,6.192 -2.283,14.047 3.088,18.767 l 35.008,30.766 C 45.067,160.342 45,162.675 45,165 c 0,2.325 0.067,4.659 0.201,6.986 L 10.193,202.752 C 4.822,207.472 3.53,215.327 7.105,221.52 Z M 165,105 c 33.084,0 60,26.916 60,60 0,33.084 -26.916,60 -60,60 -33.084,0 -60,-26.916 -60,-60 0,-33.084 26.916,-60 60,-60 z"
   style="fill:#ffffff;fill-opacity:1" />
</g>















</svg>
