<?xml version="1.0" encoding="UTF-8" standalone="no"?>
<!-- Generator: Adobe Illustrator 18.1.1, SVG Export Plug-In . SVG Version: 6.00 Build 0)  -->

<svg
   version="1.1"
   id="Capa_1"
   x="0px"
   y="0px"
   viewBox="0 0 128 128"
   xml:space="preserve"
   width="128"
   height="128"
   xmlns="http://www.w3.org/2000/svg"
   xmlns:svg="http://www.w3.org/2000/svg"><defs
   id="defs20" />
<g
   id="g5"
   style="fill:#ffffff;fill-opacity:1"
   transform="matrix(0.32257902,0,0,0.32257902,0,-0.195324)">
	<g
   id="Layer_5_69_"
   style="fill:#ffffff;fill-opacity:1">
		<g
   id="g4"
   style="fill:#ffffff;fill-opacity:1">
			<g
   id="g2"
   style="fill:#ffffff;fill-opacity:1">
				<path
   d="m 200.361,312.663 c 0,9.324 -6.564,13.065 -14.587,8.316 L 93.292,275.01 C 85.269,270.26 78.705,258.747 78.705,249.424 V 147.38 c 0,-9.322 6.564,-20.836 14.587,-25.585 l 92.482,-45.969 c 8.023,-4.75 14.587,-1.007 14.587,8.316 z"
   id="path1"
   style="fill:#ffffff;fill-opacity:1" />
				<path
   d="m 57.308,249.69 c 0,9.324 -7.628,16.952 -16.951,16.952 H 16.951 C 7.628,266.642 0,259.014 0,249.69 V 147.116 c 0,-9.323 7.628,-16.951 16.951,-16.951 h 23.406 c 9.323,0 16.951,7.628 16.951,16.951 z"
   id="path2"
   style="fill:#ffffff;fill-opacity:1" />
			</g>
			<path
   d="m 274.516,291.944 c 22.353,-25.472 34.887,-58.256 35.295,-92.315 0.408,-33.999 -11.284,-67.023 -32.92,-92.989 -0.582,-0.695 -1.188,-1.362 -1.802,-1.977 -5.365,-5.365 -10.735,-6.15 -14.732,-2.155 l -12.356,12.357 c -6.536,6.536 -1.745,11.866 0.557,14.428 0.296,0.329 0.574,0.639 0.811,0.926 32.753,39.693 32.411,97.033 -0.815,136.34 l -0.319,0.373 c -1.968,2.294 -6.579,7.663 -0.575,13.668 l 12.979,12.977 c 2.235,2.236 4.478,3.324 6.666,3.233 3.198,-0.134 5.335,-2.658 6.75,-4.329 0.162,-0.191 0.315,-0.371 0.461,-0.537 z"
   id="path3"
   style="fill:#ffffff;fill-opacity:1" />
			<path
   d="m 396.789,200.786 c 0.602,-56.983 -19.721,-111.779 -57.222,-154.288 -0.246,-0.281 -0.511,-0.586 -0.789,-0.91 -0.851,-0.987 -1.815,-2.107 -2.9,-3.193 -4.965,-4.964 -9.33,-5.637 -12.97,-1.996 l -13.697,13.698 c -5.943,5.942 0.546,13.363 4.034,17.349 l 0.667,0.767 c 63.563,73.822 62.121,183.904 -3.356,256.059 -2.038,2.245 -7.452,8.212 -1.873,13.791 l 14.475,14.474 c 1.477,1.478 3.148,2.208 4.968,2.172 3.342,-0.066 6.143,-2.69 7.957,-4.658 38.546,-41.762 60.105,-96.192 60.706,-153.265 z"
   id="path4"
   style="fill:#ffffff;fill-opacity:1" />
		</g>
	</g>
</g>















</svg>
