<?xml version="1.0" encoding="UTF-8" standalone="no"?>
<!-- Generator: Adobe Illustrator 19.0.0, SVG Export Plug-In . SVG Version: 6.00 Build 0)  -->

<svg
   version="1.1"
   id="Layer_1"
   x="0px"
   y="0px"
   viewBox="0 0 128 128"
   xml:space="preserve"
   width="128"
   height="128"
   xmlns="http://www.w3.org/2000/svg"
   xmlns:svg="http://www.w3.org/2000/svg"><defs
   id="defs17" />
<g
   id="g2"
   style="fill:#ffffff;fill-opacity:1"
   transform="matrix(0.25000018,0,0,0.25000018,1.4048335e-4,-0.27075883)">
	<g
   id="g1"
   style="fill:#ffffff;fill-opacity:1">
		<path
   d="M 508.651,355.445 463.59,200.442 c -10.367,-35.661 -43.523,-60.567 -80.629,-60.567 -7.918,0 -15.817,1.13 -23.48,3.357 -18.546,5.393 -34.293,16.695 -45.212,32.266 H 272.51 v -42.181 c 0,-28.309 23.031,-51.34 51.34,-51.34 h 144.252 c 9.083,0 16.447,-7.364 16.447,-16.447 0,-9.084 -7.364,-16.447 -16.447,-16.447 H 323.85 c -46.446,0 -84.233,37.787 -84.233,84.233 v 42.181 h -41.868 c -10.919,-15.572 -26.664,-26.875 -45.211,-32.266 -7.662,-2.227 -15.563,-3.357 -23.481,-3.357 -37.105,0 -70.261,24.906 -80.628,60.567 L 3.368,355.445 c -12.961,44.581 12.626,91.147 57.209,104.109 45.304,13.168 91.462,-13.709 104.109,-57.21 l 11.04,-37.977 H 336.29 l 11.04,37.975 c 12.618,43.41 58.713,70.408 104.109,57.211 44.478,-12.929 70.143,-59.631 57.212,-104.108 z m -360.628,-68.15 h -18.105 v 18.106 c 0,9.083 -7.364,16.447 -16.447,16.447 -9.084,0 -16.447,-7.364 -16.447,-16.447 V 287.295 H 78.918 c -9.083,0 -16.447,-7.364 -16.447,-16.447 0,-9.083 7.364,-16.447 16.447,-16.447 h 18.106 v -18.106 c 0,-9.083 7.364,-16.447 16.447,-16.447 9.083,0 16.447,7.364 16.447,16.447 V 254.4 h 18.105 c 9.083,0 16.447,7.364 16.447,16.447 0,9.084 -7.363,16.448 -16.447,16.448 z m 143.185,-1.396 H 220.81 c -9.083,0 -16.447,-7.364 -16.447,-16.447 0,-9.083 7.364,-16.447 16.447,-16.447 h 70.398 c 9.083,0 16.447,7.364 16.447,16.447 0,9.083 -7.363,16.447 -16.447,16.447 z M 398,314.911 c -25.067,0 -45.459,-20.393 -45.459,-45.458 0,-25.065 20.393,-45.459 45.459,-45.459 25.065,0 45.458,20.393 45.458,45.459 0,25.066 -20.392,45.458 -45.458,45.458 z"
   id="path1"
   style="fill:#ffffff;fill-opacity:1" />
	</g>
</g>















</svg>
