<?xml version="1.0" encoding="UTF-8" standalone="no"?>
<!-- Generator: Adobe Illustrator 19.0.0, SVG Export Plug-In . SVG Version: 6.00 Build 0)  -->

<svg
   version="1.1"
   id="Capa_1"
   x="0px"
   y="0px"
   viewBox="0 0 128 128"
   xml:space="preserve"
   width="128"
   height="128"
   xmlns="http://www.w3.org/2000/svg"
   xmlns:svg="http://www.w3.org/2000/svg"><defs
   id="defs17" />
<g
   id="g2"
   style="fill:#ffffff;fill-opacity:1"
   transform="matrix(0.25,0,0,0.25,0,1.52975)">
	<g
   id="g1"
   style="fill:#ffffff;fill-opacity:1">
		<path
   d="m 271.001,178.422 v -15.085 c 0,-8.251 6.713,-14.965 14.965,-14.965 h 60.171 c 24.794,0 44.966,-20.172 44.966,-44.966 V 63.373 h -30.001 v 40.034 c 0,8.251 -6.713,14.965 -14.965,14.965 h -60.171 c -24.794,0 -44.966,20.172 -44.966,44.966 v 15.085 H 0 V 448.628 H 512 V 178.422 Z m 150.139,60.051 h 30.025 v 30.001 H 421.14 Z m -180.153,0 h 30.025 v 30.001 h -30.025 z m 0,60.051 h 30.025 v 30.001 h -30.025 z m -60.051,-60.051 h 30.025 v 30.001 h -30.025 z m 0,60.051 h 30.025 v 30.001 H 180.936 Z M 90.86,388.576 H 60.835 V 358.575 H 90.86 Z m 0,-60.051 H 60.835 V 298.524 H 90.86 Z m 0,-60.05 H 60.835 V 238.474 H 90.86 Z m 60.051,120.101 h -30.025 v -30.001 h 30.025 z m 0,-60.051 h -30.025 v -30.001 h 30.025 z m 0,-60.05 h -30.025 v -30.001 h 30.025 z M 331.063,388.576 H 180.935 v -30.001 h 150.127 v 30.001 z m 0,-60.051 h -30.024 v -30.001 h 30.024 z m 0,-60.05 h -30.024 v -30.001 h 30.024 z m 60.051,120.101 h -30.025 v -30.001 h 30.025 z m 0,-60.051 h -30.025 v -30.001 h 30.025 z m 0,-60.05 h -30.025 v -30.001 h 30.025 z m 60.051,120.101 H 421.14 v -30.001 h 30.025 z m 0,-60.051 H 421.14 v -30.001 h 30.025 z"
   id="path1"
   style="fill:#ffffff;fill-opacity:1" />
	</g>
</g>















</svg>
