<?xml version="1.0" encoding="UTF-8" standalone="no"?>
<svg
   id="Layer_1"
   enable-background="new 0 0 100 100"
   height="128"
   viewBox="0 0 128 128"
   width="128"
   version="1.1"
   xmlns="http://www.w3.org/2000/svg"
   xmlns:svg="http://www.w3.org/2000/svg">
  <defs
     id="defs1" />
  <path
     id="path2"
     style="fill:#ffffff;stroke:#ffffff;stroke-width:0"
     d="m 64.208828,6 c -17.2348,0 -31.410188,9.440123 -33.195499,21.562667 -1.697454,7.951845 -0.240984,18.962816 1.269154,27.183204 -4.689549,0.429336 -1.307046,17.529994 5.973442,19.61037 0.933269,4.256898 -0.0058,3.751464 1.275629,7.245833 1.254856,3.428063 5.15722,5.714405 4.688099,9.376195 -0.3133,2.41026 -4.206831,0.92517 -5.539598,2.13361 -3.361756,3.05177 -3.755323,7.371921 -6.394334,9.382671 -2.614147,1.98257 -7.562576,3.16107 -11.937168,5.11547 C 15.327469,109.84787 6.929062,112.86053 0,116.63008 c 1.402389,2.78157 4.255603,4.71076 7.582548,4.71076 H 120.26852 c 3.43967,0 6.38545,-2.05347 7.73148,-4.9892 -6.82629,-3.6419 -14.94341,-6.56171 -19.84348,-8.74486 -4.37293,-1.95108 -9.31821,-3.13289 -11.9307,-5.11547 -2.63901,-2.01075 -3.03257,-6.327661 -6.39433,-9.379431 -1.332766,-1.20844 -5.236088,0.27665 -5.546072,-2.13361 -0.467463,-3.66179 3.43648,-5.95137 4.691332,-9.379432 1.28304,-3.494369 0.4605,-3.026051 1.39543,-7.287922 7.27551,-2.077061 10.5383,-19.137365 5.85041,-19.565044 1.6096,-8.764104 3.15488,-20.710908 0.88387,-28.734033 C 94.39286,14.645192 80.70099,6 64.208828,6 Z" />
</svg>
