<?xml version="1.0" encoding="UTF-8" standalone="no"?>
<!-- Generator: Adobe Illustrator 19.0.0, SVG Export Plug-In . SVG Version: 6.00 Build 0)  -->

<svg
   version="1.1"
   id="Capa_1"
   x="0px"
   y="0px"
   viewBox="0 0 128 128"
   xml:space="preserve"
   width="128"
   height="128"
   xmlns="http://www.w3.org/2000/svg"
   xmlns:svg="http://www.w3.org/2000/svg"><defs
   id="defs17" />
<g
   id="g2"
   transform="matrix(0.25,0,0,0.25,0,0.625)"
   style="fill:#ffffff;fill-opacity:1">
	<g
   id="g1"
   style="fill:#ffffff;fill-opacity:1">
		<path
   d="M 497,35.5 H 15 c -8.284,0 -15,6.716 -15,15 v 310 c 0,8.284 6.716,15 15,15 h 174 v 71 h -23 c -8.284,0 -15,6.716 -15,15 0,8.284 6.716,15 15,15 20.871,0 156.381,0 180,0 8.284,0 15,-6.716 15,-15 0,-8.284 -6.716,-15 -15,-15 h -23 v -71 h 174 c 8.284,0 15,-6.716 15,-15 v -310 c 0,-8.284 -6.716,-15 -15,-15 z M 271,411 c 0,8.284 -6.716,15 -15,15 -8.284,0 -15,-6.716 -15,-15 v -35.5 h 30 z M 462,310.5 c 0,8.284 -6.716,15 -15,15 H 65 c -8.284,0 -15,-6.716 -15,-15 v -210 c 0,-8.284 6.716,-15 15,-15 h 382 c 8.284,0 15,6.716 15,15 z"
   id="path1"
   style="fill:#ffffff;fill-opacity:1" />
	</g>
</g>















</svg>
