<?xml version="1.0" encoding="UTF-8" standalone="no"?>
<!-- Generator: Adobe Illustrator 27.5.0, SVG Export Plug-In . SVG Version: 6.00 Build 0)  -->

<svg
   version="1.1"
   id="Capa_1"
   x="0px"
   y="0px"
   viewBox="0 0 33.999996 19.999998"
   xml:space="preserve"
   width="33.999996"
   height="19.999998"
   xmlns="http://www.w3.org/2000/svg"
   xmlns:svg="http://www.w3.org/2000/svg"><defs
   id="defs678" />

<g
   id="g678"
   transform="matrix(0.06243767,0,0,0.06181692,-9.8880668,-12.926227)">
	
	<g
   id="g308">
		<g
   id="g250">
			<g
   id="g249">
				<rect
   x="158.367"
   y="482.86301"
   style="fill:#ffffff"
   width="544.54303"
   height="24.891001"
   id="rect244" />
				<rect
   x="158.367"
   y="433.09399"
   style="fill:#ffffff"
   width="544.54303"
   height="24.886999"
   id="rect245" />
				<rect
   x="158.367"
   y="383.31601"
   style="fill:#ffffff"
   width="544.54303"
   height="24.891001"
   id="rect246" />
				<rect
   x="158.367"
   y="333.547"
   style="fill:#ffffff"
   width="544.54303"
   height="24.882999"
   id="rect247" />
				<rect
   x="158.367"
   y="283.76999"
   style="fill:#ffffff"
   width="544.54303"
   height="24.886999"
   id="rect248" />
				<rect
   x="158.367"
   y="233.992"
   style="fill:#ffffff"
   width="544.54303"
   height="24.891001"
   id="rect249" />
			</g>
		</g>
		<g
   id="g256">
			<rect
   x="158.367"
   y="507.754"
   style="fill:#e30613"
   width="544.54303"
   height="24.886999"
   id="rect250" />
			<rect
   x="158.367"
   y="457.98001"
   style="fill:#e30613"
   width="544.54303"
   height="24.882999"
   id="rect251" />
			<rect
   x="158.367"
   y="408.207"
   style="fill:#e30613"
   width="544.54303"
   height="24.886999"
   id="rect252" />
			<rect
   x="158.367"
   y="358.42999"
   style="fill:#e30613"
   width="544.54303"
   height="24.886999"
   id="rect253" />
			<rect
   x="158.367"
   y="308.65601"
   style="fill:#e30613"
   width="544.54303"
   height="24.891001"
   id="rect254" />
			<rect
   x="158.367"
   y="258.883"
   style="fill:#e30613"
   width="544.54303"
   height="24.886999"
   id="rect255" />
			<rect
   x="158.367"
   y="209.105"
   style="fill:#e30613"
   width="544.54303"
   height="24.886999"
   id="rect256" />
		</g>
		<rect
   x="158.367"
   y="209.105"
   style="fill:#323966"
   width="272.38699"
   height="174.211"
   id="rect257" />
		<g
   id="g307">
			<g
   id="g273">
				<polygon
   style="fill:#ffffff"
   points="172.02,222.246 177.762,221.414 180.332,216.207 182.902,221.414 188.652,222.246 184.488,226.301 185.473,232.027 180.332,229.324 175.195,232.027 176.176,226.301 "
   id="polygon257" />
				<polygon
   style="fill:#ffffff"
   points="217.871,222.246 223.617,221.414 226.184,216.207 228.758,221.414 234.504,222.246 230.344,226.301 231.324,232.027 226.184,229.324 221.047,232.027 222.027,226.301 "
   id="polygon258" />
				<polygon
   style="fill:#ffffff"
   points="263.719,222.246 269.469,221.414 272.039,216.207 274.605,221.414 280.352,222.246 276.195,226.301 277.176,232.027 272.039,229.324 266.898,232.027 267.879,226.301 "
   id="polygon259" />
				<polygon
   style="fill:#ffffff"
   points="309.574,222.246 315.316,221.414 317.891,216.207 320.457,221.414 326.207,222.246 322.047,226.301 323.027,232.027 317.891,229.324 312.75,232.027 313.73,226.301 "
   id="polygon260" />
				<polygon
   style="fill:#ffffff"
   points="355.426,222.246 361.172,221.414 363.742,216.207 366.313,221.414 372.059,222.246 367.902,226.301 368.879,232.027 363.742,229.324 358.602,232.027 359.582,226.301 "
   id="polygon261" />
				<polygon
   style="fill:#ffffff"
   points="401.277,222.246 407.023,221.414 409.594,216.207 412.164,221.414 417.91,222.246 413.754,226.301 414.73,232.027 409.594,229.324 404.453,232.027 405.438,226.301 "
   id="polygon262" />
				<polygon
   style="fill:#ffffff"
   points="196.762,240.273 202.508,239.438 205.082,234.23 207.648,239.438 213.395,240.273 209.238,244.324 210.219,250.047 205.082,247.344 199.941,250.047 200.922,244.324 "
   id="polygon263" />
				<polygon
   style="fill:#ffffff"
   points="242.613,240.273 248.359,239.438 250.93,234.23 253.5,239.438 259.246,240.273 255.09,244.324 256.07,250.047 250.93,247.344 245.793,250.047 246.773,244.324 "
   id="polygon264" />
				<polygon
   style="fill:#ffffff"
   points="288.469,240.273 294.215,239.438 296.785,234.23 299.352,239.438 305.098,240.273 300.941,244.324 301.922,250.047 296.785,247.344 291.645,250.047 292.625,244.324 "
   id="polygon265" />
				<polygon
   style="fill:#ffffff"
   points="334.316,240.273 340.063,239.438 342.637,234.23 345.203,239.438 350.949,240.273 346.793,244.324 347.773,250.047 342.637,247.344 337.496,250.047 338.477,244.324 "
   id="polygon266" />
				<polygon
   style="fill:#ffffff"
   points="380.172,240.273 385.914,239.438 388.488,234.23 391.055,239.438 396.801,240.273 392.645,244.324 393.625,250.047 388.488,247.344 383.348,250.047 384.332,244.324 "
   id="polygon267" />
				<polygon
   style="fill:#ffffff"
   points="172.02,258.301 177.762,257.461 180.332,252.254 182.902,257.461 188.652,258.301 184.488,262.352 185.473,268.074 180.332,265.371 175.195,268.074 176.176,262.352 "
   id="polygon268" />
				<polygon
   style="fill:#ffffff"
   points="217.871,258.301 223.617,257.461 226.184,252.254 228.758,257.461 234.504,258.301 230.344,262.352 231.324,268.074 226.184,265.371 221.047,268.074 222.027,262.352 "
   id="polygon269" />
				<polygon
   style="fill:#ffffff"
   points="263.719,258.301 269.469,257.461 272.039,252.254 274.605,257.461 280.352,258.301 276.195,262.352 277.176,268.074 272.039,265.371 266.898,268.074 267.879,262.352 "
   id="polygon270" />
				<polygon
   style="fill:#ffffff"
   points="309.574,258.301 315.316,257.461 317.891,252.254 320.457,257.461 326.207,258.301 322.047,262.352 323.027,268.074 317.891,265.371 312.75,268.074 313.73,262.352 "
   id="polygon271" />
				<polygon
   style="fill:#ffffff"
   points="355.426,258.301 361.172,257.461 363.742,252.254 366.313,257.461 372.059,258.301 367.902,262.352 368.879,268.074 363.742,265.371 358.602,268.074 359.582,262.352 "
   id="polygon272" />
				<polygon
   style="fill:#ffffff"
   points="401.277,258.301 407.023,257.461 409.594,252.254 412.164,257.461 417.91,258.301 413.754,262.352 414.73,268.074 409.594,265.371 404.453,268.074 405.438,262.352 "
   id="polygon273" />
			</g>
			<g
   id="g284">
				<polygon
   style="fill:#ffffff"
   points="196.762,276.32 202.508,275.488 205.082,270.281 207.648,275.488 213.395,276.32 209.238,280.371 210.219,286.094 205.082,283.391 199.941,286.094 200.922,280.371 "
   id="polygon274" />
				<polygon
   style="fill:#ffffff"
   points="242.613,276.32 248.359,275.488 250.93,270.281 253.5,275.488 259.246,276.32 255.09,280.371 256.07,286.094 250.93,283.391 245.793,286.094 246.773,280.371 "
   id="polygon275" />
				<polygon
   style="fill:#ffffff"
   points="288.469,276.32 294.215,275.488 296.785,270.281 299.352,275.488 305.098,276.32 300.941,280.371 301.922,286.094 296.785,283.391 291.645,286.094 292.625,280.371 "
   id="polygon276" />
				<polygon
   style="fill:#ffffff"
   points="334.316,276.32 340.063,275.488 342.637,270.281 345.203,275.488 350.949,276.32 346.793,280.371 347.773,286.094 342.637,283.391 337.496,286.094 338.477,280.371 "
   id="polygon277" />
				<polygon
   style="fill:#ffffff"
   points="380.172,276.32 385.914,275.488 388.488,270.281 391.055,275.488 396.801,276.32 392.645,280.371 393.625,286.094 388.488,283.391 383.348,286.094 384.332,280.371 "
   id="polygon278" />
				<polygon
   style="fill:#ffffff"
   points="172.02,294.348 177.762,293.508 180.332,288.301 182.902,293.508 188.652,294.348 184.488,298.398 185.473,304.121 180.332,301.418 175.195,304.121 176.176,298.398 "
   id="polygon279" />
				<polygon
   style="fill:#ffffff"
   points="217.871,294.348 223.617,293.508 226.184,288.301 228.758,293.508 234.504,294.348 230.344,298.398 231.324,304.121 226.184,301.418 221.047,304.121 222.027,298.398 "
   id="polygon280" />
				<polygon
   style="fill:#ffffff"
   points="263.719,294.348 269.469,293.508 272.039,288.301 274.605,293.508 280.352,294.348 276.195,298.398 277.176,304.121 272.039,301.418 266.898,304.121 267.879,298.398 "
   id="polygon281" />
				<polygon
   style="fill:#ffffff"
   points="309.574,294.348 315.316,293.508 317.891,288.301 320.457,293.508 326.207,294.348 322.047,298.398 323.027,304.121 317.891,301.418 312.75,304.121 313.73,298.398 "
   id="polygon282" />
				<polygon
   style="fill:#ffffff"
   points="355.426,294.348 361.172,293.508 363.742,288.301 366.313,293.508 372.059,294.348 367.902,298.398 368.879,304.121 363.742,301.418 358.602,304.121 359.582,298.398 "
   id="polygon283" />
				<polygon
   style="fill:#ffffff"
   points="401.277,294.348 407.023,293.508 409.594,288.301 412.164,293.508 417.91,294.348 413.754,298.398 414.73,304.121 409.594,301.418 404.453,304.121 405.438,298.398 "
   id="polygon284" />
			</g>
			<g
   id="g295">
				<polygon
   style="fill:#ffffff"
   points="195.957,312.371 201.703,311.535 204.27,306.328 206.84,311.535 212.586,312.371 208.43,316.426 209.41,322.145 204.27,319.445 199.129,322.145 200.113,316.426 "
   id="polygon285" />
				<polygon
   style="fill:#ffffff"
   points="241.805,312.371 247.551,311.535 250.121,306.328 252.691,311.535 258.438,312.371 254.281,316.426 255.262,322.145 250.121,319.445 244.984,322.145 245.965,316.426 "
   id="polygon286" />
				<polygon
   style="fill:#ffffff"
   points="287.66,312.371 293.402,311.535 295.977,306.328 298.543,311.535 304.289,312.371 300.133,316.426 301.113,322.145 295.977,319.445 290.836,322.145 291.816,316.426 "
   id="polygon287" />
				<polygon
   style="fill:#ffffff"
   points="333.512,312.371 339.258,311.535 341.824,306.328 344.398,311.535 350.145,312.371 345.98,316.426 346.965,322.145 341.824,319.445 336.688,322.145 337.668,316.426 "
   id="polygon288" />
				<polygon
   style="fill:#ffffff"
   points="379.363,312.371 385.109,311.535 387.676,306.328 390.246,311.535 395.992,312.371 391.836,316.426 392.816,322.145 387.676,319.445 382.539,322.145 383.52,316.426 "
   id="polygon289" />
				<polygon
   style="fill:#ffffff"
   points="171.207,330.395 176.957,329.563 179.527,324.355 182.094,329.563 187.84,330.395 183.684,334.445 184.664,340.168 179.527,337.473 174.387,340.168 175.367,334.445 "
   id="polygon290" />
				<polygon
   style="fill:#ffffff"
   points="217.063,330.395 222.809,329.563 225.379,324.355 227.949,329.563 233.691,330.395 229.535,334.445 230.516,340.168 225.379,337.473 220.238,340.168 221.219,334.445 "
   id="polygon291" />
				<polygon
   style="fill:#ffffff"
   points="262.914,330.395 268.66,329.563 271.23,324.355 273.801,329.563 279.547,330.395 275.387,334.445 276.367,340.168 271.23,337.473 266.09,340.168 267.07,334.445 "
   id="polygon292" />
				<polygon
   style="fill:#ffffff"
   points="308.766,330.395 314.512,329.563 317.082,324.355 319.652,329.563 325.398,330.395 321.238,334.445 322.219,340.168 317.082,337.473 311.941,340.168 312.922,334.445 "
   id="polygon293" />
				<polygon
   style="fill:#ffffff"
   points="354.617,330.395 360.359,329.563 362.934,324.355 365.504,329.563 371.246,330.395 367.09,334.445 368.074,340.168 362.934,337.473 357.797,340.168 358.777,334.445 "
   id="polygon294" />
				<polygon
   style="fill:#ffffff"
   points="400.473,330.395 406.215,329.563 408.785,324.355 411.355,329.563 417.098,330.395 412.941,334.445 413.922,340.168 408.785,337.473 403.645,340.168 404.629,334.445 "
   id="polygon295" />
			</g>
			<g
   id="g306">
				<polygon
   style="fill:#ffffff"
   points="195.957,348.418 201.703,347.582 204.27,342.375 206.84,347.582 212.586,348.418 208.43,352.473 209.41,358.195 204.27,355.492 199.129,358.195 200.113,352.473 "
   id="polygon296" />
				<polygon
   style="fill:#ffffff"
   points="241.805,348.418 247.551,347.582 250.121,342.375 252.691,347.582 258.438,348.418 254.281,352.473 255.262,358.195 250.121,355.492 244.984,358.195 245.965,352.473 "
   id="polygon297" />
				<polygon
   style="fill:#ffffff"
   points="287.66,348.418 293.402,347.582 295.977,342.375 298.543,347.582 304.289,348.418 300.133,352.473 301.113,358.195 295.977,355.492 290.836,358.195 291.816,352.473 "
   id="polygon298" />
				<polygon
   style="fill:#ffffff"
   points="333.512,348.418 339.258,347.582 341.824,342.375 344.398,347.582 350.145,348.418 345.98,352.473 346.965,358.195 341.824,355.492 336.688,358.195 337.668,352.473 "
   id="polygon299" />
				<polygon
   style="fill:#ffffff"
   points="379.363,348.418 385.109,347.582 387.676,342.375 390.246,347.582 395.992,348.418 391.836,352.473 392.816,358.195 387.676,355.492 382.539,358.195 383.52,352.473 "
   id="polygon300" />
				<polygon
   style="fill:#ffffff"
   points="171.207,366.445 176.957,365.609 179.527,360.402 182.094,365.609 187.84,366.445 183.684,370.492 184.664,376.219 179.527,373.516 174.387,376.219 175.367,370.492 "
   id="polygon301" />
				<polygon
   style="fill:#ffffff"
   points="217.063,366.445 222.809,365.609 225.379,360.402 227.949,365.609 233.691,366.445 229.535,370.492 230.516,376.219 225.379,373.516 220.238,376.219 221.219,370.492 "
   id="polygon302" />
				<polygon
   style="fill:#ffffff"
   points="262.914,366.445 268.66,365.609 271.23,360.402 273.801,365.609 279.547,366.445 275.387,370.492 276.367,376.219 271.23,373.516 266.09,376.219 267.07,370.492 "
   id="polygon303" />
				<polygon
   style="fill:#ffffff"
   points="308.766,366.445 314.512,365.609 317.082,360.402 319.652,365.609 325.398,366.445 321.238,370.492 322.219,376.219 317.082,373.516 311.941,376.219 312.922,370.492 "
   id="polygon304" />
				<polygon
   style="fill:#ffffff"
   points="354.617,366.445 360.359,365.609 362.934,360.402 365.504,365.609 371.246,366.445 367.09,370.492 368.074,376.219 362.934,373.516 357.797,376.219 358.777,370.492 "
   id="polygon305" />
				<polygon
   style="fill:#ffffff"
   points="400.473,366.445 406.215,365.609 408.785,360.402 411.355,365.609 417.098,366.445 412.941,370.492 413.922,376.219 408.785,373.516 403.645,376.219 404.629,370.492 "
   id="polygon306" />
			</g>
		</g>
	</g>
	
	
	
	
	
	
	
</g>
</svg>
