<?xml version="1.0" encoding="UTF-8" standalone="no"?>
<!-- Generator: Adobe Illustrator 27.5.0, SVG Export Plug-In . SVG Version: 6.00 Build 0)  -->

<svg
   version="1.1"
   id="Layer_1"
   x="0px"
   y="0px"
   viewBox="0 0 24.999998 25"
   xml:space="preserve"
   width="24.999998"
   height="25"
   xmlns="http://www.w3.org/2000/svg"
   xmlns:svg="http://www.w3.org/2000/svg"><defs
   id="defs16" />

<g
   id="g16">
	
	
	
	<path
   style="fill:#ffffff;stroke-width:0.0411292"
   d="m 24.097404,5.2015013 c 0.06348,-0.059665 0.105865,-0.1384187 0.120702,-0.2243356 L 24.99415,0.46897373 C 25.01633,0.34063421 24.97462,0.2094523 24.882705,0.11740727 24.790625,0.02527777 24.659474,-0.01620121 24.531372,0.00577768 l -4.504165,0.7767022 c -0.0858,0.014866 -0.164487,0.0572759 -0.224054,0.12089489 L 12.499958,8.696681 5.1968542,0.90337477 C 5.1372076,0.83975277 5.0585188,0.79737767 4.9726793,0.78247988 L 0.46859216,0.00577768 C 0.34032796,-0.01619406 0.20934746,0.02532534 0.11726066,0.11740727 0.02533306,0.20945344 -0.01626885,0.34063421 0.005815,0.46897373 L 0.78189996,4.9771657 c 0.014757,0.085914 0.057141,0.1646731 0.12070272,0.2243356 L 8.8147205,12.629375 7.3981689,14.14102 7.2189289,13.961657 c -0.8145275,-0.815137 -2.1397308,-0.815097 -2.954172,1.24e-4 -0.1564668,0.156568 -0.1564668,0.41045 0,0.566976 l 1.8868151,1.888516 -4.544826,4.719445 c -0.3820001,0.07275 -0.73760792,0.259766 -1.01391204,0.536403 -0.3677366,0.368066 -0.57032885,0.857478 -0.5704119,1.378038 0,0.52056 0.2025921,1.009932 0.5703703,1.378039 C 0.96056698,24.797224 1.4494551,25 1.9695462,25 c 0.520091,0 1.0090205,-0.202776 1.3768392,-0.570802 0.2763052,-0.276596 0.4632343,-0.632482 0.5358752,-1.01491 l 4.7152322,-4.548928 1.8867722,1.88856 c 0.07823,0.07826 0.180805,0.117393 0.283336,0.117393 0.102527,0 0.204977,-0.03914 0.28321,-0.117393 0.394499,-0.394854 0.611851,-0.919899 0.611892,-1.478357 0,-0.558458 -0.217393,-1.083626 -0.611892,-1.478522 l -0.179078,-0.179281 1.62827,-1.528681 1.628396,1.528681 -0.179159,0.179281 c -0.394539,0.394896 -0.61185,0.920022 -0.611771,1.478522 0,0.558458 0.217232,1.083503 0.611771,1.478357 0.07823,0.07826 0.180722,0.117393 0.283252,0.117393 0.102527,0 0.204977,-0.03914 0.283293,-0.117393 l 1.886773,-1.88856 4.71527,4.548928 c 0.07274,0.382428 0.259575,0.738314 0.535879,1.01491 C 22.021402,24.797224 22.510494,25 23.030547,25 c 0.520049,0 1.009021,-0.202776 1.376712,-0.570802 0.367816,-0.368107 0.570287,-0.857479 0.570287,-1.378039 0,-0.52056 -0.202471,-1.009972 -0.570287,-1.377998 -0.276225,-0.276677 -0.631915,-0.463735 -1.013958,-0.536443 l -4.544783,-4.719445 1.886815,-1.888516 c 0.07511,-0.07522 0.117369,-0.177183 0.117369,-0.283509 0,-0.106365 -0.04227,-0.208372 -0.117369,-0.283508 -0.814405,-0.815138 -2.139686,-0.815262 -2.954214,-1.24e-4 l -0.17916,0.179365 -1.416593,-1.511647 z M 0.89170378,0.89246607 4.7043487,1.5499656 11.950761,9.2827842 10.929657,10.372462 4.4784855,3.9155099 c -0.156385,-0.1565678 -0.4100795,-0.1565678 -0.5665048,0 -0.156385,0.1566081 -0.156385,0.4104898 0,0.5670564 L 10.38128,10.957582 9.3627646,12.0445 1.5486094,4.7085513 Z M 20.29553,1.549924 24.108339,0.89242567 23.451431,4.7085513 15.344984,12.31871 13.787051,13.781307 10.304897,17.050373 9.4181396,16.162857 21.08794,4.4825663 c 0.156343,-0.1566082 0.156343,-0.4104899 0,-0.5670564 -0.156468,-0.1565678 -0.410121,-0.1565678 -0.566546,0 L 8.8516349,15.595841 7.964835,14.708283 Z m -6.243396,13.081948 1.529646,1.531026 -0.886718,0.887517 -1.609565,-1.511027 z M 3.3463402,21.673121 C 3.1425121,21.469151 2.9010284,21.31637 2.6388251,21.220412 l 4.0792892,-4.236039 1.312787,1.313971 -4.2322221,4.082888 c -0.095869,-0.2624 -0.2486367,-0.504184 -0.452339,-0.708111 z M 1.969501,24.198194 c -0.3060669,0 -0.5938421,-0.119288 -0.8102905,-0.335971 -0.21649002,-0.216644 -0.33566944,-0.504637 -0.33566944,-0.810982 0,-0.306427 0.11917942,-0.594421 0.33575254,-0.811104 0.1865182,-0.186771 0.4235213,-0.300544 0.6852319,-0.329059 v 0 c 0.3476332,-0.03778 0.6884802,0.08209 0.9352695,0.329059 0.2467432,0.246927 0.36654,0.588124 0.3287182,0.936112 v 0 C 3.0800792,23.438318 2.9663537,23.675495 2.779795,23.862223 2.5633051,24.078906 2.27553,24.198194 1.969418,24.198194 Z M 10.722869,19.85875 5.1595668,14.290344 c 0.4832155,-0.244747 1.0896386,-0.165291 1.4928534,0.238329 0,0 0.4715804,0.472007 0.4717013,0.472089 l 3.3601405,3.363295 c 0.243293,0.243472 0.377274,0.567139 0.377274,0.911506 -4.2e-5,0.206027 -0.0481,0.404688 -0.138667,0.583187 z m 7.559019,-2.874377 4.079248,4.236039 c -0.262203,0.09596 -0.503727,0.248739 -0.707515,0.452709 -0.203744,0.203927 -0.356387,0.445711 -0.45234,0.708111 l -4.232262,-4.082888 z m 5.894532,6.066868 c 0,0.306345 -0.119221,0.594338 -0.335669,0.810982 -0.216448,0.216683 -0.504182,0.335971 -0.810291,0.335971 -0.306027,0 -0.593928,-0.119288 -0.810334,-0.335971 -0.186561,-0.186728 -0.300229,-0.423905 -0.32876,-0.685974 v 0 c -0.03783,-0.347988 0.08193,-0.689185 0.32868,-0.936112 0.246868,-0.246969 0.58784,-0.366915 0.935348,-0.329059 v 0 c 0.261752,0.02852 0.498715,0.142288 0.685357,0.3291 0.216448,0.216642 0.335669,0.504636 0.335669,0.811063 z m -4.336066,-8.760813 -5.563179,5.568322 c -0.09073,-0.178499 -0.138667,-0.37716 -0.138667,-0.583187 0,-0.344367 0.13394,-0.668034 0.377191,-0.911506 l 3.831842,-3.835384 c 0.403215,-0.403578 1.009679,-0.483076 1.492813,-0.238245 z m -3.145831,0.758764 -0.54628,0.54669 -1.511392,-1.512881 0.964088,-0.905127 1.434145,1.530369 z"
   id="path16" />
</g>
</svg>
