<?xml version="1.0" encoding="UTF-8" standalone="no"?>
<!-- Generator: Adobe Illustrator 27.5.0, SVG Export Plug-In . SVG Version: 6.00 Build 0)  -->

<svg
   version="1.1"
   id="Capa_1"
   x="0px"
   y="0px"
   viewBox="0 0 552.70203 513.16498"
   xml:space="preserve"
   width="552.70203"
   height="513.16498"
   xmlns="http://www.w3.org/2000/svg"
   xmlns:svg="http://www.w3.org/2000/svg"><defs
   id="defs32" />

<linearGradient
   id="SVGID_1_"
   gradientUnits="userSpaceOnUse"
   x1="599.54388"
   y1="1061.254"
   x2="599.54388"
   y2="138.746">
	<stop
   offset="0"
   style="stop-color:#FFFFFF"
   id="stop1" />
	<stop
   offset="1"
   style="stop-color:#E5E5E5"
   id="stop2" />
</linearGradient>

<linearGradient
   id="SVGID_00000106112156874836212300000015820210911812360362_"
   gradientUnits="userSpaceOnUse"
   x1="717.63843"
   y1="828.11407"
   x2="823.19312"
   y2="1003.7867">
	<stop
   offset="0"
   style="stop-color:#CCCCCC"
   id="stop3" />
	<stop
   offset="0.5314"
   style="stop-color:#E5E5E5;stop-opacity:0.4686"
   id="stop4" />
	<stop
   offset="1"
   style="stop-color:#FFFFFF;stop-opacity:0"
   id="stop5" />
</linearGradient>


<g
   id="g33"><g
     id="g32"
     transform="translate(-336.72,-282.754)"
     clip-path="none"
     mask="none">
	<polygon
   style="fill:#6a873a"
   points="336.72,521.521 702.543,309.155 889.422,418.407 523.598,631.103 "
   id="polygon18" />
	<polygon
   style="fill:#6a873a"
   points="523.598,795.919 523.598,631.103 889.422,418.407 889.422,583.224 "
   id="polygon19" />
	<polygon
   style="fill:#75953f"
   points="889.422,460.693 889.422,470.128 835.806,498.797 889.422,477.866 889.422,583.224 523.598,795.919 523.598,631.103 889.422,418.407 889.422,433.033 747.608,512.494 889.422,442.983 889.422,451.163 800.681,498.316 "
   id="polygon20" />
	<polygon
   style="fill:#5f7934"
   points="336.72,686.321 523.598,795.919 523.598,631.103 336.72,521.504 "
   id="polygon21" />
	<polygon
   style="fill:#6a873a"
   points="336.72,573.793 336.72,686.321 523.598,795.919 523.598,631.103 336.72,521.504 336.72,534.818 457.726,607.997 336.72,542.508 336.72,552.051 416.628,597.392 336.72,557.883 336.72,567.434 385.872,595.004 "
   id="polygon22" />
	<path
   style="fill:#6a873a"
   d="m 801.352,551.065 c 0,0 -3.143,2.075 -8.71,5.603 -5.59,3.482 -13.507,8.585 -23.136,14.477 -9.612,5.927 -20.877,12.744 -33.009,19.952 -6.073,3.587 -12.349,7.295 -18.726,11.06 -6.401,3.726 -12.901,7.511 -19.406,11.295 -6.531,3.735 -13.063,7.467 -19.494,11.143 -6.415,3.701 -12.807,7.208 -18.951,10.676 -12.309,6.89 -23.853,13.227 -33.797,18.576 -9.922,5.388 -18.305,9.677 -24.12,12.775 -5.841,3.049 -9.214,4.731 -9.214,4.731 0,0 3.145,-2.079 8.709,-5.604 5.594,-3.482 13.505,-8.591 23.137,-14.479 9.609,-5.931 20.874,-12.747 33.006,-19.955 6.076,-3.578 12.312,-7.353 18.729,-11.057 6.403,-3.724 12.903,-7.507 19.409,-11.293 6.531,-3.731 13.063,-7.467 19.494,-11.14 6.452,-3.635 12.806,-7.211 18.951,-10.672 12.315,-6.888 23.858,-13.229 33.8,-18.576 9.922,-5.386 18.302,-9.682 24.114,-12.778 5.843,-3.052 9.214,-4.734 9.214,-4.734 z"
   id="path22" />
	<path
   style="fill:#6a873a"
   d="m 824.456,551.065 c 0,0 -6.326,4.651 -16.155,11.03 -4.904,3.213 -10.682,6.864 -16.926,10.68 -3.135,1.885 -6.338,3.897 -9.66,5.827 -3.311,1.944 -6.674,3.92 -10.042,5.894 -3.391,1.924 -6.787,3.849 -10.127,5.742 -3.328,1.919 -6.679,3.674 -9.879,5.443 -6.429,3.499 -12.482,6.669 -17.722,9.305 -10.446,5.314 -17.64,8.456 -17.64,8.456 0,0 6.324,-4.654 16.155,-11.037 4.901,-3.216 10.676,-6.867 16.926,-10.679 3.132,-1.883 6.332,-3.904 9.658,-5.826 3.311,-1.941 6.676,-3.917 10.044,-5.891 3.394,-1.926 6.79,-3.849 10.133,-5.741 3.331,-1.912 6.679,-3.672 9.877,-5.44 6.432,-3.496 12.485,-6.669 17.722,-9.302 10.445,-5.314 17.636,-8.461 17.636,-8.461 z"
   id="path23" />
	<path
   style="fill:#5f7934"
   d="m 359.893,627.522 c 0,0 7.193,3.146 17.639,8.463 5.237,2.634 11.29,5.806 17.719,9.302 3.202,1.769 6.549,3.53 9.881,5.442 3.342,1.892 6.737,3.815 10.132,5.738 3.365,1.974 6.731,3.948 10.044,5.894 3.326,1.92 6.523,3.94 9.659,5.826 6.248,3.812 12.022,7.464 16.925,10.679 9.831,6.383 16.156,11.034 16.156,11.034 0,0 -7.195,-3.141 -17.643,-8.454 -5.236,-2.637 -11.29,-5.806 -17.718,-9.302 -3.202,-1.772 -6.553,-3.527 -9.879,-5.448 -3.342,-1.892 -6.737,-3.818 -10.13,-5.738 -3.365,-1.977 -6.73,-3.954 -10.042,-5.897 -3.322,-1.929 -6.523,-3.943 -9.658,-5.829 -6.244,-3.815 -12.021,-7.467 -16.924,-10.679 -9.834,-6.38 -16.161,-11.031 -16.161,-11.031 z"
   id="path24" />
	<path
   style="fill:#5f7934"
   d="m 392.271,662.548 c 0,0 7.193,3.149 17.639,8.466 5.237,2.631 11.29,5.803 17.72,9.302 3.202,1.767 6.548,3.53 9.882,5.442 3.34,1.889 6.736,3.815 10.131,5.738 3.365,1.974 6.731,3.948 10.043,5.891 3.327,1.923 6.524,3.943 9.66,5.826 6.247,3.815 12.022,7.464 16.925,10.679 9.833,6.383 16.156,11.037 16.156,11.037 0,0 -7.196,-3.143 -17.643,-8.457 -5.237,-2.634 -11.29,-5.806 -17.719,-9.305 -3.201,-1.769 -6.552,-3.524 -9.88,-5.442 -3.34,-1.894 -6.735,-3.817 -10.13,-5.743 -3.364,-1.974 -6.729,-3.948 -10.041,-5.894 -3.321,-1.929 -6.524,-3.94 -9.659,-5.829 -6.244,-3.815 -12.021,-7.464 -16.923,-10.679 -9.834,-6.381 -16.161,-11.032 -16.161,-11.032 z"
   id="path25" />
	<path
   style="fill:#5f7934"
   d="m 366.71,662.548 c 0,0 4.468,1.576 10.824,4.534 3.193,1.456 6.861,3.251 10.734,5.271 1.925,1.036 3.952,2.034 5.942,3.172 2.001,1.118 4.032,2.256 6.065,3.391 2.001,1.192 4.004,2.378 5.975,3.55 1.985,1.143 3.862,2.404 5.719,3.553 3.692,2.338 7.083,4.614 9.94,6.648 5.743,4.025 9.341,7.109 9.341,7.109 0,0 -4.47,-1.57 -10.828,-4.529 -3.193,-1.456 -6.861,-3.249 -10.734,-5.274 -1.923,-1.033 -3.953,-2.028 -5.94,-3.172 -2,-1.121 -4.031,-2.259 -6.063,-3.394 -2.001,-1.192 -4.003,-2.381 -5.974,-3.55 -1.979,-1.155 -3.861,-2.409 -5.718,-3.559 -3.69,-2.338 -7.08,-4.614 -9.94,-6.651 -5.743,-4.018 -9.343,-7.099 -9.343,-7.099 z"
   id="path26" />
	<path
   style="fill:#84a948"
   d="M 523.598,631.103 336.72,521.521 c 0,0 233.795,-135.721 365.823,-238.767 L 889.422,392.005 C 770.385,493.565 523.598,631.103 523.598,631.103 Z"
   id="path27" />
	<path
   style="fill:#75953f"
   d="m 831.559,391.808 c 0,-3.697 1.664,-7.127 4.511,-9.97 L 723.317,315.923 c -4.81,3.941 -12.081,6.45 -20.22,6.45 -6.531,0 -12.494,-1.627 -17.085,-4.305 -95.098,70.378 -225.259,150.492 -293.739,191.607 4.146,3.143 6.688,7.28 6.688,11.83 0,4.476 -2.458,8.552 -6.483,11.676 l 111.377,65.31 c 4.807,-3.729 11.859,-6.096 19.742,-6.096 8.084,0 15.307,2.481 20.119,6.378 60.564,-34.868 202.93,-118.933 298.96,-192.449 -6.719,-3.22 -11.117,-8.514 -11.117,-14.516 z"
   id="path28" />
	<path
   style="fill:#84a948"
   d="m 694.817,459.977 c 0,27.832 -33.285,50.392 -74.348,50.392 -41.063,0 -74.349,-22.56 -74.349,-50.392 0,-27.833 33.287,-50.393 74.349,-50.393 41.063,0 74.348,22.56 74.348,50.393 z"
   id="path29" />
	<path
   style="fill:#84a948"
   d="m 755.183,385.686 c 0,11.874 -14.201,21.497 -31.718,21.497 -17.514,0 -31.715,-9.623 -31.715,-21.497 0,-11.874 14.201,-21.497 31.715,-21.497 17.518,0 31.718,9.624 31.718,21.497 z"
   id="path30" />
	<path
   style="fill:#84a948"
   d="m 540.483,524.441 c 0,11.873 -14.2,21.497 -31.716,21.497 -17.516,0 -31.715,-9.623 -31.715,-21.497 0,-11.875 14.199,-21.499 31.715,-21.499 17.516,10e-4 31.716,9.624 31.716,21.499 z"
   id="path31" />
	<path
   style="fill:#75953f"
   d="m 614.117,494.631 c 2.842,-3.85 5.194,-7.891 7.476,-11.959 0.427,-0.76 0.56,-1.563 0.438,-2.408 -0.191,-1.343 0.054,-2.611 0.575,-3.826 0.139,-0.321 0.088,-0.572 -0.236,-0.842 -1.323,-1.108 -2.628,-2.227 -3.98,-3.318 -0.284,-0.232 -0.694,-0.43 -1.084,-0.539 -2.853,-0.831 -5.536,-1.903 -8.013,-3.298 -0.074,-0.039 -0.159,-0.06 -0.284,-0.104 -0.193,0.629 -0.885,0.677 -1.631,0.569 -0.546,-0.073 -1.109,-0.193 -1.626,-0.371 -0.839,-0.292 -1.668,-0.607 -2.456,-0.97 -1.634,-0.76 -3.239,-1.549 -5.007,-2.136 -1.555,-0.525 -2.704,-1.468 -3.702,-2.473 -0.724,-0.723 -0.592,-1.208 0.425,-2.008 -5.939,-2.714 -11.221,-5.903 -14.67,-10.608 0.029,0.213 0.035,0.286 0.057,0.364 0.011,0.075 0.038,0.148 0.067,0.243 -1.351,-0.646 -2.297,-2.465 -2.381,-4.405 -0.147,0.293 -0.295,0.577 -0.445,0.865 -0.043,-0.004 -0.089,-0.01 -0.132,-0.01 -0.014,-0.162 -0.051,-0.321 -0.039,-0.475 0.121,-1.57 0.708,-2.98 2.086,-4.128 0.127,-0.104 0.196,-0.354 0.103,-0.479 -0.612,-0.785 -0.78,-1.602 -0.626,-2.406 0.171,-0.856 0.457,-1.688 0.69,-2.529 0.072,0.016 0.146,0.029 0.221,0.046 0.028,0.281 0.057,0.562 0.087,0.84 0.792,-1.26 1.785,-2.411 3.168,-3.345 1.365,-0.923 2.775,-1.812 4.241,-2.663 -1.185,0.893 -2.372,1.788 -3.557,2.678 0.056,0.047 0.117,0.091 0.178,0.138 0.146,-0.1 0.296,-0.201 0.445,-0.294 3.033,-1.91 6.41,-3.479 10.117,-4.697 5.554,-1.831 11.31,-1.34 17.254,0.744 6.025,2.109 10.414,5.388 13.629,9.565 0.111,0.149 0.225,0.296 0.344,0.454 0.071,-0.026 0.137,-0.038 0.171,-0.064 1.018,-0.889 2.586,-0.673 3.448,0.479 0.813,1.092 1.525,2.232 2.464,3.278 1.195,1.341 2.404,2.671 3.226,4.132 0.259,0.464 0.481,0.941 0.626,1.415 0.282,0.944 0.023,1.179 -1.32,1.256 0.139,0.157 0.256,0.296 0.376,0.431 1.681,1.931 2.975,3.958 4.076,6.055 0.799,1.529 2.452,2.658 4.261,3.65 0.139,0.073 0.395,0.098 0.552,0.07 1.53,-0.257 3.115,-0.188 4.694,0.074 2.179,0.357 4.122,0.176 6.113,-0.314 6.873,-1.688 13.825,-3.256 20.746,-4.866 1.362,-0.316 2.745,-0.6 4.091,-0.937 1.479,-0.368 3.018,-0.383 4.614,-0.156 -3.809,-19.609 -31.334,-35.392 -63.515,-35.392 -34.681,0 -63.979,18.328 -63.979,40.023 0,19.669 24.081,36.569 54.421,39.553 0.868,-1.712 2.034,-3.308 3.203,-4.902 z"
   id="path32" />
</g></g>
</svg>
