<?xml version="1.0" encoding="UTF-8" standalone="no"?>
<!-- Generator: Adobe Illustrator 27.5.0, SVG Export Plug-In . SVG Version: 6.00 Build 0)  -->

<svg
   version="1.1"
   id="Layer_1"
   x="0px"
   y="0px"
   viewBox="0 0 20 20"
   xml:space="preserve"
   sodipodi:docname="env_volume.svg"
   width="20"
   height="20"
   inkscape:version="1.4.2 (f4327f4, 2025-05-13)"
   xmlns:inkscape="http://www.inkscape.org/namespaces/inkscape"
   xmlns:sodipodi="http://sodipodi.sourceforge.net/DTD/sodipodi-0.dtd"
   xmlns="http://www.w3.org/2000/svg"
   xmlns:svg="http://www.w3.org/2000/svg"><defs
   id="defs4"><inkscape:path-effect
     effect="offset"
     id="path-effect5"
     is_visible="true"
     lpeversion="1.3"
     linejoin_type="miter"
     unit="mm"
     offset="0.2"
     miter_limit="4"
     attempt_force_join="false"
     update_on_knot_move="true" /></defs><sodipodi:namedview
   id="namedview4"
   pagecolor="#ffffff"
   bordercolor="#111111"
   borderopacity="1"
   inkscape:showpageshadow="0"
   inkscape:pageopacity="0"
   inkscape:pagecheckerboard="1"
   inkscape:deskcolor="#d1d1d1"
   inkscape:zoom="5.6568543"
   inkscape:cx="-83.615377"
   inkscape:cy="-8.5736697"
   inkscape:window-width="3440"
   inkscape:window-height="1334"
   inkscape:window-x="-11"
   inkscape:window-y="-11"
   inkscape:window-maximized="1"
   inkscape:current-layer="Layer_1"><inkscape:page
     x="0"
     y="0"
     width="20"
     height="20"
     id="page2"
     margin="0"
     bleed="0" /></sodipodi:namedview>

<path
   id="path1"
   style="fill:#000000;fill-opacity:1;stroke-width:0.0483408"
   inkscape:label="volume"
   d="m 13.18164,0.15625 c -0.22112,0.008 -0.42766,0.1059 -0.62305,0.27539 C 10.63965,2.09466 8.71661,3.75379 6.79883,5.41797 6.67044,5.52906 6.54498,5.58261 6.37109,5.58203 6.04707,5.58103 5.72238,5.57903 5.39844,5.57803 l 1.08789,0.50782 c 1.84053,0.85777 3.42191,0.89837 4.61719,0.69531 -6.7e-4,-0.0503 -0.002,-0.10157 -0.004,-0.15234 -1.9e-4,-0.007 2.1e-4,-0.013 0,-0.0195 -0.008,-0.1069 -0.013,-0.21239 -0.0137,-0.3164 -0.0121,-1.90806 1.20929,-3.63571 3.04492,-4.24219 -6e-5,-0.29904 -2e-4,-0.59717 0,-0.89648 5.8e-4,-0.41196 -0.1523,-0.73541 -0.53516,-0.91016 -0.14313,-0.0653 -0.28139,-0.0925 -0.41406,-0.0879 z M 1.12695,5.57812 c -0.66101,0 -1.02343,0.36353 -1.02343,1.02735 -2.9e-4,2.24799 -2.9e-4,4.49614 0,6.74414 0,0.67653 0.35556,1.03291 1.0332,1.0332 1.73674,0 3.47424,-0.003 5.21094,0.004 0.1005,2.9e-4 0.22027,0.0479 0.29687,0.11328 0.0836,0.071 0.16647,0.14172 0.25,0.21289 C 7.05826,14.58924 7.26126,14.42825 7.48828,14.23056 7.94109,13.83624 8.48994,13.29879 9.01953,12.62704 6.89368,11.52774 5.73523,9.3185 5.41797,6.86923 L 5.25195,5.57821 c -1.37493,-0.003 -2.74972,-4.5e-4 -4.125,0 z m 13.00391,10.15821 c -1.85826,0.60519 -3.75744,0.76255 -5.15234,0.77539 1.20181,1.04005 2.40422,2.07871 3.60546,3.11914 0.24523,0.21244 0.5248,0.30181 0.84375,0.22461 0.4413,-0.10712 0.70118,-0.46098 0.70118,-0.94922 2e-4,-1.057 0.002,-2.11314 0.002,-3.16992 z" />
<path
   style="display:inline;fill:#ffffff;fill-opacity:0;stroke:none;stroke-width:0;stroke-dasharray:none"
   d="M 19.925781,0.72851562 17.412109,2.2441406 C 16.5586,1.8433369 15.575827,1.7115056 14.583984,1.9277344 c -2.08491,0.4544888 -3.511158,2.3041789 -3.498046,4.3652343 6.6e-4,0.1040066 0.0054,0.2095034 0.01367,0.3164063 2.08e-4,0.00657 -1.93e-4,0.012964 0,0.019531 0.0015,0.050776 0.0032,0.1020104 0.0039,0.1523438 C 9.9082437,6.9843069 8.3268552,6.9437133 6.4863281,6.0859375 L 5.2421875,5.5058594 5.4179687,6.8691406 C 5.7352302,9.3184083 6.8936762,11.527652 9.0195313,12.626953 8.4899368,13.298702 7.9410864,13.836155 7.4882812,14.230469 7.2443996,14.442847 7.0290175,14.613314 6.859375,14.740234 6.6049113,14.930616 6.6066911,14.929296 6.4707031,15.013672 l -1.8007812,1.117187 2.1015625,0.275391 c 0.1403296,0.01835 0.5092988,0.05172 0.7363281,0.06641 1.7807613,0.115221 6.6877005,0.163871 9.9628905,-2.498047 3.368265,-2.737695 2.865016,-6.7235753 2.525391,-8.2050778 -0.0409,-0.1784183 -0.119812,-0.4728709 -0.16211,-0.5996093 -0.0014,-0.0043 -0.0026,-0.00782 -0.0039,-0.011719 -0.06968,-0.2706138 -0.164166,-0.5290886 -0.279297,-0.7753906 0,0 0,-0.00195 0,-0.00195 z"
   id="path29"
   sodipodi:nodetypes="cccccccccccccccc"
   inkscape:label="bird_stroke"
   inkscape:original-d="M 18.777794,4.522454 19.020239,2.1583882 17.436271,3.112966 C 16.657299,2.6420392 15.703673,2.456825 14.744045,2.6660308 13.011075,3.0438003 11.830954,4.5827816 11.841803,6.2882077 l -5.2e-5,-2.23e-5 c 1.3e-5,2.485e-4 2.5e-5,4.975e-4 5.2e-5,7.831e-4 6.27e-4,0.098684 0.0051,0.197902 0.01384,0.2974811 0.0087,0.2756225 0.0057,0.545397 -0.0082,0.8092394 -1.372229,0.3449826 -3.3678733,0.4539312 -5.68042,-0.6238289 0.3330363,2.57105 1.6373233,4.7517289 4.022935,5.5244779 -1.4511507,2.199629 -3.3217773,3.360163 -3.3217773,3.360163 0,0 6.3192073,0.826727 10.1259233,-2.26719 3.806671,-3.094028 2.120467,-7.9849514 2.120467,-7.9849514 l -9.53e-4,1.179e-4 c -0.07564,-0.31415 -0.189519,-0.6095084 -0.335821,-0.882041 z"
   inkscape:path-effect="#path-effect5" /><path
   style="display:inline;fill:#000000;fill-opacity:1;stroke:none;stroke-width:0;stroke-dasharray:none"
   d="M 18.777794,4.522454 19.020239,2.1583882 17.436271,3.112966 C 16.657299,2.6420392 15.703673,2.456825 14.744045,2.6660308 13.011075,3.0438003 11.830954,4.5827816 11.841803,6.2882077 l -5.2e-5,-2.23e-5 c 1.3e-5,2.485e-4 2.5e-5,4.975e-4 5.2e-5,7.831e-4 6.27e-4,0.098684 0.0051,0.197902 0.01384,0.2974811 0.0087,0.2756225 0.0057,0.545397 -0.0082,0.8092394 -1.372229,0.3449826 -3.3678733,0.4539312 -5.68042,-0.6238289 0.3330363,2.57105 1.6373233,4.7517289 4.022935,5.5244779 -1.4511507,2.199629 -3.3217773,3.360163 -3.3217773,3.360163 0,0 6.3192073,0.826727 10.1259233,-2.26719 3.806671,-3.094028 2.120467,-7.9849514 2.120467,-7.9849514 l -9.53e-4,1.179e-4 c -0.07564,-0.31415 -0.189519,-0.6095084 -0.335821,-0.882041 z"
   id="path4"
   sodipodi:nodetypes="cccccccccccccccc"
   inkscape:label="bird"
   sodipodi:insensitive="true" /></svg>
