<?xml version="1.0" encoding="UTF-8" standalone="no"?>
<!-- Generator: Adobe Illustrator 27.5.0, SVG Export Plug-In . SVG Version: 6.00 Build 0)  -->

<svg
   version="1.1"
   id="Layer_1"
   x="0px"
   y="0px"
   viewBox="0 0 20 20"
   xml:space="preserve"
   sodipodi:docname="exit_icon.svg"
   width="20"
   height="20"
   inkscape:version="1.4.2 (f4327f4, 2025-05-13)"
   inkscape:export-filename="exit.svg"
   inkscape:export-xdpi="96"
   inkscape:export-ydpi="96"
   xmlns:inkscape="http://www.inkscape.org/namespaces/inkscape"
   xmlns:sodipodi="http://sodipodi.sourceforge.net/DTD/sodipodi-0.dtd"
   xmlns="http://www.w3.org/2000/svg"
   xmlns:svg="http://www.w3.org/2000/svg"><defs
   id="defs11" /><sodipodi:namedview
   id="namedview11"
   pagecolor="#ffffff"
   bordercolor="#111111"
   borderopacity="1"
   inkscape:showpageshadow="0"
   inkscape:pageopacity="0"
   inkscape:pagecheckerboard="1"
   inkscape:deskcolor="#d1d1d1"
   inkscape:zoom="35.04"
   inkscape:cx="9.5890411"
   inkscape:cy="10.773402"
   inkscape:window-width="3440"
   inkscape:window-height="1334"
   inkscape:window-x="-11"
   inkscape:window-y="-11"
   inkscape:window-maximized="1"
   inkscape:current-layer="g3"><inkscape:page
     x="0"
     y="0"
     width="20"
     height="20"
     id="page2"
     margin="0"
     bleed="0" /></sodipodi:namedview>
<g
   id="g3"
   transform="matrix(0.00756464,0,0,0.00756464,1.3484105,0.82459108)"
   style="fill:#ff0000;fill-opacity:0.60356">
		<g
   id="g2"
   style="fill:#ff0000;fill-opacity:0.60356">
			<path
   style="fill:#ff0000;fill-opacity:0.60356"
   d="m 1162.16,1698.083 c 0,22.559 -0.507,43.964 0.088,65.337 2.476,88.958 -64.003,147.044 -130.818,156.393 -32.05,4.485 -62.4,-0.716 -90.072,-16.723 -106.51,-61.608 -213.02,-123.242 -318.602,-186.458 -47.633,-28.519 -69.465,-74.099 -70.49,-129.661 -0.667,-36.146 -0.142,-72.314 -0.142,-108.473 -10e-4,-268.67 -0.076,-537.341 0.048,-806.011 0.036,-77.194 45.002,-137.265 116.319,-155.19 12.536,-3.151 25.833,-4.457 38.781,-4.472 223.596,-0.262 447.193,-0.249 670.789,-0.159 86.442,0.035 152.914,65.66 154.326,153.571 1.022,63.603 0.43,127.238 0.096,190.857 -0.16,30.412 -22.907,53.744 -50.548,53.094 -28.192,-0.664 -49.04,-23.656 -49.09,-54.52 -0.1,-62.247 0.033,-124.495 -0.073,-186.742 -0.057,-33.486 -20.914,-55.203 -53.848,-55.228 -192.428,-0.151 -384.857,-0.079 -577.285,-0.051 -2.59,0 -5.179,0.395 -11.441,0.904 23.286,13.785 43.602,25.934 64.031,37.884 76.927,45.001 154.044,89.671 230.788,134.989 53.55,31.621 77.606,79.446 77.413,142.213 -0.665,216.49 -0.262,432.984 -0.266,649.476 0,5.38 0,10.759 0,18.001 6.17,0 10.97,-10e-4 15.771,0 65.046,0.011 130.104,-0.733 195.134,0.325 37.051,0.603 61.332,-25.689 60.19,-61.344 -1.729,-53.952 -0.65,-108.004 -0.332,-162.01 0.136,-23.094 16.118,-43.353 36.95,-48.468 22.303,-5.476 45.102,3.494 55.387,23.95 4.508,8.966 6.927,19.963 7.051,30.079 0.66,53.542 0.566,107.1 0.213,160.648 -0.58,88.136 -62.91,154.118 -149.782,156.301 -67.715,1.701 -135.5,0.549 -203.254,0.719 -5.298,0.015 -10.594,0.459 -17.332,0.769 z"
   id="path1" />
			<path
   style="fill:#ff0000;fill-opacity:0.60356"
   d="m 1618.907,1153.975 c -5.317,0 -10.634,0 -15.951,0 -113.766,-10e-4 -227.533,0.094 -341.299,-0.061 -33.324,-0.045 -54.776,-20.469 -54.504,-51.002 0.247,-27.748 21.099,-49.073 49.156,-49.296 43.337,-0.344 86.678,-0.126 130.018,-0.13 77.633,-0.01 155.266,0 236.739,0 -6.841,-7.049 -11.604,-12.017 -16.432,-16.918 -12.436,-12.626 -25.035,-25.089 -37.323,-37.861 -19.768,-20.546 -20.353,-52.35 -1.54,-71.503 19.537,-19.888 49.942,-20.925 70.49,-0.51 47.045,46.743 93.642,93.964 139.723,141.682 21.009,21.756 19.739,50.469 -1.434,72.196 -20.298,20.829 -40.944,41.311 -61.156,62.224 -24.547,25.398 -48.59,51.299 -73.244,76.589 -22.822,23.411 -52.526,24.947 -73.177,4.444 -20.724,-20.575 -19.971,-54.394 2.287,-77.307 16.108,-16.582 32.868,-32.513 49.338,-48.734 -0.563,-1.27 -1.127,-2.541 -1.691,-3.811 z"
   id="path2" />
		</g>
	</g>
</svg>
