<?xml version="1.0" encoding="UTF-8" standalone="no"?>
<!-- Generator: Adobe Illustrator 27.5.0, SVG Export Plug-In . SVG Version: 6.00 Build 0)  -->

<svg
   version="1.1"
   id="_x3C_Layer_x3E_"
   x="0px"
   y="0px"
   viewBox="0 0 12.625001 12.624998"
   xml:space="preserve"
   width="12.625001"
   height="12.624998"
   xmlns="http://www.w3.org/2000/svg"
   xmlns:svg="http://www.w3.org/2000/svg"><defs
   id="defs15" />
<radialGradient
   id="SVGID_1_"
   cx="2437.6438"
   cy="4324.1875"
   r="4937.3359"
   gradientUnits="userSpaceOnUse">
	<stop
   offset="0"
   style="stop-color:#FFFFFF"
   id="stop1" />
	<stop
   offset="0.4113"
   style="stop-color:#FDFDFD"
   id="stop2" />
	<stop
   offset="0.6109"
   style="stop-color:#F5F6F7"
   id="stop3" />
	<stop
   offset="0.7644"
   style="stop-color:#E8EBEC"
   id="stop4" />
	<stop
   offset="0.8817"
   style="stop-color:#D8DDDE"
   id="stop5" />
</radialGradient>
<path
   style="fill:#ffffff;fill-opacity:0.697411;stroke-width:0.00708307"
   d="m 12.399556,7.5159998 -0.498605,-0.380275 c -0.225514,-0.171909 -0.409873,-0.542324 -0.409873,-0.823342 0,-0.280716 0.184359,-0.6512877 0.409873,-0.8231097 l 0.498684,-0.380284 c 0.225435,-0.171984 0.293232,-0.512027 0.150817,-0.755316 l -1.400425,-2.394731 c -0.142492,-0.243684 -0.474576,-0.355546 -0.738072,-0.248772 l -0.5830535,0.23609 c -0.263575,0.106775 -0.680741,0.07921 -0.927106,-0.06114 -0.246374,-0.140513 -0.479181,-0.483532 -0.517319,-0.762052 L 8.3001865,0.50661703 C 8.2621265,0.22787003 7.9979135,2.9223643e-8 7.7130095,2.9223643e-8 H 4.9120074 C 4.6271024,2.9223643e-8 4.3628934,0.22787003 4.3247544,0.50662203 l -0.08429,0.61645107 c -0.03806,0.27852 -0.270868,0.621539 -0.517312,0.762052 -0.246373,0.14035 -0.663539,0.16791 -0.927036,0.06114 l -0.583056,-0.236095 c -0.263574,-0.106774 -0.595579,0.0051 -0.738078,0.248617 l -1.40041903,2.394724 c -0.142492,0.243451 -0.07453999799,0.583416 0.150818,0.755401 l 0.498684,0.380283 c 0.225357,0.1719 0.40979503,0.5424007 0.40979503,0.8231877 0,0.281024 -0.18444503,0.651433 -0.40979503,0.823342 l -0.498563,0.380197 c -0.22539299799,0.171986 -0.293431,0.511796 -0.150932,0.755479 L 1.4749894,10.666046 c 0.142492,0.24353 0.474582,0.35547 0.738079,0.248696 l 0.583054,-0.236091 c 0.263575,-0.106774 0.680741,-0.07922 0.927106,0.06106 0.246374,0.140596 0.47918,0.483454 0.517241,0.762129 l 0.08429,0.616374 c 0.03814,0.278829 0.302349,0.506784 0.587254,0.506784 h 2.8010011 c 0.284905,0 0.549114,-0.227955 0.587174,-0.506784 l 0.08429,-0.616374 c 0.03815,-0.278598 0.270954,-0.621533 0.517319,-0.76189 0.246203,-0.140518 0.663532,-0.16807 0.927108,-0.0613 l 0.5828965,0.23609 c 0.263582,0.106774 0.595664,-0.0052 0.738071,-0.248609 l 1.400505,-2.3947252 c 0.142476,-0.243619 0.07468,-0.583501 -0.150826,-0.755406 z m -6.0870505,1.772404 c -1.6647861,0 -3.0145411,-1.332401 -3.0145411,-2.976029 0,-1.6435587 1.349748,-2.9757957 3.0145411,-2.9757957 1.664949,0 3.01454,1.332237 3.01454,2.9757957 0,1.643637 -1.349591,2.976029 -3.01454,2.976029 z"
   id="path12" /><path
   style="fill:#ffffff;fill-opacity:0.697411;stroke-width:0.00708307"
   d="m 6.3125055,4.9817851 c -0.7444161,0 -1.3479231,0.595704 -1.3479231,1.3305977 0,0.73504 0.603507,1.330751 1.3479231,1.330751 0.744337,0 1.34785,-0.595703 1.34785,-1.330751 0,-0.7348937 -0.603513,-1.3305977 -1.34785,-1.3305977 z"
   id="path13" />
<radialGradient
   id="SVGID_00000160153755733969470700000006196504646583636393_"
   cx="2133.7468"
   cy="33581.418"
   r="1988.2686"
   gradientTransform="matrix(0.9184,0,0,0.0893,506.453,1118.9868)"
   gradientUnits="userSpaceOnUse">
	<stop
   offset="0"
   style="stop-color:#BBC8D1"
   id="stop6" />
	<stop
   offset="0.0709"
   style="stop-color:#C5D0D8"
   id="stop7" />
	<stop
   offset="0.284"
   style="stop-color:#DFE5E9"
   id="stop8" />
	<stop
   offset="0.5053"
   style="stop-color:#F1F3F5"
   id="stop9" />
	<stop
   offset="0.7378"
   style="stop-color:#FBFCFD"
   id="stop10" />
	<stop
   offset="1"
   style="stop-color:#FFFFFF"
   id="stop11" />
</radialGradient>


</svg>
