<?xml version="1.0" encoding="UTF-8" standalone="no"?>
<!-- Generator: Adobe Illustrator 27.5.0, SVG Export Plug-In . SVG Version: 6.00 Build 0)  -->

<svg
   version="1.1"
   id="Layer_1"
   x="0px"
   y="0px"
   viewBox="0 0 70.884003 73.800003"
   xml:space="preserve"
   width="70.884003"
   height="73.800003"
   xmlns="http://www.w3.org/2000/svg"
   xmlns:svg="http://www.w3.org/2000/svg"><defs
   id="defs37" />
<g
   id="g37"
   transform="translate(-194.896,-112.654)">
	
	
	
	
	<g
   id="g16">
		
			<linearGradient
   id="SVGID_00000017483585702052713240000001957131161959823772_"
   gradientUnits="userSpaceOnUse"
   x1="194.8961"
   y1="149.5545"
   x2="265.78021"
   y2="149.5545">
			<stop
   offset="0.5"
   style="stop-color:#ADC1CE"
   id="stop13" />
			<stop
   offset="0.5024"
   style="stop-color:#FFFFFF"
   id="stop14" />
		</linearGradient>
		<path
   style="fill:url(#SVGID_00000017483585702052713240000001957131161959823772_)"
   d="m 257.176,118.33 c -9.204,3.66 -14.856,4.908 -26.58,-5.676 -12.396,10.536 -17.76,9.396 -27.084,5.676 l -8.616,5.904 0.108,2.904 c 0.18,4.944 1.476,13.944 4.536,23.076 6.888,20.616 15.984,27.348 28.08,34.608 l 2.724,1.632 2.712,-1.632 c 12.108,-7.26 21.204,-13.992 28.092,-34.608 3.048,-9.132 4.344,-18.132 4.524,-23.076 l 0.108,-2.904 z m 5.916,8.712 c -0.168,4.776 -1.428,13.488 -4.392,22.356 -6.612,19.776 -15.348,26.244 -26.964,33.216 l -1.392,0.828 -1.392,-0.828 c -11.616,-6.972 -20.364,-13.44 -26.964,-33.216 -2.964,-8.868 -4.224,-17.58 -4.404,-22.356 l -0.048,-1.476 6.168,-4.236 c 10.308,3.876 19.416,1.824 26.652,-4.32 7.224,6.168 16.368,8.184 26.616,4.32 l 6.18,4.236 z"
   id="path14" />
		
			<linearGradient
   id="SVGID_00000021798464844396158810000003370788404589829258_"
   gradientUnits="userSpaceOnUse"
   x1="201.5081"
   y1="150.49651"
   x2="259.16821"
   y2="150.49651">
			<stop
   offset="0.5"
   style="stop-color:#ADC1CE"
   id="stop15" />
			<stop
   offset="0.5024"
   style="stop-color:#FFFFFF"
   id="stop16" />
		</linearGradient>
		<path
   style="fill:url(#SVGID_00000021798464844396158810000003370788404589829258_)"
   d="m 243.388,126.994 c -7.452,-1.5 -11.46,-3.804 -13.044,-4.896 -1.584,1.092 -5.592,3.396 -13.044,4.896 -5.808,1.152 -10.308,0.06 -13.224,-1.188 l -2.568,1.752 c 0.252,4.62 1.476,12.516 4.176,20.604 6.084,18.204 13.74,24.144 24.66,30.732 10.908,-6.588 18.576,-12.528 24.66,-30.732 2.7,-8.088 3.912,-15.972 4.164,-20.604 l -2.556,-1.752 c -2.916,1.248 -7.416,2.352 -13.224,1.188 z"
   id="path16" />
	</g>
	
	
	
	
	
</g>
</svg>
