<?xml version="1.0" encoding="UTF-8" standalone="no"?>
<!-- Generator: Adobe Illustrator 27.5.0, SVG Export Plug-In . SVG Version: 6.00 Build 0)  -->

<svg
   version="1.1"
   id="Layer_1"
   x="0px"
   y="0px"
   viewBox="0 0 4111.4453 3974.2876"
   xml:space="preserve"
   sodipodi:docname="swordsink.svg"
   inkscape:version="1.4.2 (f4327f4, 2025-05-13)"
   inkscape:export-filename="swordswhite.svg"
   inkscape:export-xdpi="96"
   inkscape:export-ydpi="96"
   width="1027.8613"
   height="993.5719"
   xmlns:inkscape="http://www.inkscape.org/namespaces/inkscape"
   xmlns:sodipodi="http://sodipodi.sourceforge.net/DTD/sodipodi-0.dtd"
   xmlns="http://www.w3.org/2000/svg"
   xmlns:svg="http://www.w3.org/2000/svg"><defs
   id="defs4" /><sodipodi:namedview
   id="namedview4"
   pagecolor="#ffffff"
   bordercolor="#111111"
   borderopacity="1"
   inkscape:showpageshadow="0"
   inkscape:pageopacity="0"
   inkscape:pagecheckerboard="true"
   inkscape:deskcolor="#d1d1d1"
   inkscape:zoom="0.61942554"
   inkscape:cx="376.15498"
   inkscape:cy="473.82612"
   inkscape:window-width="3440"
   inkscape:window-height="1334"
   inkscape:window-x="-11"
   inkscape:window-y="-11"
   inkscape:window-maximized="1"
   inkscape:current-layer="Layer_1"><inkscape:page
     x="0"
     y="0"
     width="4111.4453"
     height="3974.2876"
     id="page2"
     margin="0"
     bleed="0" /></sodipodi:namedview>

<g
   id="g4"
   transform="translate(-444.10886,-513.04475)"
   clip-path="none"
   mask="none"
   style="fill:#ffffff;fill-opacity:1">
	<path
   d="m 3317.352,1784.072 c -31.254,-30.758 -63.127,-60.756 -97.971,-87.362 -2.394,-1.828 -5.557,-2.643 -8.345,-3.966 -3.724,-1.768 -6.848,-4.295 -6.305,-8.795 0.563,-4.657 4.857,-6.256 8.498,-6.787 6.028,-0.878 12.578,-0.347 17.346,3.63 13.597,11.344 26.669,23.315 40.078,34.889 1.888,1.63 3.785,3.875 8.883,3.34 -13.279,-13.418 -25.701,-25.859 -37.982,-38.437 -4.469,-4.576 -12.58,-8.569 -9.922,-15.702 2.77,-7.432 11.761,-5.952 18.554,-6.604 25.289,-2.427 46.833,9.466 68.826,18.852 18.427,7.864 37.198,15.199 55.328,28.134 -0.505,-7.123 -4.628,-9.144 -7.534,-11.456 -27.017,-21.501 -57.545,-36.398 -90.193,-47.164 -3.304,-1.089 -7.333,-1.15 -8.425,-5.164 -1.298,-4.772 2.586,-6.767 5.78,-9.002 24.021,-16.814 50.885,-21.62 79.684,-20.013 46.994,2.622 89.063,19.542 129.116,42.818 1.253,0.728 2.699,1.124 4.586,1.89 -0.558,-5.268 -4.762,-6.488 -7.552,-8.575 -26.882,-20.106 -54.95,-39.288 -88.079,-46.066 -36.28,-7.422 -73.245,-8.916 -107.33,10.988 -2.111,1.233 -4.307,2.298 -6.458,0.645 -2.525,-1.941 -2.171,-4.788 -1.466,-7.5 5.963,-22.932 14.766,-44.222 34.217,-59.403 3.121,-2.436 8.11,-3.877 2.06,-9.315 -31.198,-28.044 -63.186,-55.023 -98.903,-77.26 -2.302,-1.433 -4.885,-2.586 -6.816,-4.418 -20.929,-19.863 -38.178,-12.402 -60.444,1.802 -46.855,29.891 -118.984,24.738 -159.041,-23.351 -15.692,-18.838 -28.12,-38.752 -31.405,-63.642 -5.456,-41.337 16.309,-76.675 55.642,-91.662 23.752,-9.051 45.408,-7.859 65.819,7.923 3.448,2.666 6.457,5.54 8.683,9.271 3.886,6.514 1.853,10.248 -5.379,11.507 -2.678,0.466 -5.385,0.782 -8.086,1.101 -19.151,2.257 -29.606,11.485 -31.854,28.143 -2.367,17.545 8.52,35.805 23.794,42.957 35.149,16.457 63.657,-16.843 69.058,-47.718 7.839,-44.812 18.084,-89.164 37.571,-130.561 21.294,-45.238 50.612,-85.088 83.264,-122.939 28.549,-33.096 60.354,-62.435 94.06,-89.863 34.401,-27.994 72.073,-51.045 111.725,-70.877 51.923,-25.969 106.003,-46.445 162.682,-58.715 70.967,-15.364 143.005,-20.67 215.337,-12.539 37.392,4.203 74.016,13.384 108.939,28.151 2.822,1.193 5.658,2.513 9.524,1.54 -26.35,-18.502 -54.938,-30.64 -85.965,-36.542 -24.688,-4.696 -49.096,-11.634 -74.6,-11.076 -3.134,0.069 -7.068,-0.875 -6.919,-4.678 0.195,-4.985 5.034,-5.41 8.775,-5.912 33.503,-4.492 67.059,-8.665 100.968,-6.306 31.936,2.222 63.02,8.608 92.858,20.459 3.805,1.511 7.461,3.397 12.55,5.737 -4.639,-21.859 -8.568,-42.219 -8.056,-63.324 1.355,-55.797 30.75,-93.434 76.405,-121.018 0.986,-0.595 2.114,-1.003 3.225,-1.334 3.553,-1.056 7.977,-4.229 10.455,-0.003 1.91,3.257 -1.927,6.467 -4.611,8.521 -12.453,9.529 -16.25,23.074 -18.582,39.352 24.302,-6.652 47.997,-10.379 72.423,-5.513 24.235,4.828 44.775,16.736 65.633,32.173 -0.702,-5.762 -3.744,-8.541 -5.915,-11.746 -1.428,-2.109 -4.57,-4.42 -1.833,-6.942 2.342,-2.156 5.202,0.118 7.294,1.697 11.715,8.84 23.327,17.819 36.731,25.42 -4.859,-6.883 -9.708,-13.774 -14.583,-20.645 -2.066,-2.911 -4.541,-6.275 -2.455,-9.563 2.76,-4.35 6.195,-0.24 9.231,0.572 15.634,4.181 26.167,15.513 36.288,27.307 4.197,-3.821 1.078,-6.39 -0.43,-8.531 -12.051,-17.113 -23.373,-34.906 -41.555,-46.577 -1.942,-1.247 -3.723,-2.846 -5.294,-4.544 -1.764,-1.906 -4.687,-4.023 -2.729,-6.87 1.893,-2.752 5.229,-1.509 7.432,-0.113 9.825,6.225 19.947,12.126 29.086,19.265 29.941,23.387 53.508,51.667 65.278,88.545 0.438,1.372 0.991,2.708 2.432,3.643 -5.66,-29.37 -19.357,-54.702 -38.096,-77.949 -28.477,-35.328 -66.3,-55.468 -108.478,-68.777 -9.974,-3.148 -20.541,-3.94 -31.108,-3.968 -3.957,-0.01 -9.979,0.827 -10.141,-4.933 -0.127,-4.529 5.538,-4.94 9.139,-5.532 43.995,-7.235 86.625,-4.924 126.435,17.95 50.198,28.841 86.491,69.419 103.537,125.227 18.341,60.049 4.531,113.212 -37.972,159.042 -25.392,27.379 -57.045,45.168 -91.675,57.877 -7.243,2.658 -6.918,5.072 -3.591,10.714 12.411,21.046 26.543,41.03 37.514,62.98 30.314,60.653 54.888,123.237 68.594,189.951 9.745,47.431 13.041,95.437 13.145,143.519 0.118,54.713 -4.116,109.312 -15.87,162.988 -17.671,80.698 -48.163,156.539 -91.048,226.9 -32.995,54.135 -72.345,103.745 -120.192,145.876 -21.545,18.971 -44.003,37.068 -69.364,50.79 -9.001,4.871 -8.885,8.238 -2.386,14.845 29.735,30.231 41.541,68.414 42.348,109.104 1.169,58.997 -26.264,103.801 -81.031,125.674 -62.865,25.106 -138.554,-3.821 -152.926,-76.811 -6.317,-32.08 1.646,-61.126 29.386,-79.103 20.38,-13.208 44.642,-20.703 70.344,-16.973 3.946,0.573 7.634,1.966 10.385,4.861 4.705,4.95 5.435,9.373 -2.203,12.375 -4.323,1.698 -8.67,3.484 -12.688,5.787 -16.83,9.643 -22.104,24.024 -15.383,41.229 6.218,15.916 25.308,26.294 41.423,22.518 23.121,-5.418 43.213,-35.279 39.523,-60.246 -7.038,-47.611 -31.517,-81.72 -81.445,-93.043 -59.493,-13.493 -114.598,-38.675 -169.491,-64.432 -52.373,-24.573 -105.36,-47.711 -160.591,-65.301 -3.044,-0.969 -6.643,-2.682 -8.91,-0.568 -13.531,12.62 -33.081,19.883 -36.427,41.683 -1.774,11.558 -8.188,19.217 -21.128,18.89 -4.738,-0.12 -8.103,2.541 -11.087,5.638 -16.697,17.33 -33.317,34.734 -49.936,52.139 -5.233,5.481 -5.224,10.315 0.669,15.877 41.74,39.397 86.816,72.801 145,83.781 41.576,7.845 81.509,4.118 120.789,-12.616 27.922,-11.896 53.289,-26.61 74.012,-48.973 5.52,-5.957 11.288,-3.957 13.058,4.536 4.565,21.906 2.562,43.447 -6.35,63.859 -27.082,62.032 -77.355,94.022 -141.428,107.469 -71.392,14.982 -137.506,-2.301 -202.243,-31.739 -36.896,-16.778 -68.211,-41.305 -100.129,-65.21 -5.777,-4.327 -7.529,-1.68 -9.431,2.333 -4.846,10.22 -8.901,20.827 -8.836,32.335 0.09,16.221 -2.116,32.645 4.44,48.364 2.985,7.157 -1.988,8.826 -7.708,9.253 -34.896,2.607 -68.044,11.208 -98.997,27.955 -26.832,14.517 -50.57,33.387 -73.224,53.373 -50.613,44.65 -99.634,91.018 -146.184,139.972 -48.333,50.828 -97.69,100.69 -145.672,151.843 -43,45.842 -84.854,92.763 -127.004,139.397 -38.745,42.866 -77.397,85.82 -115.743,129.042 -30.38,34.243 -60.04,69.125 -90.388,103.396 -22.775,25.72 -46.655,50.471 -69.109,76.46 -32.211,37.282 -65.725,73.349 -99.396,109.282 -51.47,54.929 -101.633,111.059 -152.703,166.359 -51.62,55.895 -106.311,108.752 -158.208,164.376 -44.422,47.612 -92.632,91.683 -139.047,137.443 -60.528,59.675 -122.253,118.145 -185.585,174.767 -47.69,42.637 -95.448,85.336 -145.63,125.18 -35.822,28.442 -70.191,58.727 -106.224,86.889 -50.121,39.173 -100.486,78.108 -152.05,115.338 -53.765,38.819 -109.446,74.853 -166.24,109.256 -50.166,30.388 -100.907,59.716 -153.142,86.193 -75.162,38.098 -152.797,70.647 -232.154,99.258 -41.263,14.877 -82.922,28.586 -124.643,41.838 -69.52,22.081 -140.037,41.018 -210.089,61.432 -8.908,2.596 -17.509,6.232 -26.335,9.138 -2.961,0.975 -6.613,1.4 -8.373,-1.88 -2.075,-3.869 1.203,-5.751 4.115,-6.873 26.854,-10.341 48.336,-29.297 71.688,-45.124 46.564,-31.558 91.994,-64.68 136.444,-99.246 78.427,-60.987 154.697,-124.41 227.501,-192.034 46.047,-42.771 92.829,-84.75 139.115,-127.266 56.585,-51.977 112.896,-104.252 169.516,-156.191 37.463,-34.366 74.496,-69.162 110.861,-104.7 35.765,-34.954 72.808,-68.599 108.726,-103.399 40.705,-39.438 80.716,-79.591 121.153,-119.306 45.153,-44.347 90.522,-88.474 135.631,-132.866 12.993,-12.786 25.369,-26.197 38.103,-39.247 64.793,-66.401 129.807,-132.587 194.355,-199.225 48.035,-49.59 95.879,-99.38 143.064,-149.777 41.097,-43.894 83.568,-86.428 125.828,-129.162 39.28,-39.721 80.713,-77.263 120.94,-116.015 55.917,-53.866 110.026,-109.605 165.213,-164.235 45.747,-45.284 91.68,-90.387 138.005,-135.078 37.952,-36.613 76.093,-73.032 114.491,-109.19 49.135,-46.268 98.772,-92.11 144.315,-142.062 44.22,-48.501 77.09,-103.769 100.037,-165.249 16.291,-43.647 30.419,-88.118 49.02,-130.881 4.941,-11.36 10.957,-22.344 17.427,-32.921 7.051,-11.527 20.671,-13.137 31.741,-18.086 10.429,-4.662 20.132,-9.965 28.777,-17.302 11.947,-10.14 13.847,-17.75 8.402,-32.7 -10.535,-28.929 -27.551,-54.086 -47.979,-76.518 -28.051,-30.804 -59.927,-57.318 -96.764,-77.443 -8.973,-4.902 -18.506,-8.019 -28.23,-10.719 -7.144,-1.984 -11.773,-0.802 -9.217,8.354 0.936,3.352 1.183,6.89 1.854,10.322 11.493,58.821 -52.354,107.763 -108.173,88.74 -46.073,-15.702 -72.541,-61.157 -70.151,-100.768 1.992,-33.002 18.059,-59.505 43.157,-80.839 33.67,-28.621 73.699,-31.427 115.213,-29.675 44.774,1.89 87.292,12.781 128.226,30.46 39.672,17.133 76.607,39.058 112.205,63.502 47.403,32.551 88.597,72.786 134.324,107.395 17.009,12.872 36.51,21.791 53.657,34.648 z m 974.287,-332.806 c -6.741,45.651 -25.609,86.725 -47.994,126.474 -2.842,5.046 -5.267,10.344 -8.36,15.224 -1.369,2.16 -3.868,4.516 -6.862,2.735 -2.981,-1.773 -1.677,-4.688 -0.924,-7.321 2.452,-8.573 5.171,-17.089 7.177,-25.767 15.592,-67.458 16.193,-135.267 4.48,-203.346 -8.302,-48.253 -24.226,-93.823 -48.303,-136.457 -18.585,-32.907 -40.815,-63.108 -67.713,-89.805 -10.112,-10.037 -10.071,-10.394 -18.407,1.271 -16.465,23.04 -32.86,46.134 -49.005,69.399 -37.139,53.519 -74.403,106.954 -111.076,160.792 -43.922,64.481 -91.221,126.487 -142.001,185.542 -31.281,36.379 -62.351,73.407 -98.622,105.243 -8.564,7.517 -7.267,12.424 -0.038,19.655 29.94,29.945 54.838,64.215 81.591,96.87 30.388,37.091 61.496,73.31 105.395,95.031 64.225,31.778 119.379,30.871 173.217,-12.092 61.358,-48.965 108.779,-110.142 147.83,-178.071 27.397,-47.657 50.092,-97.305 65.805,-149.987 7.302,-24.48 13.892,-49.234 13.81,-75.39 z m -696.528,-96.258 c -3.793,-2.887 -7.458,-1.741 -10.837,-2.231 -3.042,-0.44 -6.625,-0.264 -7.669,-3.975 -0.932,-3.313 2.248,-4.513 4.192,-6.298 5.615,-5.158 11.878,-8.302 19.795,-8.558 38.196,-1.236 73.906,6.778 106.711,27.006 13.979,8.62 27.867,17.267 39.92,28.621 -17.182,-26.26 -38.634,-47.579 -68.141,-59.19 -22.936,-9.025 -46.393,-15.715 -71.528,-10.652 -2.672,0.538 -5.746,0.732 -7.633,-1.612 -2.42,-3.007 -0.319,-5.879 1.234,-8.546 5.061,-8.689 12.757,-14.446 21.401,-19.16 3.718,-2.028 8.093,-3.389 10.115,-7.519 6.439,-13.155 17.833,-14.74 30.587,-13.502 3.487,0.338 7.105,1.983 11.032,0.068 -3.633,-4.334 -14.045,-0.765 -11.173,-9.33 2.447,-7.296 9.93,-4.004 15.385,-2.827 5.606,1.21 11.042,3.209 16.553,4.862 -4.63,-5.757 -10.923,-6.305 -16.791,-8.058 -3.192,-0.953 -7.877,-0.665 -8.389,-4.968 -0.531,-4.469 2.875,-6.918 7.066,-7.87 2.519,-0.572 3.969,-1.304 3.569,-4.586 -0.84,-6.901 4.706,-8.381 9.61,-9.306 6.116,-1.154 12.558,-1.297 18.504,0.634 31.313,10.171 63.533,18.203 91.096,37.496 4.444,3.11 8.905,6.199 13.28,9.404 4.001,2.931 7.896,6.006 11.838,9.017 -17.669,-28.771 -41.001,-49.96 -73.457,-59.499 -14.166,-4.163 -28.205,-8.474 -43.365,-6.922 -6.563,0.672 -12.236,-2.567 -6.762,-9.425 15.23,-19.084 30.663,-38.156 58.03,-40.637 8.759,-0.794 17.573,-1.125 26.398,-1.365 -8.76,-3.322 -17.398,-5.085 -26.216,-1.275 -2.556,1.105 -5.552,1.299 -7.456,-1.292 -1.715,-2.333 -0.602,-4.717 1.645,-5.88 9.221,-4.773 17.51,-12.61 28.626,-11.946 21.295,1.273 42.441,3.646 63.284,8.882 20.122,5.055 37.662,15.352 56.78,26.355 -16.283,-23.697 -58.552,-46.755 -85.136,-47.278 -10.489,-0.206 -20.985,-0.052 -31.476,-0.138 -3.094,-0.025 -6.543,0.162 -8.273,-3.077 -1.853,-3.47 0.951,-5.744 2.796,-8.17 5.001,-6.575 11.318,-11.576 18.145,-16.193 8.659,-5.857 25.027,-3.486 23.103,-21.023 -0.029,-0.264 0.412,-0.733 0.732,-0.86 12.388,-4.947 20.957,-17.242 35.724,-17.84 15.146,-0.613 30.199,-1.068 45.354,0.504 19.168,1.988 37.116,8.853 57.595,14.577 -14.172,-14.169 -42.72,-26.319 -61.54,-26.942 -9.705,-0.321 -19.43,0.011 -29.137,-0.268 -5.279,-0.152 -10.739,-2.684 -6.313,-8.318 6.794,-8.65 12.619,-18.972 24.476,-22.366 2.946,-0.843 6.749,-1.295 7.939,-4.349 5.853,-15.019 16.421,-19.687 31.574,-15.345 0.88,0.252 2.005,-0.349 6.93,-1.343 -10.221,-1.603 -10.264,-7.885 -13.219,-12.148 -4.538,-6.548 -1.913,-9.794 2.676,-13.563 7.673,-6.303 16.699,-10.511 25.631,-15.431 -4.399,-4.837 -9.365,-7.117 -14.182,-9.543 -49.295,-24.829 -102.248,-37.407 -156.657,-41.325 -74.567,-5.369 -147.884,3.527 -219.366,26.894 -60.747,19.858 -117.017,48.314 -167.931,86.552 -48.765,36.623 -89.563,81.1 -122.04,133.041 -12.792,20.458 -24.21,41.493 -33.193,63.894 -16.758,41.783 -24.969,85.474 -29.741,129.991 -0.671,6.262 0.349,10.64 7.253,12.239 3.759,0.87 7.319,2.565 11.028,3.691 64.46,19.566 123.431,50.235 179.434,87.326 23.986,15.886 44.256,36.625 68.748,51.551 25.163,15.335 51.372,28.993 75.381,46.176 17.824,12.756 35.165,26.186 52.721,39.316 -10.663,-12.016 -21.112,-24.116 -32.113,-35.754 -28.436,-30.08 -62.76,-50.387 -100.008,-66.608 -7.188,-3.13 -8.261,-7.145 -3.875,-12.234 5.659,-6.566 9.936,-15.192 19.959,-16.688 1.739,-0.26 3.457,0.613 1.449,-2.848 -5.175,-8.921 1.366,-9.847 7.902,-9.279 11.281,0.981 22.521,2.439 34.419,3.768 -3.486,-4.954 -9.012,-4.363 -12.586,-7.057 -4.531,-3.416 -13.967,-3.975 -11.425,-12.214 2.107,-6.83 9.939,-4.969 15.443,-4.388 8.462,0.894 16.791,3.002 25.199,4.466 28.879,5.026 56.752,12.942 81.99,28.435 5.957,3.657 11.601,7.876 17.752,11.154 6.055,3.227 11.399,7.535 17.023,11.391 -33.843,-46.035 -78.946,-69.815 -136.234,-69.6 -3.42,0.013 -8.576,3.396 -10.177,-1.807 -1.189,-3.866 3.019,-6.803 5.73,-9.543 9.266,-9.367 19.079,-18.247 27.765,-28.122 10.014,-11.385 22.755,-15.62 37.08,-17.006 2.597,-0.254 5.444,0.64 8.437,-2.214 z M 754.406,4301.55 c 0.78,0.909 1.561,1.817 2.341,2.726 27.308,-19.014 54.472,-38.239 81.957,-56.992 42.652,-29.101 84.622,-59.142 125.166,-91.106 38.333,-30.221 75.469,-61.878 112.667,-93.506 40.189,-34.172 79.698,-69.093 119.316,-103.885 49.556,-43.52 97.714,-88.639 147.54,-131.839 51.614,-44.75 101.393,-91.499 152.11,-137.213 54.159,-48.817 106.889,-99.235 159.772,-149.45 55.121,-52.34 109.941,-105.004 164.396,-158.036 37.756,-36.769 74.572,-74.5 111.993,-111.615 32.776,-32.509 66.27,-64.305 98.618,-97.231 44.875,-45.676 89.127,-91.967 133.357,-138.271 33.747,-35.33 67.166,-70.974 100.509,-106.685 39.417,-42.216 78.685,-84.571 117.848,-127.021 29.477,-31.951 57.942,-64.872 88.234,-96.022 28.066,-28.86 54.485,-59.213 82.304,-88.3 27.564,-28.82 54.082,-58.729 81.608,-87.643 34.771,-36.524 69.958,-72.651 104.933,-108.982 35.766,-37.153 70.51,-75.356 107.477,-111.272 48.693,-47.308 95.613,-96.41 145.604,-142.412 45.412,-41.788 90.381,-84.038 137.691,-123.713 11.167,-9.365 21.662,-19.531 32.466,-29.329 -13.773,3.991 -22.336,14.339 -32.843,22.123 -61.075,45.247 -115.416,98.212 -171.271,149.434 -13.993,12.832 -27.03,26.712 -41.095,39.459 -32.203,29.184 -65.127,57.577 -97.105,87.002 -48.532,44.658 -96.393,90.046 -144.757,134.888 -48.665,45.121 -95.449,92.146 -142.628,138.794 -52.71,52.117 -103.648,105.927 -155.17,159.176 -40.669,42.032 -80.447,84.929 -120.481,127.572 -32.149,34.245 -63.943,68.825 -96.154,103.012 -57.224,60.735 -114.399,121.52 -172.065,181.834 -42.627,44.584 -85.507,88.947 -129.168,132.513 -53.009,52.893 -105.177,106.617 -158.939,158.778 -42.828,41.552 -85.249,83.512 -128.469,124.677 -46.928,44.697 -96.353,86.621 -142.979,131.674 -36.687,35.45 -76.08,68.095 -114.143,102.128 -31.237,27.93 -62.192,56.176 -93.443,84.091 -47.693,42.604 -95.548,85.026 -143.306,127.556 -50.713,45.163 -101.327,90.438 -152.111,135.521 -38.266,33.969 -74.868,69.76 -114.792,101.943 -18.907,15.244 -37.285,31.252 -56.988,45.622 z M 2820.131,1599.023 c 38.177,-16.149 75.419,-16.879 112.753,-8.333 22.853,5.231 44.559,13.946 65.635,25.022 22.834,12.001 44.284,25.829 64.957,40.895 40.082,29.211 69.102,70.223 107.097,101.733 0.689,13.215 12.306,19.094 19.204,28.009 32.079,41.455 66.152,81.334 103.582,117.976 40.739,39.882 83.532,77.405 131.508,108.942 50.193,32.994 101.264,63.489 159.903,79.081 2.973,0.791 5.901,2.792 10.352,0.121 -19.056,-7.184 -37.392,-12.464 -53.841,-22.101 -29.406,-17.226 -59.638,-33.269 -87.762,-52.398 -31.732,-21.583 -60.636,-47.113 -89.578,-72.385 -50.782,-44.341 -93.876,-95.891 -137.337,-147.06 -33.651,-39.62 -66.869,-79.407 -106.262,-113.875 -32.588,-28.514 -65.892,-55.237 -104.761,-74.816 -43.872,-22.099 -89.13,-38.779 -139.052,-37.327 -21.203,0.619 -40.816,6.909 -56.398,26.516 z m 867.083,195.541 c -1.21,-1.842 -2.383,-3.709 -3.635,-5.522 -26.589,-38.476 -57.056,-73.86 -88.3,-108.49 -49.385,-54.738 -109.105,-93.797 -180.368,-114.231 -19.866,-5.696 -39.944,-4.27 -60.12,-0.923 22.075,8.08 44.284,14.629 66.585,20.85 48.914,13.645 92.655,36.964 131.718,69.356 34.462,28.576 65.074,60.761 93.271,95.513 12.383,15.266 24.294,31.164 40.849,43.447 z m 566.745,-555.211 c -9.03,-52.677 -28.677,-101.513 -51.542,-151.305 -5.917,11.527 -10.014,21.325 -18.992,27.583 -7.114,4.958 -6.509,9.479 -1.187,16.174 13.455,16.925 27.733,33.198 39.299,51.666 11.436,18.259 22.586,36.628 32.422,55.882 z M 4123.204,776.054 c -25.045,-5.155 -49.434,17.008 -52.402,32.08 -3.81,19.347 13.6,52.549 38.332,59.059 -17.954,-33.406 -16.659,-63.983 14.07,-91.139 z m -1232.191,897.864 c 0.106,-10.738 -9.892,-21.733 -19.859,-21.84 -11.03,-0.119 -19.608,9.28 -19.48,21.345 0.109,10.303 10.49,20.531 21.069,20.761 9.123,0.199 18.167,-9.834 18.27,-20.266 z M 4044.78,750.211 c 19.904,-12.44 22.079,-12.79 76.397,-13.211 -20.412,-15.708 -59.754,-12.916 -76.397,13.211 z"
   id="path2"
   style="fill:#ffffff;fill-opacity:1" />
	<path
   d="m 1513.699,1658.555 c 24.41,-12.577 49.371,-23.777 75.175,-32.816 46.959,-16.449 93.849,-21.275 139.754,3.932 4.665,2.562 11.259,4.201 10.439,10.918 -0.682,5.584 -7.106,4.925 -11.202,6.747 -33.607,14.954 -68.191,28.236 -94.407,56.553 5.467,-2.692 10.922,-5.407 16.403,-8.071 5.933,-2.885 12.011,-5.496 17.814,-8.62 24.104,-12.978 49.449,-22.24 76.384,-27.539 10.39,-2.044 20.062,-0.254 29.951,1.654 3.083,0.595 6.44,1.672 7.237,5.082 0.882,3.769 -2.783,5.139 -5.063,7.058 -15.725,13.236 -30.761,27.186 -44.32,42.665 -1.213,1.384 -2.791,2.755 -1.633,6.592 10.2,-8.81 20.009,-17.113 29.621,-25.639 7.545,-6.692 15.052,-13.454 22.167,-20.592 3.352,-3.363 6.278,-4.05 10.201,-1.558 5.305,3.371 11.251,6.884 11.915,13.437 0.489,4.825 -5.478,4.326 -8.852,5.786 -14.524,6.283 -25.855,16.934 -37.459,27.264 -23.753,21.148 -47.642,42.144 -71.447,63.235 -1.12,0.991 -1.965,2.292 -2.178,4.496 18.228,-11.596 38.408,-19.597 53.853,-36.164 5.469,-5.866 14.79,-9.389 21.59,-15.297 42.457,-36.886 84.588,-74.284 130.864,-106.362 47.499,-32.926 98.805,-58.548 155.164,-72.802 46.875,-11.856 94.679,-16.221 141.778,-4.476 38.66,9.64 66.052,35.159 78.921,73.892 9.147,27.529 9.52,54.89 -4.712,81.289 -20,37.098 -67.858,62.708 -102.711,51.645 -50.372,-15.989 -73.509,-58.572 -58.124,-109.586 -23.103,2.87 -43.302,12.062 -62.681,23.5 -33.852,19.98 -62.512,45.893 -86.286,77.051 -16.998,22.278 -30.83,46.454 -39.87,73.173 -3.229,9.542 -0.667,15.906 8.26,21.297 13.614,8.219 26.29,17.976 39.668,26.61 6.044,3.901 8.942,9.649 11.339,15.75 9.325,23.728 24.003,43.995 38.933,64.445 15.349,21.023 31.396,41.398 48.611,60.807 26.216,29.558 53.843,57.839 80.758,86.756 29.328,31.508 59.211,62.44 89.34,93.161 38.575,39.332 76.775,79.03 116.73,116.99 23.056,21.905 45.649,44.296 68.593,66.32 2.39,2.295 4.775,5.136 8.775,5.6 3.081,-3.711 1.668,-8.135 1.662,-12.173 -0.043,-28.972 3.764,-58.032 3.246,-86.638 -0.46,-25.377 9.544,-37.931 29.375,-47.693 5.435,-2.675 8.449,-7.313 11.446,-15.635 -10.133,7.846 -17.745,14.084 -25.74,19.786 -4.034,2.877 -9.585,9.775 -13.283,4.368 -2.775,-4.058 -1.761,-13.127 5.112,-17.358 5.615,-3.457 11.718,-6.189 17.037,-10.03 3.116,-2.25 7.976,-3.513 8.298,-9.597 -7.616,0.076 -11.405,6.239 -16.785,9.312 -3.743,2.138 -7.663,7.852 -11.797,2.179 -4.299,-5.898 -1.356,-11.427 4.957,-14.118 9.67,-4.121 18.185,-10.023 27.006,-15.547 3.48,-2.18 6.32,-3.775 3.753,-7.773 -2.374,-3.699 -5.529,-1.435 -8.045,0.371 -5.35,3.84 -10.594,7.829 -15.834,11.819 -4.198,3.197 -8.957,4.673 -12.034,-0.434 -2.867,-4.757 0.639,-7.645 5.225,-9.51 9.719,-3.953 18.449,-9.689 26.905,-15.825 2.15,-1.56 5.099,-3.615 2.958,-6.519 -2.199,-2.983 -4.695,-0.561 -6.973,1.014 -5.72,3.954 -11.416,7.979 -17.405,11.492 -3.101,1.819 -7.344,5.719 -10.318,1.638 -3.292,-4.518 1.128,-7.781 4.776,-10.098 8.5,-5.398 17.088,-10.663 25.737,-15.82 2.711,-1.616 5.582,-2.93 6.379,-6.318 0.537,-2.283 0.901,-4.753 -1.048,-6.554 -1.716,-1.587 -3.591,-0.585 -5.346,0.305 -6.204,3.148 -12.674,5.642 -18.037,10.493 -2.759,2.495 -7.489,7.208 -10.801,2.898 -3.884,-5.054 1.985,-8.683 5.667,-10.808 7.351,-4.241 15.374,-7.298 22.954,-11.168 3.061,-1.563 9.032,-1.928 6.52,-7.477 -2.148,-4.744 -7.425,-4.236 -11.291,-2.367 -4.111,1.988 -7.569,5.331 -11.301,8.098 -3.417,2.533 -7.68,6.571 -11.076,2.228 -3.747,-4.792 1.879,-7.952 5.294,-9.386 7.841,-3.294 13.628,-12.028 24.249,-8.615 4.381,1.408 5.675,-3.577 6.017,-6.913 0.71,-6.934 0.903,-13.935 1.006,-20.913 0.705,-47.769 1.573,-95.538 1.864,-143.31 0.114,-18.616 -1.296,-37.237 -1.661,-55.862 -0.13,-6.667 -2.687,-9.811 -9.458,-10.517 -5.884,-0.613 -11.563,-0.429 -17.375,0.45 -4.272,0.646 -11.05,3.019 -11.387,-3.384 -0.333,-6.317 6.802,-4.514 11.084,-4.793 5.403,-0.351 10.968,-0.863 16.24,0.021 9.002,1.509 10.726,-2.165 10.013,-10.281 -1.261,-14.361 -0.923,-14.499 -14.509,-9.719 -3.589,1.263 -6.747,3.75 -10.335,5.019 -3.227,1.142 -6.785,1.919 -10.174,1.843 -2.436,-0.055 -2.578,-2.777 -1.405,-4.507 4.115,-6.072 -10.56,-13.865 1.457,-18.678 7.292,-2.921 13.931,-8.95 22.96,-6.151 2.002,0.62 4.734,0.579 7.382,-3.987 -9.413,-0.179 -17.633,-1.898 -25.82,2.094 -2.882,1.405 -6.035,2.929 -8.452,-0.174 -2.466,-3.167 -0.25,-5.885 2.13,-8.051 2.939,-2.673 5.098,-3.575 -0.629,-6.792 -6.643,-3.731 -4.833,-16.448 2.133,-20.248 8.918,-4.864 18.152,-9.148 27.25,-13.682 -0.459,-0.973 -0.918,-1.945 -1.377,-2.918 -7.372,3.231 -14.656,6.684 -22.138,9.638 -9.109,3.597 -8.685,1.37 -10.151,-7.575 -2.334,-14.245 -1.968,-28.318 -2.502,-42.505 -1.167,-31.01 -2.753,-62.005 -4.292,-93.001 -3.446,-69.391 -5.967,-138.815 -10.904,-208.147 -3.337,-46.855 -6.561,-93.671 -12.447,-140.279 -0.292,-2.311 -0.8,-4.609 -0.917,-6.927 -0.666,-13.129 -7.302,-17.98 -20.604,-18.873 -41.509,-2.786 -82.056,-11.946 -122.792,-20.052 -27.336,-5.44 -53.993,-14.376 -82.098,-16.195 -6.898,-0.446 -12.217,0.412 -16.382,5.997 -19.224,25.778 -32.228,28.758 -59.378,13.611 -41.785,-23.313 -45.182,-85.393 -6.166,-112.694 16.81,-11.763 23.907,-10.951 36.09,5.225 6.639,8.814 15.084,15.38 24.094,21.727 -5.802,-8.375 -11.338,-16.829 -15.723,-25.939 -5.26,-10.928 -2.191,-15.531 9.919,-13.953 12.061,1.571 23.128,6.624 33.719,12.354 43.597,23.587 89.72,37.381 139.635,33.776 30.605,-2.21 60.327,-10.008 89.533,-19.437 5.302,-1.712 7.28,-4.502 7.437,-10.997 0.456,-18.807 -4.916,-36.963 -4.814,-55.66 0.098,-18.08 2.503,-21.974 20.602,-24.501 15.873,-2.216 30.79,-7.086 47.527,-12.916 -5.278,-2.797 -8.637,-1.008 -11.958,0.048 -13.371,4.251 -27.062,6.894 -40.963,8.74 -9.109,1.21 -14.198,-2.026 -15.222,-11.35 -0.844,-7.695 -2.111,-15.2 -0.583,-23.127 3.379,-17.52 6.864,-21.204 24.712,-23.071 21.453,-2.244 41.756,-8.638 61.444,-17.162 3.378,-1.462 6.48,-3.564 9.334,-6.149 -18.628,5.413 -37.093,10.828 -55.658,15.953 -32.869,9.074 -43.474,0.009 -37.15,-33.306 3.401,-17.918 8.024,-21.835 27.556,-23.303 20.482,-1.54 38.91,-9.793 57.404,-18.114 -13.005,1.536 -25.154,6.751 -38.006,8.979 -8.426,1.461 -16.938,2.203 -25.264,3.684 -12.305,2.188 -15.5,-3.964 -15.45,-13.854 0.045,-8.901 0.518,-17.889 1.897,-26.667 1.364,-8.686 8.372,-12.301 16.071,-15.087 15.511,-5.614 32.553,-6.594 46.754,-16.444 -13.073,3.129 -26.15,6.239 -39.217,9.392 -13.411,3.237 -17.582,0.441 -16.93,-13.269 0.62,-13.034 0.112,-26.582 8.422,-38.001 1.805,-2.48 1.324,-5.022 0.971,-7.778 -2.155,-16.798 -0.158,-33.402 3.898,-49.629 1.401,-5.607 -0.369,-7.168 -4.486,-9.747 -32.033,-20.068 -56.619,-46.175 -64.981,-84.366 -11.421,-52.164 9.411,-107.618 61.767,-129.329 6.083,-2.523 12.201,-5.018 18.461,-7.035 3.4,-1.096 7.393,-1.028 8.889,3.169 1.593,4.466 -1.738,6.18 -5.279,7.423 -20.182,7.085 -31.68,24.091 -44.593,39.748 12.318,-10.987 26.161,-19.148 41.739,-24.23 5.533,-1.805 11.149,-3.37 16.623,-5.336 11.47,-4.12 24.876,-4.803 31.157,-19.138 -0.641,-1.897 -7.467,-2.331 -5.397,-7.196 2.014,-4.733 7.255,-3.584 11.393,-3.767 46.784,-2.07 81.605,19.18 103.618,58.713 25.247,45.341 22.521,90.921 -8.598,133.508 -10.626,14.542 -23.348,27.407 -39.33,35.837 -9.969,5.258 -8.397,11.76 -5.192,19.231 6.073,14.159 11.138,29.145 8.036,44.104 -3.136,15.125 0.566,27.237 6.67,40.509 5.434,11.815 5.422,25.269 -1.622,37.097 -2.933,4.924 -1.113,7.891 1.359,11.454 11.114,16.017 13.768,32.716 3.884,50.321 -2.602,4.634 -0.201,8.057 2.088,11.773 9.152,14.856 12.091,30.153 2.625,46.068 -3.03,5.094 -1.195,9.566 0.996,14.318 7.994,17.34 11.569,34.633 -0.701,51.829 -3.342,4.684 -1.973,10.241 0.817,14.362 10.255,15.152 8.828,30.996 3.273,46.92 -3.878,11.118 -1.195,16.36 10.514,20.467 38.333,13.443 77.409,22.912 117.962,25.377 37.901,2.304 73.046,-7.326 105.781,-26.376 11.702,-6.81 23.65,-13.202 35.574,-19.622 3.406,-1.834 7.545,-3.925 10.607,-0.052 2.617,3.31 -0.073,6.599 -2.045,9.493 -4.775,7.005 -9.597,13.978 -14.856,21.628 5.041,1.927 7.751,-1.631 10.552,-4.277 6.491,-6.132 12.85,-12.408 19.205,-18.682 9.997,-9.87 23.337,-11.178 34.561,-2.583 21.77,16.669 31.004,39.128 25.23,65.727 -5.601,25.798 -20.747,45.371 -47.229,52.725 -15.395,4.275 -31.339,4.525 -41.552,-11.571 -9.906,-15.611 -24.768,-10.854 -37.558,-8.069 -55.746,12.137 -111.516,23.952 -168.294,30.175 -9.233,1.012 -18.644,0.861 -27.952,0.572 -8.004,-0.248 -11.722,2.509 -13.012,10.911 -4.893,31.855 -8.13,63.901 -10.427,95.986 -6.655,92.954 -9.495,186.088 -12.917,279.21 -2.326,63.3 -3.033,126.584 -4.42,189.88 -1.32,60.223 0.026,120.495 -2.313,180.644 -2.69,69.169 -0.723,138.314 -2.088,207.452 -1.081,54.766 -3.22,109.527 -1.866,164.302 0.338,13.662 -7.547,21.794 -15.952,29.567 -35.658,32.977 -66.904,70.344 -102.967,102.894 -0.863,0.779 -1.681,1.628 -2.405,2.537 -12.085,15.181 -12.169,15.273 -26.426,1.092 -42.124,-41.9 -83.754,-84.307 -126.361,-125.709 -48.714,-47.338 -98.138,-93.948 -147.507,-140.607 -31.019,-29.316 -62.074,-58.621 -93.869,-87.085 -62.148,-55.639 -123.932,-111.733 -190.146,-162.625 -3.189,-2.451 -6.117,-5.812 -11.861,-5.965 17.714,16.441 33.932,33.119 51.845,47.717 23.44,19.103 44.89,40.333 67.153,60.644 36.861,33.629 72.79,68.342 107.966,103.737 31.993,32.191 64.785,63.574 95.633,96.963 31.816,34.436 65.867,66.8 98.718,100.287 44.558,45.422 88.924,91.033 133.33,136.605 10.521,10.797 10.445,11.31 -0.132,22.233 -44.561,46.021 -87.408,93.689 -133.14,138.582 -11.932,11.713 -11.274,10.948 -22.57,-1.228 -19.281,-20.785 -37.867,-42.162 -56.715,-63.321 -29.406,-33.01 -58.891,-65.961 -88.93,-98.393 -32.17,-34.734 -65.001,-68.857 -97.578,-103.213 -24.537,-25.877 -48.07,-52.825 -73.991,-77.236 -26.236,-24.708 -49.549,-52.298 -77.765,-75.139 -21.918,-17.744 -41.16,-38.757 -63.941,-55.728 -29.124,-21.697 -59.745,-40.158 -94.771,-51.081 -18.064,-5.634 -36.833,-4.777 -55.071,-8.566 -8.494,-1.765 -9.843,-4.467 -8.918,-12.157 2.646,-22 4.831,-44.104 -3.435,-65.582 -1.665,-4.328 -3.239,-8.7 -5.124,-12.932 -2.462,-5.53 -5.456,-5.006 -9.824,-1.361 -54.001,45.061 -115.858,74.464 -183.734,91.847 -46.854,12 -93.728,13.028 -140.37,-0.47 -51.605,-14.934 -92.371,-43.936 -115.209,-93.974 -10.353,-22.683 -18.344,-46.297 -12.311,-72.1 2.541,-10.869 6.195,-12.366 14.788,-5.1 15.689,13.266 30.526,27.446 48.704,37.682 50.388,28.374 104.18,33.004 159.048,20.142 42.588,-9.983 79.289,-33.112 112.02,-62.127 6.089,-5.398 11.414,-11.729 17.83,-16.67 9.158,-7.05 7.847,-13.428 0.41,-20.46 -15.543,-14.696 -29.241,-31.091 -43.424,-47.051 -5.462,-6.146 -12.543,-10.536 -21.16,-11.17 -7.383,-0.544 -12.348,-4.7 -12.251,-11.582 0.176,-12.568 -7.238,-19.882 -15.738,-26.89 -6.885,-5.677 -13.876,-11.226 -20.856,-16.787 -4.997,-3.981 -9.987,-4.263 -16.228,-1.903 -57.446,21.72 -112.792,48.153 -168.527,73.782 -48.692,22.39 -98.88,41.093 -151.021,54.012 -29.823,7.389 -56.932,19.008 -73.505,46.772 -13.222,22.15 -18.831,46.145 -11.903,71.529 4.941,18.105 15.551,32.087 34.862,37.207 16.8,4.454 34.667,-3.857 41.84,-19.239 7.133,-15.298 1.847,-32.482 -13.363,-42.552 -4.516,-2.99 -9.647,-5.046 -14.191,-8 -7.439,-4.837 -7.324,-11.243 0.595,-15.066 4.438,-2.142 9.622,-3.374 14.564,-3.742 66.926,-4.976 108.73,52.62 90.115,110.39 -12.282,38.116 -39.875,60.248 -78.058,69.188 -51.342,12.022 -94.008,-4.247 -125.699,-45.047 -29.078,-37.436 -33.902,-80.726 -20.981,-126.007 7.565,-26.511 19.924,-50.465 39.425,-70.285 4.906,-4.986 3.148,-7.635 -2.054,-10.506 -66.457,-36.681 -115.236,-92.064 -159.882,-151.708 -52.234,-69.783 -89.536,-147.06 -113.184,-230.786 -13.718,-48.571 -23.49,-97.857 -26.22,-148.635 -2.425,-45.121 -3.309,-90.154 1.303,-134.986 3.806,-36.996 11.016,-73.564 21.264,-109.52 15.712,-55.131 38.218,-107.36 65.594,-157.519 8.704,-15.947 20.124,-30.389 29.404,-46.052 7.521,-12.694 7.122,-13.68 -6.947,-18.075 -28.717,-8.971 -54.072,-23.71 -75.864,-44.118 -50.843,-47.614 -71.036,-105.475 -50.434,-173.073 19.3,-63.323 62.103,-107.956 122.796,-133.569 24.945,-10.527 52.395,-14.294 80.038,-10.285 11.449,1.66 23.434,-0.296 34.32,5.227 2.314,1.174 5.93,1.116 5.528,4.767 -0.371,3.36 -3.82,3.831 -6.339,4.063 -8.498,0.782 -17.24,0.117 -25.526,1.795 -52.366,10.603 -98.109,33.458 -129.143,78.274 -15.751,22.746 -28.953,47.752 -31.667,76.555 7.492,-16.416 11.485,-34.372 21.743,-49.571 10.282,-15.233 22.81,-28.367 36.67,-40.327 13.748,-11.864 26.266,-26.058 47.498,-24.223 -14.917,15.318 -39.171,21.599 -44.371,48.288 6.313,-5.37 11.129,-9.86 16.374,-13.777 3.074,-2.296 6.94,-4.238 10.899,-2.647 5.497,2.21 -0.457,6.815 1.373,9.946 0.61,-0.103 1.013,-0.106 1.367,-0.24 5.042,-1.9 10.97,-9.891 14.555,-4.809 3.324,4.713 -4.405,10.302 -9.001,14.256 -5.466,4.701 -11.88,8.426 -15.04,15.483 10.604,-7.289 23.151,-11.673 31.432,-22.249 2.004,-2.559 4.456,-6.754 8.395,-3.713 3.905,3.015 2.042,6.826 -0.574,10.23 -1.314,1.711 -2.06,3.858 -3.686,7.018 8.93,-0.683 13.794,-6.45 18.888,-10.312 30.216,-22.905 64.399,-26.945 100.641,-23.308 6.259,0.628 14.666,4.941 18.588,-1.031 4.231,-6.442 -1.623,-14.031 -4.224,-20.769 -2.139,-5.541 -6.371,-9.666 -11.24,-13.095 -2.562,-1.805 -5.668,-3.994 -3.58,-7.5 2.323,-3.898 6.172,-2.592 9.289,-0.832 28.292,15.982 52.176,36.202 65.427,67.001 16.797,39.042 16.47,78.995 6.271,121.075 25.082,-12.039 50.064,-19.368 76.256,-23.199 41.771,-6.11 83.421,-8.561 125.18,-0.491 2.661,0.514 5.313,1.176 7.885,2.023 2.265,0.747 4.414,1.996 4.136,4.858 -0.273,2.815 -2.592,3.771 -4.929,4.12 -6.525,0.973 -13.078,1.763 -19.625,2.584 -52.05,6.529 -102.416,18.283 -147.181,47.418 -1.22,0.794 -2.357,1.714 -3.104,3.581 14.487,-4.886 28.546,-10.662 43.123,-15.132 40.324,-12.364 81.342,-20.027 123.395,-21.849 58.501,-2.535 116.454,3.513 173.756,14.517 50.123,9.626 97.97,26.963 144.365,48.212 49.324,22.59 94.336,52.143 137.352,84.942 52.234,39.826 97.115,86.86 134.854,140.433 32.725,46.455 55.371,97.943 69.111,153.042 4.197,16.828 6.471,34.212 11.115,50.989 5.868,21.198 16.625,38.879 39.43,44.917 16.109,4.266 31.078,0.943 42.213,-12.457 11.277,-13.573 10.014,-28.992 3.996,-44.048 -4.356,-10.898 -14.321,-14.653 -25.415,-15.521 -3.075,-0.241 -6.216,0.085 -9.251,-0.362 -7.623,-1.123 -8.68,-4.703 -4.635,-11.251 10.246,-16.587 34.659,-27.235 55.917,-23.584 65.195,11.196 93.806,82.269 59.673,133.909 -20.847,31.539 -45.964,55.181 -83.093,64.379 -43.469,10.768 -82.357,-0.416 -117.123,-26.78 -8.476,-6.427 -14.574,-6.596 -22.851,-1.583 -37.971,22.995 -73.009,49.734 -104.593,80.961 -5.461,5.399 -10.956,10.766 -16.434,16.148 5.283,4.986 11.188,9.466 15.725,15.057 11.402,14.049 17.561,30.974 24.043,47.569 2.978,7.623 -0.707,10.633 -8.143,7.347 -14.758,-6.523 -30.731,-8.592 -46.242,-10.958 -49.908,-7.612 -94.363,7.896 -134.91,36.126 -9.97,6.945 -21.338,12.195 -29.267,22.092 z M 709.22,1439.96 c 2.589,33.529 11.087,66.07 20.372,98.392 8.259,28.749 21.657,55.512 32.827,83.14 17.951,44.398 43.855,83.923 71.102,122.414 28.511,40.279 63.517,75.326 101.501,106.929 17.762,14.778 36.42,28.524 60.016,34.013 50.968,11.855 95.884,-3.342 138.139,-29.94 29.176,-18.365 52.896,-43.024 74.848,-69.38 18.356,-22.039 36.677,-44.108 54.897,-66.26 13.576,-16.506 28.266,-31.966 43.37,-47.054 4.149,-4.145 7.291,-7.751 0.902,-13.31 -39.018,-33.949 -73.175,-72.714 -106.449,-112.012 -49.336,-58.267 -96.371,-118.423 -139.694,-181.427 -34.068,-49.544 -69.268,-98.308 -103.884,-147.476 -20.311,-28.849 -40.695,-57.652 -60.526,-86.831 -5.017,-7.382 -7.785,-7.054 -13.502,-0.789 -27.838,30.506 -52.651,63.268 -73.015,99.146 -37.291,65.701 -52.939,137.554 -54.081,212.162 -0.729,47.634 3.423,95.417 18.648,141.341 1.053,3.177 3.191,7.634 -0.903,9.273 -4.249,1.7 -6.705,-2.502 -8.71,-5.945 -26.586,-45.671 -44.95,-94.433 -55.858,-146.386 z m 357.318,-436.793 c 10.902,-0.641 21.821,-3.08 29.469,2.729 14.684,11.154 30.749,21.117 41.423,36.935 1.714,2.54 4.865,4.594 3.452,8.047 -1.646,4.022 -5.739,3.692 -9.125,3.443 -15.742,-1.16 -30.959,2.527 -46.155,5.39 -12.157,2.29 -23.813,6.833 -36.123,16.427 11.941,-0.669 19.138,-6.66 27.518,-7.355 25.513,-2.116 51.213,-4.899 76.555,0.218 8.069,1.629 20.736,0.886 19.62,15.733 -0.204,2.713 3.132,3.013 5.107,4.057 15.633,8.266 28.586,19.934 40.94,32.341 2.443,2.453 5.523,5.219 3.802,9.04 -1.696,3.768 -5.827,3.486 -9.273,3.337 -15.683,-0.68 -30.928,2.039 -46.189,5.213 -26.771,5.568 -47.51,20.56 -65.183,40.71 14.05,-10.033 29.95,-16.161 46.002,-21.542 16.543,-5.546 33.541,-10.01 51.003,-11.562 19.319,-1.716 39.569,-1.47 53.037,14.2 13.795,16.051 33.017,25.5 46.167,41.935 2.591,3.238 7.433,4.944 5.617,10.21 -1.773,5.143 -6.515,4.926 -10.773,4.86 -24.422,-0.379 -46.571,7.269 -67.257,19.476 -19.161,11.307 -35.213,26.032 -46.897,45.204 10.606,-4.835 17.539,-14.338 27.578,-20.086 23.836,-13.649 49.923,-21.309 75.608,-29.996 10.156,-3.435 20.791,-7.261 31.917,-4.4 4.102,1.055 8.846,3.247 8.739,8.15 -0.134,6.146 -5.775,4.903 -9.829,5.36 -7.209,0.813 -14.917,-1.474 -21.562,3.307 10.927,0.969 21.771,1.147 32.606,0.916 9.843,-0.21 13.081,5.022 12.4,13.948 -0.196,2.568 -1.958,5.216 0.806,8.172 10.707,-4.639 19.549,-2.814 27.105,7.408 3.996,5.405 10.832,8.655 16.166,13.14 8.31,6.987 16.492,14.132 24.594,21.36 1.976,1.763 4.2,3.996 3.039,7.03 -1.194,3.12 -4.096,2.908 -6.934,2.758 -36.231,-1.92 -69.977,5.935 -101.106,25.01 -18.521,11.349 -40.79,35.475 -45.455,51.147 2.005,-1.813 3.488,-3.012 4.809,-4.37 38.458,-39.546 85.914,-56.884 140.385,-56.806 8.752,0.013 16.907,2.321 24.007,7.685 2.556,1.931 4.797,4.149 4.394,7.696 -0.514,4.52 -4.522,3.192 -7.208,4.2 -5.651,2.122 -12.636,0.805 -19.175,7.246 10.268,-0.417 17.913,-2.953 26.259,-1.79 29.801,4.154 40.676,29.585 56.873,49.015 2.099,2.518 1.234,7.217 -3.285,6.22 -12.771,-2.818 -24.6,1.819 -36.828,3.352 -44.307,5.555 -76.242,30.628 -102.655,64.559 26.134,-19.033 53.813,-34.803 85.276,-43.486 20.373,-5.623 41.189,-7.52 62.076,-9.072 6.627,-0.493 19.521,10.482 19.245,15.882 -0.367,7.179 -7.29,3.91 -10.756,6.236 -0.45,0.302 -0.439,1.291 -0.826,2.574 2.767,0.241 5.497,1.032 8.024,0.609 17.742,-2.972 28.345,7.579 37.448,20.113 6.369,8.77 4.1,13.642 -6.555,16.772 -4.458,1.31 -9.041,2.25 -13.408,3.806 -32.959,11.742 -59.124,33.832 -84.477,56.764 -16.735,15.137 -33.313,30.682 -47.79,52.341 3.757,-2.806 5.06,-3.59 6.136,-4.611 26.893,-25.513 57.74,-45.641 88.694,-65.702 25.619,-16.603 53.179,-29.743 76.64,-50.27 64.921,-56.799 140.492,-95.117 222.484,-120.702 14.27,-4.453 16.719,-5.594 14.747,-23.287 -3.136,-28.133 -8.326,-56.003 -16.587,-83.153 -13.778,-45.282 -34.628,-87.09 -62.354,-125.478 -31.143,-43.118 -68.263,-80.448 -111.135,-111.698 -38.636,-28.163 -79.827,-52.132 -124.749,-69.265 -57.351,-21.872 -116.439,-36.658 -177.691,-40.592 -63.557,-4.083 -126.524,0.962 -187.712,20.139 -23.598,7.396 -46.206,17.255 -68.814,31.374 12.758,3.728 23.642,7.496 31.291,17.021 6.423,7.999 5.748,11.752 -3.478,15.349 -4.33,1.69 -8.631,3.318 -11.714,9.059 z m 1116.657,594.464 c -16.845,-16.065 -33.868,-24.503 -54.036,-25.383 -32.253,-1.407 -63.312,5.442 -93.432,16.148 -58.834,20.913 -108.889,55.908 -153.715,98.666 -43.023,41.037 -81.149,86.533 -118.908,132.351 -45.047,54.662 -94.596,105.052 -149.541,149.681 -62.244,50.558 -127.947,95.94 -204.531,122.921 -0.404,0.142 -0.54,1.043 -1.073,2.16 2.651,-0.185 5.051,0.083 7.17,-0.567 31.173,-9.556 61.995,-19.823 91.089,-35.033 49.131,-25.686 93.044,-58.894 136.556,-92.738 8.128,-6.322 15.223,-14.743 23.024,-20.549 23.427,-17.438 43.732,-37.924 63.753,-58.686 44.235,-45.871 81.498,-97.715 123.031,-145.948 38.872,-45.143 82.71,-83.862 133.57,-114.711 60.552,-36.728 124.052,-53.892 197.043,-28.312 z m -866.383,199.604 c 5.637,-2.256 8.628,-6.827 12.009,-11.006 29.528,-36.492 60.181,-71.888 93.957,-104.658 52.482,-50.919 112.71,-86.716 185.091,-101.006 14.792,-2.921 29.086,-8.362 43.61,-12.641 -0.139,-1.039 -0.279,-2.078 -0.418,-3.117 -12.109,3.713 -23.114,-3.624 -35.072,-1.958 -21.631,3.013 -42.488,8.815 -62.856,16.6 -45.69,17.464 -83.847,46.368 -119.55,78.895 -19.704,17.951 -37.616,37.432 -54.285,58.455 -21.114,26.626 -42.321,53.162 -62.486,80.436 z m 1178.675,322.562 c 1.165,0 2.33,10e-4 3.495,10e-4 0,-251.569 0,-503.139 0,-754.708 -3.495,251.568 -5.364,503.137 -3.495,754.707 z M 748.033,1246.755 c 10.625,-24.657 24.74,-47.123 40.602,-68.556 11.965,-16.168 23.928,-32.337 35.815,-48.562 2.553,-3.485 5.521,-7.509 0.042,-10.806 -10.775,-6.485 -17.17,-16.211 -21.036,-28.83 -21.175,52.199 -43.632,102.535 -55.423,156.754 z M 891.251,870.411 c 14.368,-6.839 26.54,-16.007 35.598,-29.035 4.91,-7.062 8.654,-14.367 10.191,-23.076 3.994,-22.634 -26.163,-47.257 -53.903,-42.621 24.344,19.961 34.3,61.973 8.114,94.732 z m 1694.377,301.584 c -67.04,-24.504 -134.189,-28.391 -201.2,-0.819 33.357,-2.047 65.816,-11.134 99.918,-10.563 34.339,0.574 67.915,4.047 101.282,11.382 z m -450.212,521.041 c 9.588,-0.182 16.34,-10.11 15.778,-23.201 -0.401,-9.326 -10.514,-18.267 -20.63,-18.238 -9.446,0.027 -18.32,10.208 -17.887,20.521 0.42,9.98 12.521,21.112 22.739,20.918 z m 398.563,-1098.37 c -22.525,-20.173 -57.341,-23.601 -86.045,1.638 -17.288,15.2 -32.432,61.063 -14.218,78.564 -9.272,-30.807 -1.977,-54.864 22.452,-74.168 24.875,-19.657 50.561,-17.92 77.811,-6.034 z m -120.743,631.727 c 64.636,-13.922 129.149,-12.048 193.567,1.942 -64.366,-20.587 -128.889,-21.102 -193.567,-1.942 z M 885.721,737.487 c 27.823,-1.191 53.917,-4.246 74.494,16.906 -13.969,-28.678 -35.634,-39.329 -74.494,-16.906 z m 2010.678,464.036 c -6.786,-19.385 -21.036,-25.493 -37.22,-29.033 -15.151,-3.314 -27.047,0.728 -33.984,11.309 54.891,-1.607 47.028,3.434 71.204,17.724 z m -717.01,-19.693 c -28.108,-20.258 -68.155,-9.436 -72.012,18.817 19.264,-23.513 43.962,-22.207 72.012,-18.817 z m 262.352,53.191 c 45.01,-3.663 89.893,-0.651 134.723,4.397 -44.546,-11.432 -89.582,-8.711 -134.723,-4.397 z"
   id="path3"
   style="fill:#ffffff;fill-opacity:1" />
	<path
   d="m 4220.657,4284.271 c -14.708,-11.346 -27.288,-24.925 -41.108,-37.148 -22.075,-19.525 -44.156,-39.045 -66.166,-58.645 -54.193,-48.26 -108.236,-96.691 -162.566,-144.796 -26.718,-23.656 -54.66,-46.195 -80.478,-70.553 -44.306,-41.801 -90.123,-81.858 -135.062,-122.906 -39.239,-35.84 -79.512,-70.548 -118.746,-106.394 -54.439,-49.736 -108.831,-99.543 -162.329,-150.284 -61.389,-58.224 -122.133,-117.144 -182.461,-176.468 -32.348,-31.809 -63.125,-65.211 -94.821,-97.69 -24.085,-24.68 -48.745,-48.801 -72.695,-73.609 -21.004,-21.757 -41.36,-44.138 -62.031,-66.217 -34.725,-37.088 -69.777,-73.875 -104.136,-111.298 -45.375,-49.422 -91.436,-98.214 -135.634,-148.723 -21.942,-25.075 -44.986,-49.201 -67.957,-73.352 -5.083,-5.345 -6.025,-9.901 -1.345,-15.066 6.722,-7.419 12.22,-15.994 20.761,-21.76 2.803,-1.892 5.678,-4.487 7.117,-7.443 4.894,-10.054 10.451,-8.602 16.949,-1.842 34.434,35.823 67.057,73.293 100.373,110.135 20.291,22.438 41.259,44.262 61.7,66.567 23.578,25.727 46.709,51.865 70.396,77.491 40.023,43.298 80.119,86.527 120.575,129.43 35.668,37.825 72.265,74.759 107.741,112.775 39.18,41.986 80.157,82.3 120.525,123.17 32.986,33.396 66.049,66.722 99.403,99.749 41.942,41.531 84.143,82.8 126.371,124.04 30.794,30.074 61.608,60.133 92.79,89.803 29.484,28.054 59.781,55.257 89.147,83.432 50.117,48.085 101.22,95.099 152.348,142.094 54.239,49.856 108.213,100 162.587,149.707 39.759,36.346 79.304,72.972 120.149,108.073 60.917,52.35 120.855,106.113 185.888,153.272 50.789,36.83 100.531,75.592 156.323,105.137 0.682,0.361 1.365,0.79 1.907,1.329 2.865,2.849 11.585,0.967 8.862,7.382 -2.008,4.731 -8.945,3.131 -13.818,1.24 -29.009,-11.254 -59.257,-18.361 -89.135,-26.703 -85.995,-24.011 -171.336,-50.243 -255.518,-79.91 -76.911,-27.105 -151.837,-59.104 -224.734,-95.987 -68.967,-34.894 -136.622,-72.005 -201.608,-113.76 -49.608,-31.873 -98.054,-65.533 -146.138,-99.716 -54.395,-38.669 -106.543,-80.212 -159.197,-121.138 -47.186,-36.677 -92.475,-75.635 -138.307,-113.926 -27.547,-23.014 -53.042,-48.465 -80.103,-72.083 -43.213,-37.716 -83.942,-78.083 -125.748,-117.283 -39.029,-36.596 -77.342,-74.001 -114.525,-112.545 -33.943,-35.185 -69.24,-69.062 -103.301,-104.136 -39.194,-40.359 -78.925,-80.202 -116.935,-121.714 -24.064,-26.281 -49.501,-51.291 -74.214,-76.952 -16.289,-16.914 -32.031,-34.539 -47.598,-52.205 -29.512,-33.491 -60.482,-65.56 -92.95,-97.833 -2.964,9.254 -3.448,18.313 -3.555,27.283 -0.686,57.106 -1.273,114.284 -3.665,171.272 -2.75,65.529 -2.492,131.199 -7.988,196.635 -1.948,23.186 -1.292,46.569 -2.01,69.856 -1.998,64.814 -6.424,129.506 -8.484,194.327 -2.39,75.22 -8.571,150.316 -12.773,225.485 -2.124,37.985 -3.186,76.03 -5.32,114.014 -2.482,44.171 -6.22,88.276 -8.271,132.463 -1.656,35.693 -4.599,71.255 -7.398,106.854 -2.769,35.214 -7.364,70.302 -7.765,105.697 -0.042,3.68 0.191,9.165 -5.214,8.607 -5.008,-0.518 -5.553,-6.026 -5.942,-10.228 -2.543,-27.438 -5.184,-54.873 -7.271,-82.348 -4.703,-61.903 -10.376,-123.773 -13.142,-185.769 -1.626,-36.455 -3.7,-72.915 -6.182,-109.269 -3.252,-47.635 -2.902,-95.445 -7.955,-142.971 -2.051,-19.292 -1.362,-38.769 -2.573,-58.172 -2.755,-44.156 -3.703,-88.424 -5.493,-132.642 -3.109,-76.807 -5.542,-153.653 -9.795,-230.398 -1.935,-34.917 -1.471,-69.843 -3.501,-104.758 -3.942,-67.811 -2.908,-135.837 -7.255,-203.66 -0.365,-5.703 1.488,-10.463 5.449,-14.792 35.758,-39.072 70.795,-78.823 107.25,-117.23 27.991,-29.489 53.774,-60.939 82.336,-89.923 20.677,-20.982 39.58,-43.708 59.357,-65.582 10.424,-11.529 12.141,-11.532 22.649,-0.05 28.822,31.494 57.28,63.327 86.419,94.523 44.177,47.297 88.801,94.176 133.247,141.22 38.914,41.189 77.395,82.799 116.895,123.418 38.385,39.47 77.23,78.538 117.061,116.538 18.517,17.666 36.338,36.034 55.084,53.479 41.358,38.488 82.042,77.7 123.023,116.594 31.533,29.927 62.765,60.182 94.729,89.643 47.353,43.643 95.25,86.695 142.89,130.028 47.92,43.587 95.691,87.338 143.741,130.781 56.414,51.006 112.396,102.496 170.674,151.416 44.294,37.183 87.308,75.93 132.332,112.193 42.582,34.295 86.062,67.549 131.296,98.427 19.23,13.128 37.559,27.586 57.369,39.903 2.537,1.578 4.773,4.029 9.203,2.395 z"
   id="path4"
   style="fill:#ffffff;fill-opacity:1" />
</g>
</svg>
