<?xml version="1.0" encoding="UTF-8" standalone="no"?>
<!-- Generator: Adobe Illustrator 27.5.0, SVG Export Plug-In . SVG Version: 6.00 Build 0)  -->

<svg
   version="1.1"
   id="Layer_1"
   x="0px"
   y="0px"
   viewBox="0 0 20 20"
   xml:space="preserve"
   sodipodi:docname="volume_ink.svg"
   width="20"
   height="20"
   inkscape:version="1.4.2 (f4327f4, 2025-05-13)"
   inkscape:export-filename="volume.svg"
   inkscape:export-xdpi="96"
   inkscape:export-ydpi="96"
   xmlns:inkscape="http://www.inkscape.org/namespaces/inkscape"
   xmlns:sodipodi="http://sodipodi.sourceforge.net/DTD/sodipodi-0.dtd"
   xmlns="http://www.w3.org/2000/svg"
   xmlns:svg="http://www.w3.org/2000/svg"><defs
   id="defs4" /><sodipodi:namedview
   id="namedview4"
   pagecolor="#ffffff"
   bordercolor="#111111"
   borderopacity="1"
   inkscape:showpageshadow="0"
   inkscape:pageopacity="0"
   inkscape:pagecheckerboard="1"
   inkscape:deskcolor="#d1d1d1"
   inkscape:zoom="19.466667"
   inkscape:cx="19.880137"
   inkscape:cy="11.172945"
   inkscape:window-width="3440"
   inkscape:window-height="1334"
   inkscape:window-x="-11"
   inkscape:window-y="-11"
   inkscape:window-maximized="1"
   inkscape:current-layer="Layer_1"><inkscape:page
     x="0"
     y="0"
     width="20"
     height="20"
     id="page2"
     margin="0"
     bleed="0" /></sodipodi:namedview>

<g
   id="g4"
   transform="matrix(0.03336168,0,0,0.03336168,-5.021073,-5.0217181)"
   style="fill:#000000;fill-opacity:1">
	<path
   style="fill:#000000;fill-opacity:1"
   d="m 443.348,450.037 c 0,61.271 0.006,122.536 -0.006,183.807 0,10.1 -5.407,17.424 -14.536,19.64 -6.598,1.596 -12.357,-0.25 -17.43,-4.645 -25.755,-22.307 -51.529,-44.597 -77.296,-66.899 -15.167,-13.119 -30.287,-26.285 -45.562,-39.273 -1.584,-1.352 -4.085,-2.299 -6.164,-2.305 -35.926,-0.137 -71.853,-0.095 -107.78,-0.101 -14.018,-0.006 -21.396,-7.366 -21.396,-21.361 -0.006,-46.503 -0.006,-93.011 0,-139.514 0,-13.732 7.491,-21.271 21.165,-21.271 36.17,-0.012 72.341,-0.054 108.512,0.077 3.597,0.012 6.199,-1.084 8.855,-3.382 39.672,-34.426 79.44,-68.745 119.136,-103.147 6.467,-5.61 13.56,-7.468 21.456,-3.865 7.92,3.615 11.076,10.278 11.064,18.8 -0.036,61.147 -0.018,122.293 -0.018,183.439 z"
   id="path1" />
	<path
   style="fill:#000000;fill-opacity:1"
   d="m 746.827,454.217 c -0.893,68.518 -23.141,133.309 -67.81,190.292 -5.395,6.896 -12.255,9.945 -20.747,7.676 -7.843,-2.09 -12.469,-7.611 -13.726,-15.68 -0.905,-5.842 1.197,-10.82 4.8,-15.352 17.103,-21.515 30.734,-45.038 40.726,-70.656 16.156,-41.423 22.111,-84.299 17.46,-128.485 -5.502,-52.249 -24.463,-99.211 -56.787,-140.675 -3.895,-5.002 -7.194,-10.112 -6.265,-16.734 1.144,-8.182 5.645,-13.863 13.714,-16.079 8.034,-2.209 15.155,0.006 19.979,6.735 9.23,12.881 18.794,25.63 26.75,39.285 28.042,48.1 41.513,100.284 41.906,159.673 z"
   id="path2" />
	<path
   style="fill:#000000;fill-opacity:1"
   d="m 660.11,451.984 c -0.494,51.481 -16.078,99.931 -47.36,143.254 -6.563,9.087 -17.877,11.219 -26.625,5.086 -8.796,-6.169 -10.671,-17.829 -3.99,-27.071 16.192,-22.385 28.036,-46.83 34.223,-73.753 13.828,-60.086 3.531,-115.879 -30.781,-167.175 -1.37,-2.043 -2.894,-3.984 -4.234,-6.038 -5.752,-8.843 -3.549,-20.247 5.002,-26.113 8.432,-5.782 19.681,-3.883 25.892,4.579 20.581,28.03 34.617,59.038 42.102,93.005 3.8,17.24 5.58,34.7 5.771,54.226 z"
   id="path3" />
	<path
   style="fill:#000000;fill-opacity:1"
   d="m 572.869,450.341 c -0.333,32.788 -9.147,63.058 -26.964,90.635 -5.913,9.153 -17.222,11.803 -26.131,6.235 -8.885,-5.556 -11.618,-17.002 -5.8,-26.178 10.624,-16.763 17.597,-34.801 20.021,-54.548 3.746,-30.573 -2.662,-58.901 -18.949,-84.99 -3.054,-4.883 -4.96,-9.885 -3.769,-15.68 1.619,-7.872 7.42,-13.685 15.411,-14.953 8.069,-1.28 14.542,1.745 19.014,8.539 10.225,15.537 17.532,32.371 22.081,50.409 3.353,13.304 4.913,26.834 5.086,40.531 z"
   id="path4" />
</g>
</svg>
