<?xml version="1.0" encoding="UTF-8" standalone="no"?>
<!-- Generator: Adobe Illustrator 19.0.0, SVG Export Plug-In . SVG Version: 6.00 Build 0)  -->

<svg
   version="1.1"
   id="Capa_1"
   x="0px"
   y="0px"
   viewBox="0 0 32 32"
   xml:space="preserve"
   width="32"
   height="32"
   xmlns="http://www.w3.org/2000/svg"
   xmlns:svg="http://www.w3.org/2000/svg"><defs
   id="defs23" />
<rect
   x="16"
   y="24"
   width="2.6667967"
   height="2.6667967"
   id="rect1"
   style="fill:#ffffff;fill-opacity:1;stroke-width:0.0781251" /><rect
   x="10.666798"
   y="24"
   width="2.6664064"
   height="2.6667967"
   id="rect2"
   style="fill:#ffffff;fill-opacity:1;stroke-width:0.0781251" /><rect
   x="5.3332033"
   y="24"
   width="2.6667967"
   height="2.6667967"
   id="rect4"
   style="fill:#ffffff;fill-opacity:1;stroke-width:0.0781251" />


<path
   d="M 29.333203,18.666797 H 24 v 2.666406 h 5.333203 V 24 H 24 v 2.666797 h 5.333203 v 2.666406 z"
   id="path6"
   style="fill:#ffffff;fill-opacity:1;stroke-width:0.0781251" />















<path
   d="m 24,0 v 8 l -5.333203,5.333203 V 5.3332031 l -8,7.9999999 V 5.3332031 L 0,16 V 32 H 32 V 0 Z m 5.333203,18.666797 H 24 v 2.666406 h 5.333203 V 24 H 24 v 2.666797 h 5.333203 v 2.666406 H 2.6667969 V 17.104375 L 8,11.770781 v 8 l 8,-8 v 8 L 26.666797,9.104375 V 2.6667969 h 2.666406 z"
   id="path23"
   style="display:inline;fill:#ffffff;fill-opacity:1;stroke-width:0.0781251" /></svg>
