<?xml version="1.0" encoding="UTF-8" standalone="no"?>
<svg
   id="Capa_1"
   enable-background="new 0 0 512 512"
   height="32"
   viewBox="0 0 32 32"
   width="32"
   version="1.1"
   xmlns="http://www.w3.org/2000/svg"
   xmlns:svg="http://www.w3.org/2000/svg">
  <defs
     id="defs1" />
  <g
     id="g1"
     transform="matrix(0.0625,0,0,0.0625,-0.0135,0)"
     style="fill:#ffffff;fill-opacity:1">
    <path
       d="m 251.342,511.253 c 1.509,0.498 3.091,0.747 4.658,0.747 1.567,0 3.149,-0.249 4.658,-0.747 2.197,-0.703 219.126,-77.509 219.126,-228.183 0,-28.008 -4.995,-51.108 -14.854,-68.643 -2.563,-4.541 -7.295,-7.441 -12.51,-7.632 -5.288,-0.659 -10.166,2.314 -13.052,6.665 l -40.327,49.209 c -3.062,4.6 -3.354,10.518 -0.747,15.396 2.607,4.878 7.69,7.925 13.228,7.925 H 421 c 0,90.425 -132.979,134.38 -135,134.995 V 271 c 25.356,0 48.091,-16.069 56.572,-39.99 1.626,-4.585 0.923,-9.683 -1.89,-13.667 C 337.884,213.373 333.314,211 328.436,211 H 286 V 143.668 C 312.468,132.085 331,105.738 331,75 331,33.578 297.422,0 256,0 c -41.422,0 -75,33.578 -75,75 0,30.738 18.532,57.085 45,68.668 V 211 h -42.437 c -4.878,0 -9.448,2.373 -12.246,6.343 -2.813,3.984 -3.516,9.082 -1.89,13.667 C 177.909,254.931 200.644,271 226,271 V 420.985 C 219.774,418.964 91,374.975 91,286 h 9.478 c 5.537,0 10.62,-3.047 13.228,-7.925 2.608,-4.878 2.314,-10.796 -0.747,-15.396 L 72.646,213.475 c -2.886,-4.351 -7.91,-6.914 -13.052,-6.665 -5.2,0.19 -9.946,3.076 -12.495,7.632 -9.873,17.534 -14.883,40.635 -14.883,68.628 0,150.674 216.929,227.48 219.126,228.183 z M 256,60 c 8.284,0 15,6.714 15,15 0,8.284 -6.716,15 -15,15 -8.284,0 -15,-6.716 -15,-15 0,-8.286 6.716,-15 15,-15 z"
       id="path1"
       style="fill:#ffffff;fill-opacity:1" />
  </g>
</svg>
