<?xml version="1.0" encoding="UTF-8" standalone="no"?>
<svg
   height="32pt"
   viewBox="0 -79 32 32"
   width="32pt"
   version="1.1"
   id="svg2"
   xmlns="http://www.w3.org/2000/svg"
   xmlns:svg="http://www.w3.org/2000/svg">
  <defs
     id="defs2" />
  <path
     d="m 16,-69.448242 c -2.14624,0 -3.892334,1.746094 -3.892334,3.892334 0,2.14624 1.746094,3.892578 3.892334,3.892578 2.14624,0 3.892334,-1.746094 3.892334,-3.892578 0,-2.14624 -1.746094,-3.892334 -3.892334,-3.892334 z m 0,0"
     id="path1"
     style="fill:#ffffff;fill-opacity:1;stroke-width:0.0625" />
  <path
     d="m 16,-74 c -6.5729981,0 -12.5849609,5.481201 -16,11.03125 0.24194338,0.279785 6.7241212,11.03125 16,11.03125 9.523193,0 15.994385,-11.024658 16,-11.03125 C 28.611084,-68.476562 22.602783,-74 16,-74 Z m 0,18.315186 c -6.3051756,0 -11.0444336,-5.860108 -9.6479494,-12.047852 2.6765138,-2.447998 5.9899904,-4.388916 9.6479494,-4.388916 3.658447,0 6.971924,1.941406 9.647949,4.388916 C 27.04541,-61.540283 22.301026,-55.684814 16,-55.684814 Z m 0,0"
     id="path2"
     style="fill:#ffffff;fill-opacity:1;stroke-width:0.0625" />
</svg>
