<?xml version="1.0" encoding="UTF-8" standalone="no"?>
<!-- Created with Inkscape (http://www.inkscape.org/) -->

<svg
   version="1.1"
   id="svg3384"
   xml:space="preserve"
   width="32"
   height="32"
   viewBox="0 0 32 32"
   xmlns="http://www.w3.org/2000/svg"
   xmlns:svg="http://www.w3.org/2000/svg"><defs
     id="defs3388" /><path
     id="path3434"
     style="fill:none;stroke:#ffffff;stroke-width:1.875;stroke-linecap:round;stroke-linejoin:round;stroke-miterlimit:10;stroke-dasharray:none;stroke-opacity:1"
     d="M 4.906743,21.790339 0.92923855,20.464525 3.580929,17.812835 9.5471232,18.475773 m 3.9774918,3.977467 0.662876,5.966194 -2.651628,2.65169 -1.325814,-3.977504 m 13.88104,-15.246986 0.662876,8.617885 -2.651628,2.651628 -3.314567,-5.966195 M 14.810292,13.172467 8.8440978,9.8579006 11.495726,7.2062727 20.113611,7.8691484 m 1.325807,-1.3258077 3.977504,3.9774423 M 4.906743,21.790339 0.92923855,25.767843 6.232557,31.071099 10.210061,27.093657 m -1.9887705,-7.292058 -3.3145662,1.988752 5.3033187,5.303256 1.988752,-3.314504 M 25.416897,2.5658612 c 0,0 3.180879,-2.86344069 5.029506,-0.9943761 1.848689,1.8690646 -1.052001,4.9718806 -1.052001,4.9718806 M 12.198776,23.779079 8.2212715,19.801575 25.416916,2.5658675 29.394358,6.5433719 Z" /></svg>
