<?xml version="1.0" encoding="UTF-8" standalone="no"?>
<!-- Generator: Adobe Illustrator 27.5.0, SVG Export Plug-In . SVG Version: 6.00 Build 0)  -->

<svg
   version="1.1"
   id="_x2018_ëîé_x5F_1"
   x="0px"
   y="0px"
   viewBox="0 0 94.250999 48"
   xml:space="preserve"
   width="94.250999"
   height="48"
   xmlns="http://www.w3.org/2000/svg"
   xmlns:svg="http://www.w3.org/2000/svg"><defs
   id="defs1124" />


<g
   id="WithText_00000116237045020658836770000015591132046377601694_"
   transform="matrix(0.09119407,0,0,0.09119407,-128.4639,-36.841949)">
	
	<g
   id="OnButton_00000097468318782315923040000014430002985178705553_">
		<g
   id="Toggle_00000047768630510701275670000009470633396318511241_">
			<path
   style="fill:#00d456"
   d="m 2188.589,930.345 h -526.282 c -139.491,0 -253.62,-114.129 -253.62,-253.62 v -19.11 c 0,-139.491 114.129,-253.62 253.62,-253.62 h 526.282 c 139.491,0 253.62,114.129 253.62,253.62 v 19.11 c 0,139.491 -114.129,253.62 -253.62,253.62 z"
   id="path487" />
			<g
   id="g499">
				<path
   style="fill:#00c04d"
   d="m 2188.589,930.345 h -526.282 c -139.491,0 -253.62,-114.129 -253.62,-253.62 v -19.11 c 0,-139.491 114.129,-253.62 253.62,-253.62 h 526.282 c 139.491,0 253.62,114.129 253.62,253.62 v 19.11 c 0,139.491 -114.129,253.62 -253.62,253.62 z"
   id="path488" />
				<path
   style="fill:#00c24e"
   d="M 2188.262,927.409 H 1665.89 c -136.725,0 -248.591,-111.866 -248.591,-248.591 v -20.381 c 0,-136.775 111.906,-248.681 248.681,-248.681 h 522.372 c 136.725,0 248.591,111.866 248.591,248.591 v 20.381 c 0,136.775 -111.906,248.681 -248.681,248.681 z"
   id="path489" />
				<path
   style="fill:#01c34e"
   d="m 2187.935,924.473 h -518.462 c -133.959,0 -243.562,-109.603 -243.562,-243.562 v -21.653 c 0,-134.058 109.684,-243.742 243.742,-243.742 h 518.462 c 133.959,0 243.562,109.603 243.562,243.562 v 21.653 c 0,134.058 -109.684,243.742 -243.742,243.742 z"
   id="path490" />
				<path
   style="fill:#01c54f"
   d="m 2187.608,921.537 h -514.552 c -131.193,0 -238.533,-107.34 -238.533,-238.533 V 660.08 c 0,-131.342 107.462,-238.803 238.803,-238.803 h 514.552 c 131.193,0 238.533,107.34 238.533,238.533 v 22.924 c 0,131.341 -107.461,238.803 -238.803,238.803 z"
   id="path491" />
				<path
   style="fill:#01c750"
   d="M 2187.281,918.601 H 1676.64 c -128.427,0 -233.504,-105.077 -233.504,-233.503 v -24.195 c 0,-128.625 105.239,-233.865 233.865,-233.865 h 510.641 c 128.427,0 233.504,105.077 233.504,233.503 v 24.195 c 0,128.626 -105.24,233.865 -233.865,233.865 z"
   id="path492" />
				<path
   style="fill:#02c951"
   d="m 2186.954,915.665 h -506.731 c -125.661,0 -228.474,-102.813 -228.474,-228.474 v -25.467 c 0,-125.909 103.017,-228.926 228.926,-228.926 h 506.731 c 125.661,0 228.474,102.814 228.474,228.474 v 25.467 c 0,125.909 -103.017,228.926 -228.926,228.926 z"
   id="path493" />
				<path
   style="fill:#02ca51"
   d="m 2186.626,912.729 h -502.821 c -122.895,0 -223.445,-100.55 -223.445,-223.445 v -26.738 c 0,-123.193 100.794,-223.987 223.987,-223.987 h 502.821 c 122.895,0 223.445,100.55 223.445,223.445 v 26.738 c 0,123.193 -100.794,223.987 -223.987,223.987 z"
   id="path494" />
				<path
   style="fill:#03cc52"
   d="m 2186.299,909.792 h -498.91 c -120.129,0 -218.416,-98.287 -218.416,-218.416 v -28.01 c 0,-120.476 98.572,-219.048 219.048,-219.048 h 498.911 c 120.129,0 218.416,98.287 218.416,218.416 v 28.01 c -10e-4,120.477 -98.572,219.048 -219.049,219.048 z"
   id="path495" />
				<path
   style="fill:#03ce53"
   d="m 2185.972,906.856 h -495 c -117.363,0 -213.387,-96.024 -213.387,-213.387 v -29.281 c 0,-117.76 96.349,-214.109 214.109,-214.109 h 495 c 117.363,0 213.387,96.024 213.387,213.387 v 29.281 c 10e-4,117.76 -96.349,214.109 -214.109,214.109 z"
   id="path496" />
				<path
   style="fill:#03d054"
   d="m 2185.645,903.92 h -491.09 c -114.597,0 -208.358,-93.761 -208.358,-208.358 V 665.01 c 0,-115.044 94.127,-209.17 209.17,-209.17 h 491.09 c 114.597,0 208.358,93.761 208.358,208.358 v 30.553 c 0,115.043 -94.126,209.169 -209.17,209.169 z"
   id="path497" />
				<path
   style="fill:#04d154"
   d="m 2185.318,900.984 h -487.18 c -111.831,0 -203.329,-91.498 -203.329,-203.329 v -31.824 c 0,-112.327 91.904,-204.231 204.231,-204.231 h 487.18 c 111.831,0 203.329,91.498 203.329,203.329 v 31.824 c 0,112.327 -91.903,204.231 -204.231,204.231 z"
   id="path498" />
				<path
   style="fill:#04d355"
   d="m 2184.991,898.048 h -483.27 c -109.065,0 -198.3,-89.235 -198.3,-198.3 v -33.095 c 0,-109.611 89.682,-199.292 199.292,-199.292 h 483.27 c 109.065,0 198.3,89.235 198.3,198.3 v 33.095 c 0,109.611 -89.681,199.292 -199.292,199.292 z"
   id="path499" />
			</g>
		</g>
		<g
   id="Button_00000073000597273654291080000010524510162083113387_">
			
			<g
   id="Button_00000075140798319022207410000016428087749824632759_">
				
					<linearGradient
   id="SVGID_00000044168183919506507080000007628259849375747975_"
   gradientUnits="userSpaceOnUse"
   x1="11515.436"
   y1="-341.85599"
   x2="11981.931"
   y2="-341.85599"
   gradientTransform="matrix(-0.7167,-0.6974,0.6974,-0.7167,10833.026,8615.4072)">
					<stop
   offset="0"
   style="stop-color:#FFFFFF"
   id="stop748" />
					<stop
   offset="0.398"
   style="stop-color:#FCFCFC"
   id="stop749" />
					<stop
   offset="0.7107"
   style="stop-color:#F2F2F4"
   id="stop750" />
					<stop
   offset="0.9939"
   style="stop-color:#E1E2E5"
   id="stop751" />
					<stop
   offset="1"
   style="stop-color:#E1E2E5"
   id="stop752" />
				</linearGradient>
				<path
   style="fill:url(#SVGID_00000044168183919506507080000007628259849375747975_)"
   d="m 2341.49,829.565 c 89.846,-92.325 87.852,-240.006 -4.476,-329.856 -92.322,-89.839 -240.014,-87.822 -329.847,4.508 -89.836,92.318 -87.841,240.007 4.479,329.834 92.326,89.851 240.014,87.832 329.844,-4.486 z"
   id="path752" />
				
					<linearGradient
   id="SVGID_00000124139311642459920630000002656219541233112208_"
   gradientUnits="userSpaceOnUse"
   x1="2002.0314"
   y1="494.58981"
   x2="2340.6958"
   y2="833.25427">
					<stop
   offset="0"
   style="stop-color:#FFFFFF"
   id="stop753" />
					<stop
   offset="0.2877"
   style="stop-color:#FBFBFC"
   id="stop754" />
					<stop
   offset="0.5608"
   style="stop-color:#F0F0F1"
   id="stop755" />
					<stop
   offset="0.8271"
   style="stop-color:#DEDDDF"
   id="stop756" />
					<stop
   offset="1"
   style="stop-color:#CECCD0"
   id="stop757" />
				</linearGradient>
				<path
   style="fill:url(#SVGID_00000124139311642459920630000002656219541233112208_)"
   d="m 2385.284,545.086 c -67.263,-116.511 -216.247,-156.43 -332.76,-89.167 -116.51,67.268 -156.427,216.255 -89.16,332.76 67.268,116.514 216.247,156.428 332.765,89.162 116.511,-67.265 156.422,-216.255 89.155,-332.755 z m -106.019,303.55 c -100.391,57.957 -228.756,23.576 -286.708,-76.818 -57.95,-100.385 -23.565,-228.732 76.829,-286.692 100.393,-57.965 228.753,-23.568 286.706,76.812 57.954,100.393 23.564,228.742 -76.827,286.698 z"
   id="path757" />
			</g>
		</g>
		<g
   id="On_00000137095033206265953750000012756996135847083649_">
			<g
   id="g759">
				<path
   style="fill:#25ea63"
   d="m 1584.81,632.74 c 0,-23.861 16.364,-37.497 46.333,-37.497 29.957,0 46.319,13.636 46.319,37.497 v 77.544 c 0,23.862 -16.362,37.497 -46.319,37.497 -29.969,0 -46.333,-13.635 -46.333,-37.497 z m 30.512,79.036 c 0,10.658 6.098,14.7 15.82,14.7 9.709,0 15.807,-4.042 15.807,-14.7 v -80.531 c 0,-10.648 -6.098,-14.7 -15.807,-14.7 -9.722,0 -15.82,4.052 -15.82,14.7 z"
   id="path758" />
				<path
   style="fill:#25ea63"
   d="m 1724.313,638.065 v 108.012 h -27.47 c -0.721,-2.446 -1.038,-7.166 -1.038,-7.166 0,0 1.038,-94.645 1.038,-141.967 12.76,0 25.519,0 38.279,0 l 31.368,89.266 v -89.266 c 7.454,-3.274 22.799,-9.444 25.907,-5.188 0.085,0.117 0.162,0.242 0.228,0.375 0.346,1.604 0.692,3.209 1.038,4.813 0,49.711 0,99.422 0,149.133 h -31.342 z"
   id="path759" />
			</g>
			<g
   id="g761">
				<path
   style="fill:#019e3f"
   d="m 1581.697,621.326 c 0,-23.861 16.364,-37.497 46.332,-37.497 29.957,0 46.319,13.636 46.319,37.497 v 77.544 c 0,23.862 -16.362,37.497 -46.319,37.497 -29.969,0 -46.332,-13.635 -46.332,-37.497 z m 30.512,79.036 c 0,10.658 6.098,14.7 15.82,14.7 9.709,0 15.807,-4.042 15.807,-14.7 V 619.83 c 0,-10.648 -6.098,-14.7 -15.807,-14.7 -9.722,0 -15.82,4.052 -15.82,14.7 z"
   id="path760" />
				<path
   style="fill:#019e3f"
   d="m 1721.199,626.651 v 108.012 c -6.873,0 -25.077,5.855 -25.077,5.855 l -2.392,-5.855 c 0,0 0,-99.422 0,-149.133 h 38.279 l 31.368,89.266 V 585.53 h 27.173 c 0.249,0.937 0.588,2.125 1.038,3.488 0.547,1.658 1.037,2.899 1.037,2.899 0,0 0.264,43.462 -2.075,142.746 -10.447,0 -20.895,0 -31.342,0 z"
   id="path761" />
			</g>
			<g
   id="g763">
				<path
   style="fill:#02bb4f"
   d="m 1583.772,627.552 c 0,-23.861 16.364,-37.497 46.332,-37.497 29.957,0 46.319,13.636 46.319,37.497 v 77.544 c 0,23.862 -16.362,37.497 -46.319,37.497 -29.969,0 -46.332,-13.635 -46.332,-37.497 z m 30.513,79.036 c 0,10.658 6.098,14.7 15.82,14.7 9.709,0 15.807,-4.042 15.807,-14.7 v -80.531 c 0,-10.648 -6.098,-14.7 -15.807,-14.7 -9.722,0 -15.82,4.052 -15.82,14.7 z"
   id="path762" />
				<path
   style="fill:#02bb4f"
   d="m 1723.275,632.877 v 108.012 h -27.47 V 591.755 h 38.279 l 31.369,89.266 v -89.266 h 27.173 v 149.133 h -31.342 z"
   id="path763" />
			</g>
		</g>
	</g>
</g>

</svg>
