<?xml version="1.0" encoding="UTF-8" standalone="no"?>
<!-- Generator: Adobe Illustrator 27.5.0, SVG Export Plug-In . SVG Version: 6.00 Build 0)  -->

<svg
   version="1.1"
   id="_x2018_ëîé_x5F_1"
   x="0px"
   y="0px"
   viewBox="0 0 94.250999 48"
   xml:space="preserve"
   width="94.250999"
   height="48"
   xmlns="http://www.w3.org/2000/svg"
   xmlns:svg="http://www.w3.org/2000/svg"><defs
   id="defs1124" />


<g
   id="WithText_00000116237045020658836770000015591132046377601694_"
   transform="matrix(0.03941695,0,0,0.03941695,-28.664906,-17.613527)">
	<g
   id="OffButton_00000008862259698644940160000002256239519301557392_"
   transform="matrix(2.3135752,0,0,2.3135752,-2531.8804,-2396.4051)">
		<g
   id="Toggle_00000146487434426087152610000009828539981291147674_">
			<path
   style="fill:#e2e2e2"
   d="m 2188.589,1755.295 h -526.282 c -139.491,0 -253.62,-114.129 -253.62,-253.62 v -19.11 c 0,-139.491 114.129,-253.62 253.62,-253.62 h 526.282 c 139.491,0 253.62,114.129 253.62,253.62 v 19.11 c 0,139.491 -114.129,253.62 -253.62,253.62 z"
   id="path388" />
			<g
   id="g400"
   style="stroke-width:1.00335;stroke-dasharray:none">
				<path
   style="fill:#d8d8d8;stroke:none;stroke-width:8.22422;stroke-linejoin:round;stroke-dasharray:none;stroke-opacity:1;paint-order:normal"
   d="m 2188.589,1755.295 h -526.282 c -139.491,0 -253.62,-114.129 -253.62,-253.62 v -19.11 c 0,-139.491 114.129,-253.62 253.62,-253.62 h 526.282 c 139.491,0 253.62,114.129 253.62,253.62 v 19.11 c 0,139.491 -114.129,253.62 -253.62,253.62 z"
   id="path389" />
				<path
   style="opacity:0.9091;fill:#d9d9d9;stroke-width:1.00335;stroke-dasharray:none"
   d="m 2184.425,1750.875 h -515.122 c -136.725,0 -248.591,-111.866 -248.591,-248.591 v -18.734 c 0,-136.775 111.906,-248.681 248.681,-248.681 h 515.122 c 136.725,0 248.591,111.866 248.591,248.591 v 18.734 c 0,136.775 -111.907,248.681 -248.681,248.681 z"
   id="path390" />
				<path
   style="opacity:0.8182;fill:#dadada;stroke-width:1.00335;stroke-dasharray:none"
   d="m 2180.26,1746.455 h -503.962 c -133.959,0 -243.562,-109.603 -243.562,-243.562 v -18.359 c 0,-134.058 109.684,-243.742 243.742,-243.742 h 503.962 c 133.959,0 243.562,109.603 243.562,243.562 v 18.359 c 0,134.058 -109.684,243.742 -243.742,243.742 z"
   id="path391" />
				<path
   style="opacity:0.7273;fill:#dcdcdc;stroke-width:1.00335;stroke-dasharray:none"
   d="m 2176.096,1742.035 h -492.801 c -131.193,0 -238.533,-107.34 -238.533,-238.533 v -17.983 c 0,-131.342 107.462,-238.803 238.803,-238.803 h 492.801 c 131.193,0 238.532,107.34 238.532,238.533 v 17.983 c 10e-4,131.342 -107.46,238.803 -238.802,238.803 z"
   id="path392" />
				<path
   style="opacity:0.6364;fill:#dddddd;stroke-width:1.00335;stroke-dasharray:none"
   d="M 2171.931,1737.615 H 1690.29 c -128.427,0 -233.504,-105.077 -233.504,-233.503 v -17.608 c 0,-128.625 105.239,-233.865 233.865,-233.865 h 481.641 c 128.427,0 233.503,105.077 233.503,233.504 v 17.608 c 10e-4,128.625 -105.238,233.864 -233.864,233.864 z"
   id="path393" />
				<path
   style="opacity:0.5455;fill:#dedede;stroke-width:1.00335;stroke-dasharray:none"
   d="m 2167.767,1733.196 h -470.481 c -125.661,0 -228.474,-102.814 -228.474,-228.474 v -17.232 c 0,-125.909 103.016,-228.926 228.926,-228.926 h 470.481 c 125.661,0 228.474,102.814 228.474,228.474 v 17.232 c 0,125.909 -103.017,228.926 -228.926,228.926 z"
   id="path394" />
				<path
   style="opacity:0.4545;fill:#dfdfdf;stroke-width:1.00335;stroke-dasharray:none"
   d="m 2163.603,1728.776 h -459.32 c -122.895,0 -223.445,-100.55 -223.445,-223.445 v -16.857 c 0,-123.193 100.794,-223.987 223.987,-223.987 h 459.32 c 122.895,0 223.445,100.55 223.445,223.445 v 16.857 c 0,123.192 -100.795,223.987 -223.987,223.987 z"
   id="path395" />
				<path
   style="opacity:0.3636;fill:#e0e0e0;stroke-width:1.00335;stroke-dasharray:none"
   d="m 2159.438,1724.356 h -448.16 c -120.129,0 -218.416,-98.287 -218.416,-218.416 v -16.481 c 0,-120.476 98.572,-219.048 219.048,-219.048 h 448.16 c 120.129,0 218.416,98.287 218.416,218.416 v 16.481 c 0,120.476 -98.571,219.048 -219.048,219.048 z"
   id="path396" />
				<path
   style="opacity:0.2727;fill:#e1e1e1;stroke-width:1.00335;stroke-dasharray:none"
   d="m 2155.274,1719.936 h -437 c -117.363,0 -213.387,-96.024 -213.387,-213.387 v -16.105 c 0,-117.76 96.349,-214.109 214.109,-214.109 h 437 c 117.363,0 213.387,96.024 213.387,213.387 v 16.105 c 0,117.76 -96.349,214.109 -214.109,214.109 z"
   id="path397" />
				<path
   style="opacity:0.1818;fill:#e3e3e3;stroke-width:1.00335;stroke-dasharray:none"
   d="m 2151.11,1715.516 h -425.84 c -114.597,0 -208.358,-93.761 -208.358,-208.358 v -15.73 c 0,-115.044 94.127,-209.17 209.17,-209.17 h 425.839 c 114.597,0 208.358,93.761 208.358,208.358 v 15.73 c 0,115.043 -94.126,209.17 -209.169,209.17 z"
   id="path398" />
				<path
   style="opacity:0.0909;fill:#e4e4e4;stroke-width:1.00335;stroke-dasharray:none"
   d="m 2146.945,1711.096 h -414.679 c -111.831,0 -203.329,-91.498 -203.329,-203.329 v -15.354 c 0,-112.327 91.904,-204.231 204.231,-204.231 h 414.679 c 111.831,0 203.329,91.498 203.329,203.329 v 15.354 c 0,112.327 -91.904,204.231 -204.231,204.231 z"
   id="path399" />
				<path
   style="opacity:0;fill:#e5e5e5;stroke-width:1.00335;stroke-dasharray:none"
   d="m 2142.781,1706.676 h -403.519 c -109.065,0 -198.3,-89.235 -198.3,-198.3 v -14.979 c 0,-109.611 89.682,-199.292 199.292,-199.292 h 403.519 c 109.065,0 198.3,89.235 198.3,198.3 v 14.979 c 0,109.611 -89.681,199.292 -199.292,199.292 z"
   id="path400" />
			</g>
		</g>
		<g
   id="Button_00000157988242514105305290000008211277708472922554_">
			
			<g
   id="Button_00000031189096815077229040000002308851040335005839_">
				
					<linearGradient
   id="SVGID_00000173154264455644149090000017147593353820167599_"
   gradientUnits="userSpaceOnUse"
   x1="11295.609"
   y1="-1278.9893"
   x2="11762.104"
   y2="-1278.9893"
   gradientTransform="matrix(-0.7167,-0.6974,0.6974,-0.7167,10833.026,8615.4072)">
					<stop
   offset="0"
   style="stop-color:#FFFFFF"
   id="stop468" />
					<stop
   offset="0.398"
   style="stop-color:#FCFCFC"
   id="stop469" />
					<stop
   offset="0.7107"
   style="stop-color:#F2F2F4"
   id="stop470" />
					<stop
   offset="0.9939"
   style="stop-color:#E1E2E5"
   id="stop471" />
					<stop
   offset="1"
   style="stop-color:#E1E2E5"
   id="stop472" />
				</linearGradient>
				<path
   style="fill:url(#SVGID_00000173154264455644149090000017147593353820167599_)"
   d="m 1845.482,1654.515 c 89.845,-92.325 87.852,-240.006 -4.476,-329.856 -92.322,-89.839 -240.014,-87.822 -329.847,4.508 -89.836,92.318 -87.841,240.007 4.479,329.834 92.327,89.851 240.014,87.832 329.844,-4.486 z"
   id="path472" />
				
					<linearGradient
   id="SVGID_00000134232840305966899340000003950530843177731730_"
   gradientUnits="userSpaceOnUse"
   x1="1506.0237"
   y1="1319.5397"
   x2="1844.6882"
   y2="1658.2042">
					<stop
   offset="0"
   style="stop-color:#FFFFFF"
   id="stop473" />
					<stop
   offset="0.3445"
   style="stop-color:#FBFBFB"
   id="stop474" />
					<stop
   offset="0.6713"
   style="stop-color:#F0F0F1"
   id="stop475" />
					<stop
   offset="0.9902"
   style="stop-color:#DEDDDF"
   id="stop476" />
					<stop
   offset="1"
   style="stop-color:#DDDCDE"
   id="stop477" />
				</linearGradient>
				<path
   style="fill:url(#SVGID_00000134232840305966899340000003950530843177731730_)"
   d="m 1889.277,1370.036 c -67.263,-116.511 -216.247,-156.43 -332.76,-89.167 -116.51,67.268 -156.427,216.255 -89.16,332.76 67.268,116.514 216.247,156.428 332.765,89.162 116.511,-67.265 156.421,-216.255 89.155,-332.755 z m -106.02,303.55 c -100.391,57.957 -228.756,23.576 -286.708,-76.818 -57.95,-100.385 -23.565,-228.732 76.829,-286.692 100.393,-57.965 228.753,-23.568 286.706,76.812 57.954,100.393 23.564,228.742 -76.827,286.698 z"
   id="path477" />
			</g>
		</g>
		<g
   id="Off_00000122720569998742158150000012381538760495917721_">
			<g
   id="g480">
				<path
   style="fill:#f9f9f9"
   d="m 2025.111,1461.618 c 0,-24.028 16.357,-37.759 46.326,-37.759 29.962,0 46.32,13.731 46.32,37.759 v 78.086 c 0,24.029 -16.357,37.759 -46.32,37.759 -29.969,0 -46.326,-13.73 -46.326,-37.759 z m 30.506,79.589 c 0,10.728 6.105,14.802 15.82,14.802 9.709,0 15.814,-4.074 15.814,-14.802 v -81.095 c 0,-10.723 -6.104,-14.802 -15.814,-14.802 -9.716,0 -15.82,4.079 -15.82,14.802 z"
   id="path478" />
				<path
   style="fill:#f9f9f9"
   d="m 2167.942,1492.294 c 16.187,-8.185 30.997,-10.127 37.158,-3.615 0.869,0.918 1.648,2.092 2.229,3.615 0,7.15 0,14.3 0,21.45 h -39.388 v 62.002 h -30.521 c -0.633,-1.337 -1.845,-4.053 -1.845,-4.053 0,0 3.113,-74.712 1.845,-146.122 7.103,-2.872 78.056,-4.34 78.056,-4.34 0,0 1.935,2.69 2.669,4.34 0,7.152 0,14.304 0,21.455 h -50.204 v 45.268 z"
   id="path479" />
				<path
   style="fill:#f9f9f9"
   d="m 2263.333,1492.294 c 15.442,-1.539 37.233,-3.615 37.233,-3.615 0,0 1.605,2.091 2.155,3.615 0,7.15 0,14.3 0,21.45 h -39.388 v 62.002 h -30.507 c -0.557,-0.686 -1.784,-4.053 -1.784,-4.053 0,0 -0.075,-1.507 0,-2.075 0.594,-48.016 1.189,-96.031 1.784,-144.047 7.063,-2.827 43.874,-1.227 78.117,-4.34 1.013,1.252 1.89,2.689 2.594,4.34 0,7.152 0,14.304 0,21.455 h -50.204 z"
   id="path480" />
			</g>
			<g
   id="g483">
				<path
   style="fill:#b6b6b6"
   d="m 2020.914,1451.126 c 0,-24.028 16.357,-37.759 46.326,-37.759 29.962,0 46.32,13.732 46.32,37.759 v 78.086 c 0,24.029 -16.357,37.759 -46.32,37.759 -29.969,0 -46.326,-13.73 -46.326,-37.759 z m 30.506,79.588 c 0,10.728 6.105,14.802 15.82,14.802 9.709,0 15.814,-4.074 15.814,-14.802 v -81.095 c 0,-10.723 -6.104,-14.802 -15.814,-14.802 -9.716,0 -15.82,4.079 -15.82,14.802 z"
   id="path481" />
				<path
   style="fill:#b6b6b6"
   d="m 2163.745,1481.802 h 39.388 c 0.766,1.578 1.968,5.84 1.968,5.84 0,0 -0.753,12.907 -1.968,15.61 -13.129,0 -26.259,0 -39.388,0 v 62.002 c -11.566,2.289 -28.169,6.44 -28.169,6.44 0,0 -1.038,-3.113 -2.352,-6.44 0,-50.058 0,-100.117 0,-150.175 h 80.724 c 0.624,1.744 1.529,6.152 1.529,6.152 0,0 -0.393,12 -1.529,15.303 -16.735,0 -33.469,0 -50.204,0 v 45.268 z"
   id="path482" />
				<path
   style="fill:#b6b6b6"
   d="m 2259.136,1481.802 h 39.388 c 0.808,1.773 2.042,6.878 2.042,6.878 0,0 -0.898,11.953 -2.042,14.572 -13.129,0 -26.259,0 -39.388,0 v 62.002 c -11.979,8.842 -23.943,4.364 -28.094,6.44 -1.038,-2.075 -1.038,-3.113 -2.413,-6.44 0,-50.058 0,-100.117 0,-150.175 h 80.711 c 0.65,1.728 1.249,3.791 1.603,6.152 0.99,6.603 -0.449,12.098 -1.603,15.303 -16.735,0 -33.469,0 -50.204,0 z"
   id="path483" />
			</g>
			<g
   id="g486">
				<path
   style="fill:#cfcfcf"
   d="m 2023.012,1457.421 c 0,-24.028 16.357,-37.759 46.326,-37.759 29.962,0 46.32,13.731 46.32,37.759 v 78.086 c 0,24.029 -16.357,37.759 -46.32,37.759 -29.969,0 -46.326,-13.73 -46.326,-37.759 z m 30.506,79.589 c 0,10.728 6.104,14.802 15.82,14.802 9.709,0 15.814,-4.074 15.814,-14.802 v -81.095 c 0,-10.723 -6.105,-14.802 -15.814,-14.802 -9.716,0 -15.82,4.079 -15.82,14.802 z"
   id="path484" />
				<path
   style="fill:#cfcfcf"
   d="m 2165.844,1488.097 h 39.388 v 21.45 h -39.388 v 62.002 h -30.521 v -150.175 h 80.724 v 21.455 h -50.204 v 45.268 z"
   id="path485" />
				<path
   style="fill:#cfcfcf"
   d="m 2261.235,1488.097 h 39.388 v 21.45 h -39.388 v 62.002 h -30.507 v -150.175 h 80.711 v 21.455 h -50.204 z"
   id="path486" />
			</g>
		</g>
	</g>
	
</g>

</svg>
