<?xml version="1.0" encoding="UTF-8" standalone="no"?>
<!-- Created with Inkscape (http://www.inkscape.org/) -->

<svg
   width="59.999954mm"
   height="89.985802mm"
   viewBox="0 0 59.999954 89.985802"
   version="1.1"
   id="svg1"
   xmlns="http://www.w3.org/2000/svg"
   xmlns:svg="http://www.w3.org/2000/svg">
  <defs
     id="defs1" />
  <g
     id="layer2"
     style="display:none"
     transform="translate(0,-0.01419945)">
    <rect
       style="fill:#000000;fill-opacity:1;stroke-width:0.264583"
       id="rect1"
       width="60"
       height="60"
       x="0"
       y="30" />
    <rect
       style="fill:#ff0303;fill-opacity:1;stroke-width:0.354974"
       id="rect2"
       width="60"
       height="18"
       x="0"
       y="12" />
  </g>
  <path
     id="path1"
     style="display:inline;fill:#ffffff;fill-opacity:0.595469;stroke-width:1"
     d="M 0,7.7736857 V 90.694491 H 59.999955 V 8.2974909 C 59.3543,0.33458295 55.074927,-0.241288 52,1.6603638 48.624012,4.4008165 47.528787,6.6975714 43,8.6944909 l -8.912675,2.4500001 v -0.598416 a 2.1755636,2.1755636 139.48654 0 1 2.514887,-2.1489387 l 0.83633,0.1320589 c 1.381827,0.033114 2.528784,-2.6478939 2.5616,-4.0297282 4e-6,-1.4127369 -1.145246,-2.5579876 -2.557983,-2.5579834 h -14.97428 c -1.356002,-0.00729 -2.461082,1.0862243 -2.468066,2.4422282 -4e-6,1.4127369 1.145246,4.1454876 2.557983,4.1454834 L 25.912113,8.0000285 V 11.144491 L 19.360286,9.3072735 C 18.153386,8.968843 16.18603,8.4163845 15.080021,7.8306852 12.426908,6.4256999 10.522777,4.1496692 8.1493733,1.6567465 6.4449036,0.18184248 0.33489279,-0.67042185 0,7.7736857 Z"
     transform="translate(0,-0.70869036)" />
  <path
     id="path1-5"
     style="display:inline;fill:#000000;fill-opacity:1;stroke-width:1"
     d="m 5.3320312,2.7207031 c -0.1013242,-0.0041 -0.2021764,-0.004 -0.3027343,0.00195 C 4.3588907,2.762356 3.780445,2.963931 3.2285156,3.6152344 2.6796355,4.2629395 2.1071463,5.5044149 2.0097656,7.8144531 V 88.685547 H 57.990234 V 8.3808594 C 57.687034,4.8111477 56.632099,3.446068 55.892578,3.0117188 55.171214,2.5880335 54.225147,2.6796969 53.162109,3.3066406 50.163833,5.772556 48.621214,8.4139447 43.810547,10.535156 l -0.134766,0.05859 -11.597656,3.1875 V 7.7373393 a 1.7851303,1.7851303 139.48352 0 1 2.063372,-1.7633127 l 3.073347,0.4849578 0.002,-0.00195 c 0.02131,-0.027183 0.0451,-0.0568 0.06836,-0.089844 0.174415,-0.2478275 0.374526,-0.651229 0.507813,-1.0371094 0.125278,-0.3626942 0.18835,-0.7315242 0.197265,-0.8574219 -0.0118,-0.3113293 -0.231904,-0.5214853 -0.548828,-0.5214843 h -14.978515 -0.0059 c -0.268369,-0.00144 -0.443318,0.1700467 -0.447265,0.4355468 v 0.00586 c 0.0024,0.1086516 0.05642,0.4941955 0.183593,0.8789063 0.130137,0.3936595 0.331297,0.8070751 0.509766,1.0664062 0.0238,0.034578 0.04826,0.064999 0.07031,0.09375 0.0067,0.00871 0.01308,0.017261 0.01953,0.025391 L 26.05541,5.9426936 a 1.6149654,1.6149654 40.520409 0 1 1.866465,1.5952621 V 13.794922 L 16.611328,10.625 l -0.02148,-0.0059 C 12.192466,9.2811352 9.618665,6.1273046 6.7910156,3.1464844 6.6976775,3.0846635 6.472623,2.9544724 6.1933594,2.8671875 5.9374548,2.7872035 5.6360041,2.7330052 5.3320312,2.7207031 Z"
     transform="translate(0,-0.72288981)" />
</svg>
