<?xml version="1.0" encoding="UTF-8" standalone="no"?>
<!-- Created with Inkscape (http://www.inkscape.org/) -->

<svg
   width="59.999954mm"
   height="90.000114mm"
   viewBox="0 0 59.999954 90.000114"
   version="1.1"
   id="svg1"
   xmlns="http://www.w3.org/2000/svg"
   xmlns:svg="http://www.w3.org/2000/svg">
  <defs
     id="defs1" />
  <path
     id="path1"
     style="display:inline;fill:#ffffff;fill-opacity:0.600324;stroke-width:1"
     d="M 0,4.1422999 V 30.000153 84.142068 90.000109 H 59.999955 V 84.142068 30.000153 4.1422999 c -5.522826,-5.5227226 -14.476987,-5.5227226 -19.999813,0 -5.522885,-5.5230666 -14.477444,-5.5230666 -20.000329,0 C 14.48883,-1.368955 5.5105509,-1.3685231 0,4.1422999 Z" />
  <path
     id="path1-9"
     style="fill:#000000;fill-opacity:1;stroke-width:1"
     d="M 49.625,2.0039063 C 46.65043,2.0958751 43.703388,3.282983 41.421875,5.5644531 L 40,6.984375 38.578125,5.5644531 C 36.200668,3.186918 33.108055,2.0097656 30,2.0097656 c -3.108055,0 -6.200668,1.1771524 -8.578125,3.5546875 L 20,6.984375 18.578125,5.5644531 C 14.030578,1.0166816 6.7758333,0.83195205 2.0097656,5.0117187 V 30 84.142578 87.990234 H 57.990234 V 84.142578 30 5.0117187 C 55.6013,2.9141863 52.59957,1.9119374 49.625,2.0039063 Z"
     transform="translate(0,-8.265e-5)" />
</svg>
