<?xml version="1.0" encoding="UTF-8" standalone="no"?>
<!-- Generator: Adobe Illustrator 27.5.0, SVG Export Plug-In . SVG Version: 6.00 Build 0)  -->

<svg
   version="1.1"
   id="_x3C_Layer_x3E_"
   x="0px"
   y="0px"
   viewBox="0 0 12.000001 12.000003"
   xml:space="preserve"
   width="12"
   height="12.000002"
   xmlns="http://www.w3.org/2000/svg"
   xmlns:svg="http://www.w3.org/2000/svg"><defs
   id="defs15" />
<radialGradient
   id="SVGID_1_"
   cx="2437.6438"
   cy="4324.1875"
   r="4937.3359"
   gradientUnits="userSpaceOnUse">
	<stop
   offset="0"
   style="stop-color:#FFFFFF"
   id="stop1" />
	<stop
   offset="0.4113"
   style="stop-color:#FDFDFD"
   id="stop2" />
	<stop
   offset="0.6109"
   style="stop-color:#F5F6F7"
   id="stop3" />
	<stop
   offset="0.7644"
   style="stop-color:#E8EBEC"
   id="stop4" />
	<stop
   offset="0.8817"
   style="stop-color:#D8DDDE"
   id="stop5" />
</radialGradient>
<path
   style="fill:#ffffff;fill-opacity:1;stroke-width:0.00673241"
   d="m 11.785717,7.1439214 -0.473922,-0.36145 c -0.21435,-0.163398 -0.389582,-0.515476 -0.389582,-0.7825825 0,-0.2668192 0.175232,-0.6190453 0.389582,-0.7823622 L 11.785792,4.8560694 C 12.000067,4.6925987 12.064507,4.3693902 11.929143,4.1381445 L 10.598045,1.8619649 C 10.462608,1.6303448 10.146964,1.5240201 9.8965123,1.6255085 L 9.3423223,1.849911 C 9.0917953,1.9513995 8.6952813,1.9252046 8.4611123,1.791802 8.2269353,1.6582455 8.0056533,1.3322074 7.9694033,1.0674757 L 7.8892843,0.48154226 C 7.8531073,0.21658986 7.6019773,3.6421703e-7 7.3311773,3.6421703e-7 H 4.6688385 C 4.3980381,3.6421703e-7 4.1469086,0.21658986 4.1106573,0.48154226 L 4.0305385,1.0674757 C 3.9943618,1.3322074 3.7730801,1.6582455 3.5388362,1.791802 3.3046598,1.9252046 2.9081458,1.9513995 2.6576935,1.849911 L 2.1035034,1.6255085 C 1.8529768,1.5240201 1.537408,1.6303448 1.4019638,1.8618178 l -1.33109157,2.276173 c -0.1354374,0.2313994 -0.07084999667,0.5545343 0.1433517,0.7180048 l 0.4739969,0.3614575 c 0.2142008,0.1633905 0.38950767,0.5155499 0.38950767,0.7824358 0,0.2671125 -0.17531357,0.6191845 -0.38950767,0.7825825 l -0.4738818,0.361376 c -0.21423469667,0.163471 -0.2789042,0.486459 -0.14346,0.718079 L 1.4019707,10.138024 c 0.1354373,0.231474 0.4510874,0.337872 0.7015396,0.236384 l 0.5541901,-0.224403 c 0.2505267,-0.101488 0.6470406,-0.0753 0.8812102,0.05804 0.2341765,0.133636 0.4554581,0.459521 0.4916347,0.7244 l 0.080119,0.58586 c 0.036252,0.265026 0.2873811,0.481696 0.5581815,0.481696 h 2.6623385 c 0.2708,0 0.52193,-0.21667 0.558106,-0.481696 l 0.08012,-0.58586 c 0.03626,-0.264806 0.25754,-0.590764 0.491709,-0.724173 0.234015,-0.133562 0.630684,-0.15975 0.881211,-0.05826 l 0.554041,0.224402 c 0.2505327,0.101488 0.5661757,-0.0049 0.7015327,-0.236302 l 1.331173,-2.2761736 c 0.135423,-0.231559 0.07098,-0.554615 -0.143359,-0.71801 z m -5.7857117,1.684661 c -1.582371,0 -2.8653061,-1.26644 -2.8653061,-2.8287007 0,-1.5621949 1.2829283,-2.8284798 2.8653061,-2.8284798 1.582526,0 2.865305,1.2662849 2.865305,2.8284798 0,1.5622687 -1.282779,2.8287007 -2.865305,2.8287007 z"
   id="path12" /><path
   style="fill:#ffffff;fill-opacity:1;stroke-width:0.00673241"
   d="m 6.0000053,4.735162 c -0.7075641,0 -1.2811942,0.5662137 -1.2811942,1.2647269 0,0.6986525 0.5736301,1.2648725 1.2811942,1.2648725 0.707488,0 1.281125,-0.566213 1.281125,-1.2648725 0,-0.6985132 -0.573637,-1.2647269 -1.281125,-1.2647269 z"
   id="path13" />
<radialGradient
   id="SVGID_00000160153755733969470700000006196504646583636393_"
   cx="2133.7468"
   cy="33581.418"
   r="1988.2686"
   gradientTransform="matrix(0.9184,0,0,0.0893,506.453,1118.9868)"
   gradientUnits="userSpaceOnUse">
	<stop
   offset="0"
   style="stop-color:#BBC8D1"
   id="stop6" />
	<stop
   offset="0.0709"
   style="stop-color:#C5D0D8"
   id="stop7" />
	<stop
   offset="0.284"
   style="stop-color:#DFE5E9"
   id="stop8" />
	<stop
   offset="0.5053"
   style="stop-color:#F1F3F5"
   id="stop9" />
	<stop
   offset="0.7378"
   style="stop-color:#FBFCFD"
   id="stop10" />
	<stop
   offset="1"
   style="stop-color:#FFFFFF"
   id="stop11" />
</radialGradient>


</svg>
