<?xml version="1.0" encoding="UTF-8" standalone="no"?>
<svg
   viewBox="0 0 36 36"
   width="36"
   height="36"
   version="1.1"
   id="svg3"
   xmlns="http://www.w3.org/2000/svg"
   xmlns:svg="http://www.w3.org/2000/svg">
  <defs
     id="defs3" />
  <path
     fill="#455A64"
     d="m 12.459,27.645 c -0.288,0 -0.56,-0.057 -0.822,-0.141 l -0.005,0.02 -3.67,-1.062 c 0.644,1.878 2.406,3.237 4.5,3.237 2.641,0 4.776,-2.136 4.776,-4.776 0,-2.64 -2.135,-4.777 -4.776,-4.777 -1.141,0 -2.175,0.418 -2.998,1.087 L 13,22.255 c 0.029,0.007 0.055,0.018 0.084,0.024 l 0.049,0.016 v 0.002 c 1.177,0.301 2.049,1.359 2.049,2.626 0.002,1.501 -1.218,2.722 -2.723,2.722 z m 12.464,-9.346 c 3.222,0 5.837,-2.615 5.837,-5.838 0,-3.222 -2.615,-5.837 -5.837,-5.837 -3.221,0 -5.837,2.615 -5.837,5.837 0,3.223 2.616,5.838 5.837,5.838 z M 24.92,8.409 c 2.24,0 4.056,1.813 4.056,4.052 0,2.241 -1.815,4.053 -4.056,4.053 -2.236,0 -4.049,-1.812 -4.049,-4.053 0,-2.238 1.813,-4.052 4.049,-4.052 z"
     id="path2"
     style="fill:#808080;fill-opacity:1" />
  <path
     fill="#455A64"
     d="M 32,0 H 29.25 6.75 4 C 1.791,0 0,1.791 0,4 v 2.75 4.236 7.509 l 7.027,2.033 c 1.287,-1.59 3.229,-2.626 5.434,-2.626 0.07,0 0.135,0.02 0.204,0.021 l 3.876,-5.355 c 0,-0.035 -0.005,-0.072 -0.005,-0.105 0,-4.63 3.755,-8.388 8.387,-8.388 4.633,0 8.386,3.757 8.386,8.386 0,4.633 -3.753,8.387 -8.386,8.387 -0.044,0 -0.087,-0.006 -0.132,-0.007 l -5.33,3.871 c 0.002,0.07 0.021,0.14 0.021,0.211 0,3.878 -3.142,7.021 -7.021,7.021 -3.593,0 -6.52,-2.707 -6.937,-6.188 L 0,24.158 V 26.741 29.25 32 c 0,2.209 1.791,4 4,4 H 6.75 29.25 32 c 2.209,0 4,-1.791 4,-4 V 29.25 6.75 4 C 36,1.791 34.209,0 32,0 Z"
     id="path3"
     style="fill:#808080;fill-opacity:1" />
</svg>
