<?xml version="1.0" encoding="UTF-8" standalone="no"?>
<!-- Created with Inkscape (http://www.inkscape.org/) -->

<svg
   width="59.999962mm"
   height="90.000191mm"
   viewBox="0 0 59.999962 90.000191"
   version="1.1"
   id="svg1"
   xmlns="http://www.w3.org/2000/svg"
   xmlns:svg="http://www.w3.org/2000/svg">
  <defs
     id="defs1" />
  <path
     style="display:none;fill:#000000;fill-opacity:1;stroke-width:1"
     d="M 55,16 H 0 V 11.054405 H 4.531655 L 7.330618,9.854849 h 2.43955 l 1.938906,-3.358284 h 6.291911 L 19.100522,0 h 1.47652 l 1.193783,6.565804 h 7.476849 l 1.460812,1.460813 h 3.062996 l 2.387566,1.555059 h 2.764549 l 2.136241,1.507936 H 42.72485 L 60,8.211013 v 1.22177 l -5,4.594162 z"
     id="path1-6" />
  <path
     id="rect1"
     style="display:inline;fill:#ffffff;fill-opacity:0.60356;stroke-width:0.293835"
     d="m 23.752038,0 0.836125,5.9515747 5.480286,-0.091467 3.54707,10.1647543 6.211507,-0.0078 13.774353,-4.017326 h 6.36602 l 0.03256,4.000273 V 90.000191 H 0 V 16.000057 L 15.355135,15.965434 17.513143,0 Z" />
  <path
     id="rect1-6"
     style="display:inline;fill:#000000;fill-opacity:1;stroke-width:0.293835"
     d="M 37.996094,2.0097656 37.15625,7.9902344 31.351562,7.8925781 27.8125,18.037109 19.884766,18.027344 6.1113281,14.009766 H 2.0273438 L 2.0097656,16 v 0.01758 71.972656 H 57.990234 V 18.005859 L 42.886719,17.970703 40.728516,2.0097656 Z"
     transform="matrix(-1,0,0,1,59.999955,0)" />
</svg>
