<?xml version="1.0" encoding="UTF-8" standalone="no"?>
<svg
   id="Capa_1"
   enable-background="new 0 0 512 512"
   height="64"
   viewBox="0 0 64 64"
   width="64"
   version="1.1"
   xmlns="http://www.w3.org/2000/svg"
   xmlns:svg="http://www.w3.org/2000/svg">
  <defs
     id="defs9" />
  <g
     id="g9">
    <g
       id="g4"
       transform="matrix(0.19218758,0,0,0.19218758,-17.20002,-34.40004)">
      <circle
         cx="256"
         cy="345.496"
         fill="#ffe07d"
         r="166.504"
         id="circle3" />
    </g>
    <g
       id="g5"
       transform="matrix(0.19218758,0,0,0.19218758,-17.20002,-34.40004)">
      <path
         d="m 359.377,214.972 c 22.523,28.399 35.98,64.315 35.98,103.377 0,91.958 -74.546,166.504 -166.504,166.504 -39.062,0 -74.978,-13.457 -103.377,-35.98 C 155.975,487.33 203.104,512 256,512 c 91.958,0 166.504,-74.546 166.504,-166.504 0,-52.896 -24.67,-100.025 -63.127,-130.524 z"
         fill="#ffd064"
         id="path4" />
    </g>
    <g
       id="g6"
       transform="matrix(0.19218758,0,0,0.19218758,-17.20002,-34.40004)">
      <circle
         cx="256"
         cy="345.496"
         fill="#ebb044"
         r="126.688"
         id="circle5" />
    </g>
    <g
       id="g7"
       transform="matrix(0.19218758,0,0,0.19218758,-17.20002,-34.40004)">
      <path
         d="m 265.332,286.356 14.337,29.05 32.059,4.658 c 8.536,1.24 11.944,11.73 5.767,17.75 l -23.198,22.612 5.476,31.929 c 1.458,8.501 -7.465,14.984 -15.099,10.97 L 256,388.251 227.326,403.326 c -7.634,4.014 -16.557,-2.469 -15.099,-10.97 l 5.476,-31.929 -23.198,-22.612 c -6.176,-6.021 -2.768,-16.51 5.767,-17.75 l 32.059,-4.658 14.337,-29.05 c 3.817,-7.736 14.847,-7.736 18.664,-0.001 z"
         fill="#ffe07d"
         id="path6" />
    </g>
  </g>
</svg>
