<?xml version="1.0" encoding="UTF-8" standalone="no"?>
<!-- Generator: Adobe Illustrator 27.5.0, SVG Export Plug-In . SVG Version: 6.00 Build 0)  -->

<svg
   version="1.1"
   id="Layer_1"
   x="0px"
   y="0px"
   viewBox="0 0 35 35"
   xml:space="preserve"
   width="35"
   height="35"
   xmlns="http://www.w3.org/2000/svg"
   xmlns:svg="http://www.w3.org/2000/svg"><defs
   id="defs11" />
<path
   d="M 9.2490275,13.140583 C 9.2359204,12.123409 9.2997332,11.110095 9.3859271,10.097265 9.4001077,9.9299489 9.4904649,9.9183602 9.6189151,9.9137733 11.563452,9.8444865 13.44087,9.4475577 15.25165,8.739663 c 0.707893,-0.2766879 1.395748,-0.5990071 2.047389,-0.9927904 0.101884,-0.061575 0.181319,-0.070265 0.287793,-0.00489 1.169764,0.7163448 2.432723,1.2151536 3.750006,1.5806914 1.271651,0.3529817 2.569376,0.5432333 3.888108,0.586208 0.14027,0.0046 0.189044,0.052157 0.203532,0.19291 0.127477,1.22119 0.187355,2.44576 0.159348,3.672746 -0.04612,2.016243 -0.265823,4.007861 -0.897664,5.936462 -0.504605,1.540371 -1.269478,2.930567 -2.35305,4.144033 -1.114716,1.248471 -2.449865,2.209875 -3.894867,3.03197 -0.289243,0.16466 -0.586935,0.31435 -0.877866,0.476113 -0.09657,0.05384 -0.17963,0.0553 -0.279102,0.0044 C 15.754081,26.58451 14.311733,25.668979 13.069296,24.46976 11.848347,23.29106 10.952133,21.895554 10.357955,20.304723 9.8246189,18.877103 9.5440704,17.39492 9.3830308,15.885693 9.2857367,14.97306 9.2359924,14.058495 9.2490275,13.14055 Z m 14.8363275,0.03959 c 0.0021,-0.554824 -0.0026,-1.109404 -0.03694,-1.663746 -0.0078,-0.124582 -0.05674,-0.176732 -0.177454,-0.187838 -0.20329,-0.01858 -0.40634,-0.04371 -0.608664,-0.07099 -1.981477,-0.265339 -3.860584,-0.860965 -5.645048,-1.7571812 -0.136169,-0.068331 -0.243128,-0.071222 -0.375677,-0.00213 -0.679888,0.3541874 -1.388507,0.6431892 -2.11137,0.8957312 -1.345289,0.469838 -2.725345,0.789501 -4.144271,0.932915 -0.151139,0.01524 -0.214398,0.07895 -0.21657,0.232504 -0.0058,0.426138 -0.0268,0.852033 -0.0321,1.278412 -0.0083,0.642464 0.01981,1.283964 0.05795,1.925463 0.08524,1.439208 0.292623,2.857411 0.716104,4.238916 0.498326,1.625357 1.305452,3.066497 2.522055,4.26982 0.963818,0.953436 2.073223,1.702376 3.245159,2.369226 0.119507,0.06808 0.206672,0.0594 0.319665,-0.0073 0.422756,-0.249163 0.847444,-0.494705 1.257646,-0.76439 0.977339,-0.642706 1.852067,-1.402267 2.601005,-2.302831 0.993032,-1.194149 1.631393,-2.566719 2.027833,-4.059045 0.463317,-1.745833 0.616873,-3.527401 0.600698,-5.327557 z"
   id="path4"
   style="fill:#ffffff;fill-opacity:1;stroke-width:0.241437" />
</svg>
