<?xml version="1.0" encoding="UTF-8" standalone="no"?>
<!-- Generator: Adobe Illustrator 27.5.0, SVG Export Plug-In . SVG Version: 6.00 Build 0)  -->

<svg
   version="1.1"
   id="Layer_1"
   x="0px"
   y="0px"
   viewBox="0 0 35 35"
   xml:space="preserve"
   width="35"
   height="35"
   xmlns="http://www.w3.org/2000/svg"
   xmlns:svg="http://www.w3.org/2000/svg"><defs
   id="defs539" />










<g
   id="layer1"><path
     id="path539"
     style="fill:#ffffff;fill-opacity:1;stroke:#ffffff;stroke-width:0"
     d="m 25.329604,8.9034445 -4.297588,1.9079705 -0.15765,-0.454453 -12.5380994,5.934001 1.8068564,5.222284 2.400007,-1.131913 v 0.413224 l 6.57694,-3.132972 v -0.387404 l 3.563913,-1.686429 -0.207213,-0.58525 4.227563,-1.869748 z m -6.209534,9.3521935 -6.57694,3.129161 v 0.679366 H 11.939902 V 23.00747 H 9.4207635 l -1.3512674,2.926252 h 2.8933689 v 0.557008 h 9.58331 v -0.557008 h 2.45809 V 22.99816 H 19.70868 v -0.927757 l -0.58861,-0.0059 z m -6.665785,5.833938 h 6.762269 a 0.30285015,0.19602661 0 0 1 0.302834,0.196021 v 0.355856 a 0.3090731,0.20005455 0 0 1 -0.309051,0.200043 h -6.772668 a 0.26136382,0.16917366 0 0 1 -0.261368,-0.169164 v -0.402797 a 0.27795835,0.17991483 0 0 1 0.277984,-0.179959 z" /></g></svg>
