<?xml version="1.0" encoding="UTF-8" standalone="no"?>
<!-- Generator: Adobe Illustrator 27.5.0, SVG Export Plug-In . SVG Version: 6.00 Build 0)  -->

<svg
   version="1.1"
   id="Layer_1"
   x="0px"
   y="0px"
   viewBox="0 0 35 35"
   xml:space="preserve"
   width="35"
   height="35"
   xmlns="http://www.w3.org/2000/svg"
   xmlns:svg="http://www.w3.org/2000/svg"><defs
   id="defs37" />
<path
   d="m 8.3843749,13.63618 c 1.4760651,1.217914 2.8570941,2.357447 4.2817141,3.532886 0,-1.202718 0,-2.362726 0,-3.656381 1.44136,1.27758 2.796247,2.478494 4.197172,3.720231 0,-1.25955 0,-2.460916 0,-3.660887 0.163287,-0.03513 0.204388,0.08652 0.272145,0.150087 1.131377,1.061667 2.279838,2.104361 3.463325,3.107691 0.133841,0.113451 0.204646,0.226623 0.192284,0.400363 -0.111713,1.571981 -0.223404,3.143962 -0.330717,4.716244 -0.06619,0.969849 -0.126071,1.940129 -0.185479,2.910429 -0.01009,0.163952 -0.05874,0.351385 0.226838,0.342113 0.23128,-0.0075 0.406779,-0.01889 0.422661,-0.323291 0.02734,-0.524179 0.09836,-1.045956 0.132575,-1.56992 0.113687,-1.742652 0.210011,-3.486463 0.330458,-5.228599 0.114954,-1.663004 0.258001,-3.324098 0.372054,-4.987166 0.01674,-0.244565 0.08935,-0.306635 0.324771,-0.297879 0.499111,0.01867 0.99964,0.01502 1.499116,0.0022 0.225099,-0.0058 0.313932,0.04278 0.330351,0.297814 0.113945,1.768943 0.253731,3.536212 0.374393,5.304769 0.02771,0.4062 0.04194,0.8127 0.08042,1.218858 0.02103,0.222502 0.0871,0.294466 0.305434,0.287491 0.420473,-0.01352 0.842727,0.01416 1.262212,-0.0103 0.304081,-0.01781 0.380059,0.101281 0.378943,0.384823 -0.0058,1.51253 0.01395,3.025189 0,4.537612 -0.003,0.321766 0.09997,0.395124 0.398645,0.38317 0.47561,-0.0191 0.507696,0.03181 0.506323,0.518901 -0.0022,0.520337 -0.04477,0.568156 -0.514715,0.568027 -6.339757,-0.0022 -12.679514,-0.0026 -19.0192502,-0.0071 -0.1738253,-1.94e-4 -0.4252586,0.08132 -0.4856544,-0.143198 -0.073466,-0.273132 -0.084283,-0.577965 0.013949,-0.852536 0.050845,-0.142081 0.2311088,-0.0886 0.3581669,-0.0907 0.7865595,-0.01309 0.802764,-0.01181 0.804717,-0.805511 0.00816,-3.28817 0.00558,-6.576382 0.00708,-9.864573 1.936e-4,-0.25637 2.2e-5,-0.512719 2.2e-5,-0.885244 z m 5.9004411,7.257088 c 0.222523,0 0.445304,-0.0069 0.667463,0.0022 0.228919,0.009 0.339044,-0.07741 0.330866,-0.319298 -0.01095,-0.326875 -0.0092,-0.654544 -0.0022,-0.98159 0.0056,-0.234371 -0.09557,-0.332111 -0.328656,-0.326038 -0.313933,0.0082 -0.628338,-0.0034 -0.942399,0.0022 -0.705023,0.01159 -0.661583,-0.133454 -0.665296,0.676457 -0.0043,0.954933 -0.0024,0.954933 0.939351,0.946992 z m -3.225349,-1.624457 c -0.929565,0 -0.929501,0 -0.932999,0.92774 0,0.117786 0.0032,0.235959 -0.0045,0.353316 -0.01524,0.227332 0.0754,0.339967 0.314062,0.339431 0.431698,0 0.863546,0.006 1.295029,0.0191 0.221322,0.0069 0.31155,-0.08763 0.295797,-0.305348 -0.0084,-0.117078 0.0037,-0.235509 0.0022,-0.353252 -0.01717,-1.15123 0.15466,-0.961672 -0.969248,-0.981053 z m 6.463037,1.64665 c 0.196899,0 0.394589,-0.01138 0.590457,0.0028 0.244437,0.0176 0.365979,-0.0555 0.353102,-0.326317 -0.01674,-0.353574 -0.01374,-0.709036 0,-1.062825 0.0088,-0.21308 -0.07512,-0.272446 -0.275279,-0.263775 -0.301312,0.01309 -0.603656,0.0028 -0.905548,0.003 -0.700365,0 -0.700365,0 -0.703713,0.704723 -0.0045,0.943922 -0.0045,0.943922 0.940167,0.94242 z m -3.17051,2.555373 c 0.925228,0.0022 0.925249,0.0022 0.922674,-0.934329 0,-0.104652 -0.0064,-0.209603 0,-0.313868 0.01374,-0.245596 -0.08475,-0.361193 -0.343873,-0.35117 -0.339602,0.01309 -0.680084,0.0026 -1.020179,0.0034 -0.564938,0.0022 -0.564915,0.0022 -0.567084,0.572921 -0.0039,1.020587 -0.0039,1.020587 1.008933,1.02297 z m -3.320193,0.009 c 0.184041,0 0.368941,-0.01116 0.551953,0.0026 0.320994,0.02406 0.500271,-0.066 0.452495,-0.435583 -0.02844,-0.219841 -0.0161,-0.446915 -0.0037,-0.669652 0.02039,-0.359519 -0.102527,-0.548069 -0.498039,-0.505873 -0.233942,0.02496 -0.472777,0.0041 -0.709423,0.0043 -0.696545,0 -0.696545,0 -0.696288,0.688625 0,0.909218 0,0.909218 0.902865,0.915743 z m 6.4927,-0.01009 c 0.209775,0 0.420817,-0.01459 0.629003,0.0039 0.242312,0.02125 0.325329,-0.06842 0.313632,-0.309618 -0.01653,-0.340074 -0.01202,-0.681865 -1.94e-4,-1.022347 0.0071,-0.205568 -0.06887,-0.276159 -0.27384,-0.270342 -0.432342,0.01223 -0.865563,0.01395 -1.297819,0 -0.224541,-0.0069 -0.310949,0.08905 -0.309918,0.297449 0,0.11798 -0.0022,0.235938 0,0.353917 0.0026,0.940125 0.0028,0.940125 0.939866,0.946478 z"
   id="path3"
   style="fill:#ffffff;fill-opacity:1;stroke-width:0.0202103" /><path
   d="m 22.834915,12.24148 c -0.02625,0 -0.0525,2.14e-4 -0.07875,0 -0.995433,0 -0.989831,0.0021 -0.907243,-0.988565 0.01695,-0.203014 0.09355,-0.278005 0.289508,-0.275687 0.459406,0.0054 0.918919,0.0034 1.378368,0 0.127659,-0.0021 0.238106,0.01331 0.270536,0.160733 0.0713,0.324364 0.03247,0.653471 0.03541,0.980539 0.0022,0.13532 -0.110725,0.121735 -0.20016,0.122379 -0.262551,0.0021 -0.525124,0 -0.787675,0 z"
   id="path34"
   style="fill:#ffffff;fill-opacity:1;stroke-width:0.0202103" /><path
   d="m 26.351832,10.020428 c -0.525661,0.01781 -1.253542,-0.2012537 -2.002971,-0.209624 -0.473142,-0.00537 -0.869941,0.1433053 -1.195035,0.487006 -0.08853,0.09362 -0.178718,0.230894 -0.322303,0.177753 -0.157062,-0.05812 -0.100358,-0.226623 -0.09692,-0.34926 0.01459,-0.5180629 0.270513,-0.9293496 0.639927,-1.2584348 0.754709,-0.6723141 1.620873,-0.7932126 2.561855,-0.4493184 0.476361,0.1740611 0.935231,0.3962628 1.467072,0.3826129 0.389503,-0.010089 0.752305,-0.061812 1.078299,-0.2905599 0.07875,-0.055288 0.168846,-0.1626861 0.277511,-0.073702 0.09085,0.074389 0.06091,0.1974339 0.04848,0.2982866 -0.01803,0.1467178 -0.108429,0.2628943 -0.197864,0.3766462 -0.518578,0.6592219 -1.218128,0.9138964 -2.258052,0.9085954 z"
   id="path24"
   style="fill:#ffffff;fill-opacity:1;stroke-width:0.0202103" />
</svg>
