<?xml version="1.0" encoding="UTF-8" standalone="no"?>
<!-- Generator: Adobe Illustrator 27.5.0, SVG Export Plug-In . SVG Version: 6.00 Build 0)  -->

<svg
   version="1.1"
   x="0px"
   y="0px"
   viewBox="0 0 35 35"
   xml:space="preserve"
   id="svg82"
   width="35"
   height="35"
   xmlns="http://www.w3.org/2000/svg"
   xmlns:svg="http://www.w3.org/2000/svg"><defs
   id="defs82" />

<g
   id="g81"
   transform="matrix(0.05329971,0,0,0.05329971,-15.411699,-2.6570212)">
			<path
   id="path62"
   style="fill:#ffffff;fill-opacity:1;stroke:#ffffff;stroke-width:0;stroke-linecap:round;stroke-linejoin:round;stroke-miterlimit:10;stroke-dasharray:none;stroke-opacity:1"
   d="m 619.36523,185.0332 c -0.06,0 -52.48414,-0.23192 -78.24414,45.95508 -32.73785,58.69584 -18.90411,133.19026 0.92579,189.5918 l -0.82618,-1.80078 -38.5039,22.56054 c 0,0 2.18203,110.92839 18.58203,124.27539 l 59.20703,-61.2207 -0.64453,-1.40625 c 0.54656,0.92501 0.84179,1.40625 0.84179,1.40625 h 18.23047 v 42.85938 h 35.03711 v -42.85938 h 23.20118 l 59.20703,61.2207 c 16.4,-13.347 18.58203,-124.27539 18.58203,-124.27539 L 697.3125,418.7832 v -0.002 c 19.48951,-56.17982 32.68898,-129.71915 0.29883,-187.79297 -25.762,-46.188 -78.18414,-45.95508 -78.24414,-45.95508 z" />
			
				
			
				
			
				
			
				
			
				
			
			
			
				
			
				
			
				
			
				
			
				
			
				
			
				
			
				
			
				
			
				
			
				
			
				
			
				
			
				
			
				
			
				
			
				
		</g>
</svg>
