<?xml version="1.0" encoding="UTF-8" standalone="no"?>
<!-- Generator: Adobe Illustrator 27.5.0, SVG Export Plug-In . SVG Version: 6.00 Build 0)  -->

<svg
   version="1.1"
   id="Layer_1"
   x="0px"
   y="0px"
   viewBox="0 0 35 35"
   xml:space="preserve"
   width="35"
   height="35"
   xmlns="http://www.w3.org/2000/svg"
   xmlns:svg="http://www.w3.org/2000/svg"><defs
   id="defs14" />
<path
   d="m 16.865072,19.187911 c 0.514278,0 0.964237,0 1.452877,0 0,-0.185493 1.7e-5,-0.338955 0,-0.492382 0,-1.706301 0,-3.412585 -0.0021,-5.118867 0,-0.201054 0.0032,-0.364206 0.23288,-0.47532 2.314762,-1.119126 4.633804,-1.148582 6.970851,-0.07179 0.273415,0.12599 0.368968,0.289882 0.36793,0.596827 -0.01241,3.751169 -0.0094,7.502395 -0.01037,11.253621 0,0.205926 0,0.411871 0,0.672353 0.321097,0 0.603607,-0.0018 0.886079,0 0.500829,0.004 0.743769,0.188883 0.72969,0.55183 -0.01278,0.331545 -0.246534,0.481877 -0.750215,0.481766 -6.186939,-0.0018 -12.373841,-0.0024 -18.5607797,-0.0039 -0.4594993,0 -0.7038097,-0.166208 -0.712776,-0.482063 -0.00852,-0.298738 0.210817,-0.490325 0.6314133,-0.553533 0.036994,-0.0056 0.072656,-0.02004 0.1592057,-0.04472 0,-0.156204 0,-0.320948 0,-0.485676 -0.00185,-4.871352 0,-9.742704 -0.0113,-14.614019 0,-0.3065 0.075787,-0.4586839 0.3751356,-0.5709466 C 9.8052355,9.3879988 10.976566,8.9172551 12.148378,8.4484 c 0.276229,-0.1105215 0.521615,-0.132696 0.815109,-0.01223 1.167441,0.4789511 2.342958,0.9393584 3.525756,1.3790722 0.314928,0.1170798 0.395087,0.2870488 0.393382,0.6027178 -0.01482,2.761237 -0.01389,5.522569 -0.01779,8.283881 0,0.153648 0,0.307315 0,0.485732 z m 0.08753,6.282362 c 0,-1.401914 0,-2.770446 0,-4.15954 -0.647327,0 -1.265106,0 -1.89626,0 0,1.39745 0,2.76839 0,4.15954 0.635137,0 1.242264,0 1.89626,0 z m 2.851715,-4.149277 c -0.656831,0 -1.271479,0 -1.874604,0 0,1.405471 0,2.77604 0,4.144479 0.644548,0 1.250063,0 1.874604,0 0,-1.388113 0,-2.749975 0,-4.144479 z M 15.30056,16.530303 c -0.638916,0 -1.231389,0 -1.84926,0 0,0.807162 0,1.592427 0,2.384083 0.630376,0 1.232778,0 1.84926,0 0,-0.806458 0,-1.580107 0,-2.384083 z m -3.500709,6.845602 c 0,-0.834876 0,-1.621659 0,-2.436083 -0.626393,0 -1.227517,0 -1.8314022,0 0,0.830207 0,1.627458 0,2.436083 0.6222802,0 1.2145682,0 1.8314022,0 z M 9.978436,12.131029 c 0,0.825335 0,1.607469 0,2.388047 0.623855,0 1.213902,0 1.810913,0 0,-0.811794 0,-1.594576 0,-2.388047 -0.613703,0 -1.194728,0 -1.810913,0 z m 3.479442,2.394864 c 0.627893,0 1.221015,0 1.836367,0 0,-0.806995 0,-1.593131 0,-2.390474 -0.623818,0 -1.217866,0 -1.836367,0 0,0.796676 0,1.573068 0,2.390474 z M 9.9652831,16.53284 c 0,0.824539 0,1.599412 0,2.388327 0.6140179,0 1.2027869,0 1.8062449,0 0,-0.813794 0,-1.597725 0,-2.388327 -0.616426,0 -1.19734,0 -1.8062449,0 z M 24.396847,14.807125 c -0.534526,0 -1.01883,0 -1.506839,0 0,0.611683 0,1.189263 0,1.783607 0.516594,0 1.010587,0 1.506839,0 0,-0.612555 0,-1.191042 0,-1.783607 z m -0.0032,5.422255 c 0,-0.641436 0,-1.219237 0,-1.814322 -0.51802,0 -1.014349,0 -1.524681,0 0,0.536527 -0.0096,1.042562 0.0089,1.547559 0.0033,0.09109 0.118265,0.251035 0.188439,0.254832 0.436676,0.02366 0.875278,0.01186 1.327387,0.01186 z m -4.573782,-3.657952 c 0.516094,0 1.00979,0 1.505878,0 0,-0.616148 0,-1.192282 0,-1.765193 -0.517095,0 -1.004233,0 -1.505878,0 0,0.603607 0,1.180909 0,1.765193 z m 4.56752,7.252028 c 0,-0.620688 0,-1.19708 0,-1.797408 -0.495956,0 -0.969219,0 -1.452506,0 0,0.610461 0,1.19582 0,1.797408 0.498458,0 0.960013,0 1.452506,0 z m -4.566131,-4.592455 c 0.376192,0 0.730765,0 1.086819,0 0.0176,0.347959 0.03242,0.641138 0.04893,0.967071 0.149425,-0.01741 0.255499,-0.02971 0.377099,-0.04382 0,-0.589249 0,-1.143783 0,-1.730661 -0.512908,0 -1.010736,0 -1.512843,0 0,0.268856 0,0.510739 0,0.807402 z"
   id="path1"
   style="fill:#ffffff;fill-opacity:1;stroke-width:0.0265175" />
</svg>
