<?xml version="1.0" encoding="UTF-8" standalone="no"?>
<!-- Generator: Adobe Illustrator 27.5.0, SVG Export Plug-In . SVG Version: 6.00 Build 0)  -->

<svg
   version="1.1"
   id="Layer_1"
   x="0px"
   y="0px"
   viewBox="0 0 35 35"
   xml:space="preserve"
   sodipodi:docname="small_port.svg"
   width="35"
   height="35"
   inkscape:version="1.4.2 (f4327f4, 2025-05-13)"
   inkscape:export-filename="smallport.svg"
   inkscape:export-xdpi="96"
   inkscape:export-ydpi="96"
   xmlns:inkscape="http://www.inkscape.org/namespaces/inkscape"
   xmlns:sodipodi="http://sodipodi.sourceforge.net/DTD/sodipodi-0.dtd"
   xmlns="http://www.w3.org/2000/svg"
   xmlns:svg="http://www.w3.org/2000/svg"><defs
   id="defs3" /><sodipodi:namedview
   id="namedview3"
   pagecolor="#ffffff"
   bordercolor="#111111"
   borderopacity="1"
   inkscape:showpageshadow="0"
   inkscape:pageopacity="0"
   inkscape:pagecheckerboard="1"
   inkscape:deskcolor="#d1d1d1"
   inkscape:zoom="13.158092"
   inkscape:cx="39.215411"
   inkscape:cy="16.301755"
   inkscape:window-width="3440"
   inkscape:window-height="1334"
   inkscape:window-x="-11"
   inkscape:window-y="-11"
   inkscape:window-maximized="1"
   inkscape:current-layer="Layer_1"><inkscape:page
     x="0"
     y="0"
     width="35"
     height="35"
     id="page2"
     margin="0"
     bleed="0" /></sodipodi:namedview>


<path
   d="m 19.151286,13.660461 c 0.320494,0.01667 0.640252,0.03536 0.96567,0.04075 0.07948,0.0013 0.129158,-0.02067 0.18068,-0.08183 0.182912,-0.217111 0.419703,-0.302061 0.697785,-0.240776 0.267491,0.05895 0.433852,0.230153 0.486061,0.499359 0.03765,0.194124 0.04073,0.391009 0.012,0.588233 -0.04007,0.275074 -0.182538,0.46938 -0.451795,0.546593 -0.282638,0.08105 -0.535744,0.01356 -0.724651,-0.217472 -0.0676,-0.08268 -0.132838,-0.104825 -0.233454,-0.09856 -0.615047,0.03823 -1.230348,0.07314 -1.845885,0.102278 -0.108066,0.0051 -0.128372,0.04163 -0.12192,0.142626 0.125306,1.962053 0.218872,3.926187 0.383548,5.885619 0.03822,0.454863 0.07045,0.911804 0.172174,1.358592 0.166892,0.733066 0.667126,1.107617 1.419999,1.070644 0.371829,-0.01826 0.731226,-0.0972 1.075225,-0.237464 0.745046,-0.30378 1.281705,-0.855031 1.750339,-1.485978 0.04162,-0.05604 0.0148,-0.07646 -0.02996,-0.105186 -0.162213,-0.104125 -0.325711,-0.206754 -0.482659,-0.318477 -0.235899,-0.167925 -0.237698,-0.332251 -0.0026,-0.496026 0.64304,-0.447975 1.287807,-0.89351 1.934486,-1.336221 0.233333,-0.159733 0.389845,-0.109739 0.506704,0.15034 0.07306,0.162576 0.107003,0.334777 0.116949,0.51189 0.04503,0.802533 -0.101934,1.577592 -0.34274,2.337741 -0.07385,0.233145 -0.220876,0.27448 -0.424594,0.132024 -0.09954,-0.06961 -0.197863,-0.14183 -0.290211,-0.220539 -0.0671,-0.05719 -0.102815,-0.05853 -0.147501,0.02625 -0.477498,0.905914 -1.142923,1.650771 -1.961459,2.26008 -0.601095,0.447445 -1.259976,0.795465 -1.941037,1.103945 -0.5227,0.236754 -1.054934,0.452836 -1.564712,0.717723 -0.291126,0.151273 -0.567589,0.324419 -0.807373,0.550932 -0.03801,0.03591 -0.06793,0.07015 -0.123523,0.01724 -0.424099,-0.403596 -0.950315,-0.636773 -1.472074,-0.877199 -0.601005,-0.276931 -1.21274,-0.530144 -1.796988,-0.843803 -1.10572,-0.593615 -2.036665,-1.38059 -2.729232,-2.435052 -0.105678,-0.160899 -0.201183,-0.329046 -0.292247,-0.498742 -0.04337,-0.0808 -0.07435,-0.07642 -0.137385,-0.02238 -0.104737,0.08978 -0.206777,0.184904 -0.329155,0.251463 -0.172338,0.09374 -0.308137,0.05162 -0.36926,-0.134604 -0.2621757,-0.798722 -0.4169717,-1.614043 -0.3420191,-2.459872 0.014474,-0.163287 0.051405,-0.32338 0.1302131,-0.469634 0.110437,-0.204993 0.26485,-0.247844 0.454362,-0.117593 0.642419,0.441567 1.282516,0.886517 1.923243,1.330544 0.03095,0.02144 0.06016,0.04557 0.08895,0.06989 0.15747,0.133033 0.16106,0.28195 -0.0053,0.407364 -0.170392,0.128458 -0.351358,0.243046 -0.529479,0.361008 -0.04663,0.03088 -0.08003,0.04977 -0.03233,0.112234 0.441302,0.577897 0.92311,1.11062 1.59969,1.422008 0.428118,0.197044 0.879266,0.304204 1.352202,0.294813 0.664557,-0.0132 1.080417,-0.337462 1.260549,-0.979521 0.109301,-0.389609 0.135659,-0.792759 0.170213,-1.193171 0.129034,-1.495306 0.21798,-2.993455 0.309273,-4.491414 0.03392,-0.556494 0.06977,-1.112881 0.110233,-1.668928 0.0065,-0.08848 -0.01696,-0.118367 -0.103854,-0.12292 -0.640506,-0.03357 -1.280897,-0.06967 -1.921181,-0.10735 -0.06178,-0.0037 -0.09776,0.01708 -0.135423,0.06538 -0.19545,0.250729 -0.464209,0.337525 -0.758271,0.251356 -0.27396,-0.08028 -0.439994,-0.299482 -0.47004,-0.617917 -0.01186,-0.125763 -0.0079,-0.251196 0,-0.376852 0.01765,-0.283628 0.138277,-0.501609 0.411869,-0.606265 0.276381,-0.105716 0.538507,-0.05631 0.741048,0.155466 0.112408,0.117529 0.220753,0.141958 0.371689,0.134656 0.59874,-0.02896 1.198044,-0.04759 1.797291,-0.06419 0.115205,-0.0032 0.170694,-0.0283 0.17269,-0.159572 0.004,-0.259624 0.02349,-0.519256 0.04447,-0.778243 0.0066,-0.08172 -0.03702,-0.09603 -0.09602,-0.117507 -0.660477,-0.240552 -1.123819,-0.690299 -1.327496,-1.360915 -0.246449,-0.811457 -0.06108,-1.5442161 0.555306,-2.1304868 0.618211,-0.5880005 1.35997,-0.7370039 2.15358,-0.425902 0.79401,0.3112602 1.245681,0.9187023 1.32164,1.7738178 0.0859,0.966934 -0.498599,1.83298 -1.424072,2.143307 -0.06091,0.02042 -0.08902,0.04278 -0.0836,0.112805 0.02137,0.275828 0.03904,0.552005 0.05286,0.828309 0.0043,0.08472 0.03519,0.114047 0.121094,0.113007 0.341324,-0.0042 0.674813,0.01098 1.007517,0.02829 z m -2.755754,-3.0525 c 0.0024,0.573907 0.462745,1.04056 1.025067,1.039063 0.571302,-0.0015 1.023644,-0.466504 1.022867,-1.051458 -8.37e-4,-0.580552 -0.458909,-1.0387774 -1.03659,-1.0368041 -0.563083,0.0019 -1.013756,0.4694751 -1.011344,1.0491991 z"
   id="path2"
   style="fill:#ffffff;fill-opacity:1;stroke-width:0.010612" />

</svg>
