<?xml version="1.0" encoding="UTF-8" standalone="no"?>
<!-- Generator: Adobe Illustrator 19.0.0, SVG Export Plug-In . SVG Version: 6.00 Build 0)  -->

<svg
   version="1.1"
   id="Capa_1"
   x="0px"
   y="0px"
   viewBox="0 0 64 64"
   xml:space="preserve"
   width="64"
   height="64"
   xmlns="http://www.w3.org/2000/svg"
   xmlns:svg="http://www.w3.org/2000/svg"><defs
   id="defs17" />
<g
   id="g2"
   style="fill:#ffffff;fill-opacity:1"
   transform="matrix(0.25,0,0,0.25,0,-17.1055)">
	<g
   id="g1"
   style="fill:#ffffff;fill-opacity:1">
		<path
   d="M 0,130.4225 V 265.525 H 256 V 130.422 Z m 210.57,30.025 h 15.0125 V 175.448 H 210.57 Z m -90.0765,0 h 15.0125 v 15.0005 h -15.0125 z m 0,30.0255 h 15.0125 v 15.0005 H 120.4935 Z M 90.468,160.4475 h 15.0125 V 175.448 H 90.468 Z m 0,30.0255 h 15.0125 v 15.0005 H 90.468 Z M 45.43,235.499 H 30.4175 V 220.4985 H 45.43 Z m 0,-30.0255 H 30.4175 V 190.473 H 45.43 Z m 0,-30.025 H 30.4175 V 160.448 H 45.43 Z M 75.4555,235.499 H 60.443 v -15.0005 h 15.0125 z m 0,-30.0255 H 60.443 V 190.473 h 15.0125 z m 0,-30.025 H 60.443 V 160.448 h 15.0125 z m 90.076,60.0505 h -75.064 v -15.0005 h 75.0635 v 15.0005 z m 0,-30.0255 h -15.012 V 190.473 h 15.012 z m 0,-30.025 h -15.012 V 160.448 h 15.012 z m 30.0255,60.0505 h -15.0125 v -15.0005 h 15.0125 z m 0,-30.0255 H 180.5445 V 190.473 h 15.0125 z m 0,-30.025 H 180.5445 V 160.448 h 15.0125 z m 30.0255,60.0505 H 210.57 v -15.0005 h 15.0125 z m 0,-30.0255 H 210.57 V 190.473 h 15.0125 z"
   id="path1"
   style="fill:#ffffff;fill-opacity:1;stroke-width:0.5" />
	</g>
</g>















</svg>
